<?xml version="1.0"?>
<svg xmlns="http://www.w3.org/2000/svg" viewBox="0 0 512 512" width="512" height="512"><g id="Filled_outline" data-name="Filled outline"><rect x="120" y="24" width="272" height="464" rx="32" ry="32" style="fill:#348ed8"/><polygon points="208 40 304 40 312 24 200 24 208 40" style="fill:#2b78b7"/><path d="M439.834,317.813,392,264v96l-39.716-39.716a28.284,28.284,0,0,0-20-8.284h0a28.284,28.284,0,0,0-20,48.284L360,408a64.719,64.719,0,0,0-6.111,67.777L360,488v8h96V360.333A64,64,0,0,0,439.834,317.813Z" style="fill:#fdc8a2"/><path d="M112,456V104h16V456a24.027,24.027,0,0,0,24,24H336v16H152A40.045,40.045,0,0,1,112,456Zm184-8H216v16h80ZM144,144a8,8,0,0,1,4.422-7.155l13.615-6.808,6.808-13.615A8,8,0,0,1,176,112h32a8,8,0,0,1,7.155,4.422l6.808,13.615,13.615,6.808A8,8,0,0,1,240,144v24a8,8,0,0,1-8,8h-2.165a15.963,15.963,0,0,1-27.67,0h-20.33a15.963,15.963,0,0,1-27.67,0H152a8,8,0,0,1-8-8Zm16,10.165A15.931,15.931,0,0,1,181.835,160h20.33A15.931,15.931,0,0,1,224,154.165v-5.221l-11.578-5.789a8,8,0,0,1-3.577-3.577L203.056,128H180.944l-5.789,11.578a8,8,0,0,1-3.577,3.577L160,148.944ZM352,104v23.354l13,10.4A8,8,0,0,1,360,152v24a8,8,0,0,1-8,8H288a8,8,0,0,1-8-8V152a8,8,0,0,1-5-14.247l40-32a8,8,0,0,1,10,0l11,8.8V104Zm-7.668,37.711L320,122.245l-24.332,19.466A8.008,8.008,0,0,1,296,144v24h16V152h16v16h16V144A8.008,8.008,0,0,1,344.332,141.711ZM184,296h16a8,8,0,0,0,8-8V272h16a8,8,0,0,0,8-8V248a8,8,0,0,0-8-8H208V224a8,8,0,0,0-8-8H184a8,8,0,0,0-8,8v16H160a8,8,0,0,0-8,8v16a8,8,0,0,0,8,8h16v16A8,8,0,0,0,184,296Zm94.824-29.087-6.669-33.344A8,8,0,0,1,280,224h59.056l5.789-11.578A8,8,0,0,1,352,208h16v16H356.944l-5.309,10.619-6.459,32.294A15.993,15.993,0,1,1,320,280H304a16,16,0,1,1-25.176-13.087ZM289.759,240l4.8,24h34.882l4.8-24ZM208,400v-8H184v8a8,8,0,0,1-8,8h-8a8,8,0,0,1-8-8V368h-8a8,8,0,0,1-8-8V347a8,8,0,0,1,6.527-7.863L160,337.359V336a8,8,0,0,1,8-8,20.972,20.972,0,0,1,20.679,17.989l.28,2.009H208a24.027,24.027,0,0,1,21.73,13.825l13.888,7.042-7.236,14.27L232,380.913V400a8,8,0,0,1-8,8h-8A8,8,0,0,1,208,400ZM173.7,354.382l-.59-4.223a7.966,7.966,0,0,1-3.632,1.7l-.856.16A7.971,7.971,0,0,1,173.7,354.382ZM216,376v-4a8.009,8.009,0,0,0-8-8H182a8,8,0,0,1-6-2.707V376ZM128,56a24.028,24.028,0,0,1,24-24h43.056l5.789,11.578A8,8,0,0,0,208,48h96a8,8,0,0,0,7.155-4.422L316.944,32H360a24.028,24.028,0,0,1,24,24V340.687l-26.06-26.06a36.286,36.286,0,0,0-56.229,45.2l.043.171h-8.81l-5.789-11.578A8,8,0,0,0,272,352v24a8,8,0,0,0,8,8h21.754l-5.515,22.06A8,8,0,0,0,304,416h8a8,8,0,0,0,7.155-4.422l11.036-22.073,19.481,19.48a72.269,72.269,0,0,0-2.939,70.369L352,489.889V496h16v-8a7.994,7.994,0,0,0-.845-3.578L361.044,472.2a56.41,56.41,0,0,1,5.356-59.4,8,8,0,0,0-.743-10.457L317.94,354.627a20.284,20.284,0,0,1,28.687-28.686l63.716,63.716,11.314-11.314L400,356.686V285.042l33.854,38.086A55.94,55.94,0,0,1,448,360.333V496h16V360.333A71.925,71.925,0,0,0,445.813,312.5L400,260.958V56a40.045,40.045,0,0,0-40-40H152a40.045,40.045,0,0,0-40,40V80h16Zm32,8H144V80h16Zm16,0V80h16V64Zm48,0H208V80h16Z"/></g></svg>
