<svg width="86" height="86" viewBox="0 0 86 86" fill="none" xmlns="http://www.w3.org/2000/svg">
<path d="M1.42773 84.5718H84.5718V1.42773H1.42773V84.5718Z" fill="#FFE100"/>
<path d="M80.2715 84.5718H84.572V1.42773H80.2715V84.5718Z" fill="#FFA800"/>
<path d="M1.42773 84.5718H5.72824V1.42773H1.42773V84.5718Z" fill="white"/>
<path d="M84.5721 86H1.4279C0.639289 86 0 85.3607 0 84.5721V1.4279C0 0.639289 0.639289 0 1.4279 0H84.5721C85.3607 0 86 0.639289 86 1.4279V84.5721C86 85.3607 85.3607 86 84.5721 86ZM2.8558 83.1442H83.1442V2.8558H2.8558V83.1442Z" fill="black"/>
<path d="M65.9362 78.8321C58.8254 78.8321 53.04 73.0469 53.04 65.936C53.04 65.1473 53.6795 64.508 54.4679 64.508C55.2566 64.508 55.8958 65.1473 55.8958 65.936C55.8958 71.472 60.3999 75.9763 65.9362 75.9763C71.4724 75.9763 75.9765 71.4722 75.9765 65.936C75.9765 60.3997 71.4724 55.8956 65.9362 55.8956C58.8254 55.8956 53.04 50.1104 53.04 42.9995C53.04 35.8885 58.8252 30.1035 65.9362 30.1035C73.0471 30.1035 78.8323 35.8887 78.8323 42.9997C78.8323 43.7883 78.193 44.4276 77.4044 44.4276C76.6158 44.4276 75.9765 43.7883 75.9765 42.9997C75.9765 37.4634 71.4724 32.9593 65.9362 32.9593C60.3999 32.9593 55.8958 37.4634 55.8958 42.9997C55.8958 48.5357 60.3999 53.04 65.9362 53.04C73.047 53.04 78.8323 58.8252 78.8323 65.9361C78.8323 73.0471 73.047 78.8321 65.9362 78.8321Z" fill="black"/>
<path d="M35.8327 78.8321C28.7219 78.8321 22.9365 73.0469 22.9365 65.936C22.9365 65.1473 23.5758 64.508 24.3644 64.508C25.153 64.508 25.7923 65.1473 25.7923 65.936C25.7923 71.472 30.2962 75.9763 35.8327 75.9763C41.3691 75.9763 45.873 71.4722 45.873 65.936V31.5314C45.873 30.7428 46.5123 30.1035 47.3009 30.1035C48.0895 30.1035 48.7288 30.7428 48.7288 31.5314V65.9358C48.7285 73.0467 42.9435 78.8321 35.8327 78.8321Z" fill="black"/>
</svg>
