<svg width="211" height="211" viewBox="0 0 211 211" fill="none" xmlns="http://www.w3.org/2000/svg">
<g clip-path="url(#clip0)" filter="url(#filter0_d)">
<path d="M4.83095 192.419L70.9503 126.3C60.2709 112.998 53.8769 96.1089 53.8769 77.7246C53.8769 34.8396 88.6462 0.0703125 131.531 0.0703125C174.416 0.0703125 209.186 34.8396 209.186 77.7246C209.186 120.61 174.416 155.379 131.531 155.379C113.247 155.379 96.4416 149.055 83.174 138.481L17.0336 204.622C13.6641 207.991 8.20082 207.991 4.83134 204.622C1.46107 201.252 1.46107 195.789 4.83095 192.419ZM191.928 77.7246C191.928 44.3701 164.885 17.327 131.531 17.327C98.1767 17.327 71.1328 44.3701 71.1328 77.7246C71.1328 94.4502 77.934 109.588 88.9205 120.526C88.9213 120.527 88.9225 120.528 88.9233 120.529C88.9237 120.529 88.9245 120.53 88.9249 120.531C99.8471 131.402 114.904 138.123 131.53 138.123C164.885 138.122 191.928 111.079 191.928 77.7246Z" fill="#E4FBFF"/>
</g>
<defs>
<filter id="filter0_d" x="0.578491" y="0.0644531" width="210.314" height="210.314" filterUnits="userSpaceOnUse" color-interpolation-filters="sRGB">
<feFlood flood-opacity="0" result="BackgroundImageFix"/>
<feColorMatrix in="SourceAlpha" type="matrix" values="0 0 0 0 0 0 0 0 0 0 0 0 0 0 0 0 0 0 127 0"/>
<feOffset dy="1.6178"/>
<feGaussianBlur stdDeviation="0.808899"/>
<feColorMatrix type="matrix" values="0 0 0 0 0 0 0 0 0 0 0 0 0 0 0 0 0 0 0.25 0"/>
<feBlend mode="normal" in2="BackgroundImageFix" result="effect1_dropShadow"/>
<feBlend mode="normal" in="SourceGraphic" in2="effect1_dropShadow" result="shape"/>
</filter>
<clipPath id="clip0">
<rect width="207.078" height="207.078" fill="white" transform="matrix(-1 0 0 1 209.274 0.0644531)"/>
</clipPath>
</defs>
</svg>
