<svg width="346" height="346" viewBox="0 0 346 346" fill="none" xmlns="http://www.w3.org/2000/svg">
<path d="M89.9669 253.045C92.5723 255.716 95.2622 258.306 98.0366 260.803C100.534 263.578 103.123 266.268 105.795 268.873L41.366 333.302C37.4064 337.262 32.2219 339.241 27.0321 339.241C24.8701 339.241 22.7081 338.893 20.6359 338.204C18.2971 331.156 19.9285 323.081 25.538 317.474L89.9669 253.045Z" fill="#491352"/>
<path d="M106.625 268.043C103.492 265.577 100.459 262.993 97.5074 260.319C94.8333 257.368 92.2489 254.334 89.7834 251.201L117.625 223.359C120.357 226.245 123.219 229.001 126.202 231.624C128.823 234.607 131.582 237.469 134.467 240.201L106.625 268.043Z" fill="#ECCDFF"/>
<path d="M193.273 7.96289C255.791 16.558 304.102 70.3143 304.102 135.155C304.102 200.004 255.781 253.765 193.255 262.35C171.915 259.412 152.228 251.212 135.555 239.104C124.56 231.124 114.875 221.438 106.895 210.444C91.5208 189.278 82.4453 163.253 82.4453 135.155C82.4453 70.3143 130.756 16.558 193.273 7.96289Z" fill="#491352"/>
<path d="M210.844 33.7891C154.949 33.7891 109.477 79.2617 109.477 135.156C109.477 191.051 154.949 236.523 210.844 236.523C266.738 236.523 312.211 191.051 312.211 135.156C312.211 79.2617 266.738 33.7891 210.844 33.7891Z" fill="white"/>
<path d="M195.906 32.8105C243.786 40.8777 280.379 82.6257 280.379 132.763C280.379 182.9 243.786 224.648 195.906 232.715C148.026 224.648 111.434 182.9 111.434 132.763C111.434 82.6257 148.026 40.8777 195.906 32.8105Z" fill="#B1D8E4"/>
<path d="M7.91931 299.857L98.1229 209.653C83.4273 187.519 75.6875 161.887 75.6875 135.156C75.6875 60.6302 136.318 0 210.844 0C285.37 0 346 60.6302 346 135.156C346 209.682 285.37 270.312 210.844 270.312C184.113 270.312 158.481 262.573 136.347 247.877L111.414 272.81C111.409 272.815 111.406 272.818 111.404 272.823L46.1432 338.081C41.0352 343.189 34.2484 346 27.0312 346C19.8141 346 13.0273 343.189 7.92194 338.083C2.814 332.978 0 326.191 0 318.969C0 311.746 2.814 304.959 7.91931 299.857ZM125.347 239.762C118.351 234.039 111.958 227.646 106.238 220.653L87.0649 239.826C92.8962 246.708 99.2923 253.104 106.174 258.935L125.347 239.762ZM332.484 135.156C332.484 68.0823 277.918 13.5156 210.844 13.5156C143.77 13.5156 89.2031 68.0823 89.2031 135.156C89.2031 160.955 97.2122 185.615 112.364 206.475C119.943 216.918 129.082 226.057 139.525 233.636V233.638C160.385 248.788 185.045 256.797 210.844 256.797C277.918 256.797 332.484 202.23 332.484 135.156ZM17.4753 328.525C20.0306 331.077 23.4227 332.484 27.0312 332.484C30.6398 332.484 34.0319 331.077 36.5872 328.525L96.5918 268.517C89.7496 262.644 83.356 256.253 77.4825 249.408L17.4753 309.415C14.9226 311.968 13.5156 315.358 13.5156 318.969C13.5156 322.58 14.9226 325.969 17.4753 328.525Z" fill="black"/>
<path d="M102.719 135.156C102.719 75.5344 151.222 27.0312 210.844 27.0312C270.466 27.0312 318.969 75.5344 318.969 135.156C318.969 194.778 270.466 243.281 210.844 243.281C151.222 243.281 102.719 194.778 102.719 135.156ZM210.844 229.766C263.011 229.766 305.453 187.323 305.453 135.156C305.453 82.9891 263.011 40.5469 210.844 40.5469C158.677 40.5469 116.234 82.9891 116.234 135.156C116.234 187.323 158.677 229.766 210.844 229.766Z" fill="black"/>
<path d="M195.2 117.305C198.927 117.305 202.392 119.385 204.958 123.164C207.42 126.789 208.775 131.587 208.775 136.674C208.775 139.908 208.211 143.108 207.143 145.928L206.673 147.17L205.457 146.516C202.378 144.859 198.831 143.983 195.2 143.983C191.569 143.983 188.022 144.859 184.944 146.516L183.728 147.17L183.257 145.928C182.189 143.109 181.625 139.908 181.625 136.674C181.625 131.587 182.98 126.789 185.442 123.164C188.008 119.385 191.473 117.305 195.2 117.305ZM203.078 141.639C203.902 141.87 204.878 141.083 205.256 139.883C205.635 138.682 205.273 137.521 204.448 137.291C203.623 137.06 202.648 137.847 202.27 139.048C201.891 140.248 202.253 141.409 203.078 141.639Z" fill="black"/>
<path d="M195.2 117.305C198.927 117.305 202.392 119.385 204.958 123.164C207.42 126.789 208.775 131.587 208.775 136.674C208.775 139.908 208.211 143.108 207.143 145.928L206.673 147.17L205.457 146.516C202.378 144.859 198.831 143.983 195.2 143.983C191.569 143.983 188.022 144.859 184.944 146.516L183.728 147.17L183.257 145.928C182.189 143.109 181.625 139.908 181.625 136.674C181.625 131.587 182.98 126.789 185.442 123.164C188.008 119.385 191.473 117.305 195.2 117.305ZM203.078 141.639C203.902 141.87 204.878 141.083 205.256 139.883C205.635 138.682 205.273 137.521 204.448 137.291C203.623 137.06 202.648 137.847 202.27 139.048C201.891 140.248 202.253 141.409 203.078 141.639Z" fill="black"/>
<ellipse rx="2.0363" ry="3.39384" transform="matrix(-1 0 0 1 204.021 139.704)" fill="#E4FBFF"/>
<ellipse rx="2.0363" ry="3.39384" transform="matrix(-1 0 0 1 204.021 139.704)" fill="#E4FBFF"/>
<ellipse rx="2.0363" ry="3.39384" transform="matrix(-1 0 0 1 204.021 139.704)" fill="black"/>
<rect width="23.0781" height="6.78768" transform="matrix(-1 0 0 1 207.416 140.381)" fill="black"/>
<path d="M184.339 146.486L183.66 147.165H184.339V146.486Z" fill="black"/>
<circle r="2.71507" transform="matrix(-1 0 0 1 199.272 139.026)" fill="#E4FBFF"/>
<path d="M175.724 116.155V116.155C175.716 111.727 178.924 107.948 183.295 107.237L187.635 106.531" stroke="black" stroke-width="4.07261"/>
<path d="M236.957 117.305C240.684 117.305 244.149 119.385 246.715 123.164C249.176 126.789 250.532 131.587 250.532 136.674C250.532 139.908 249.968 143.108 248.9 145.928L248.429 147.17L247.213 146.516C244.135 144.859 240.588 143.983 236.957 143.983C233.325 143.983 229.779 144.859 226.701 146.516L225.485 147.17L225.014 145.928C223.946 143.109 223.382 139.908 223.382 136.674C223.382 131.587 224.737 126.789 227.199 123.164C229.764 119.385 233.23 117.305 236.957 117.305ZM244.835 141.639C245.659 141.87 246.635 141.083 247.013 139.883C247.392 138.682 247.029 137.521 246.204 137.291C245.38 137.06 244.405 137.847 244.027 139.048C243.648 140.248 244.01 141.409 244.835 141.639Z" fill="black"/>
<path d="M236.957 117.305C240.684 117.305 244.149 119.385 246.715 123.164C249.176 126.789 250.532 131.587 250.532 136.674C250.532 139.908 249.968 143.108 248.9 145.928L248.429 147.17L247.213 146.516C244.135 144.859 240.588 143.983 236.957 143.983C233.325 143.983 229.779 144.859 226.701 146.516L225.485 147.17L225.014 145.928C223.946 143.109 223.382 139.908 223.382 136.674C223.382 131.587 224.737 126.789 227.199 123.164C229.764 119.385 233.23 117.305 236.957 117.305ZM244.835 141.639C245.659 141.87 246.635 141.083 247.013 139.883C247.392 138.682 247.029 137.521 246.204 137.291C245.38 137.06 244.405 137.847 244.027 139.048C243.648 140.248 244.01 141.409 244.835 141.639Z" fill="black"/>
<ellipse rx="2.0363" ry="3.39384" transform="matrix(-1 0 0 1 245.78 139.704)" fill="#E4FBFF"/>
<ellipse rx="2.0363" ry="3.39384" transform="matrix(-1 0 0 1 245.78 139.704)" fill="#E4FBFF"/>
<ellipse rx="2.0363" ry="3.39384" transform="matrix(-1 0 0 1 245.78 139.704)" fill="black"/>
<rect width="23.0781" height="6.78768" transform="matrix(-1 0 0 1 249.175 140.381)" fill="black"/>
<path d="M226.098 146.486L225.419 147.165H226.098V146.486Z" fill="black"/>
<circle r="2.71507" transform="matrix(-1 0 0 1 241.03 139.026)" fill="#E4FBFF"/>
<path d="M256.485 114.798V114.798C256.493 110.369 253.285 106.59 248.914 105.88L244.574 105.174" stroke="black" stroke-width="4.07261"/>
<path d="M220.725 174.702L210.592 174.489C201.715 174.303 195.262 165.992 197.281 157.346V157.346" stroke="black" stroke-width="7.4569"/>
<path d="M184.19 60.7889L173.932 62.1496C153.6 64.8464 137.706 81.0217 135.365 101.397L134.922 105.258" stroke="black" stroke-width="5.96552"/>
<circle r="4" transform="matrix(-1 0 0 1 133 113)" fill="black"/>
</svg>
