<svg width="500" height="476" viewBox="0 0 500 476" fill="none" xmlns="http://www.w3.org/2000/svg">
<g clip-path="url(#clip0)">
<ellipse cx="329.18" cy="345.659" rx="100.393" ry="7.85279" fill="#C4C4C4"/>
<ellipse cx="163.951" cy="441.568" rx="100.393" ry="7.85281" fill="#C4C4C4"/>
<g clip-path="url(#clip1)">
<path d="M327.542 296.783H341.376V338.287C341.376 342.108 338.28 345.204 334.459 345.204C330.639 345.204 327.542 342.107 327.542 338.287V296.783V296.783Z" fill="#B19046"/>
<path d="M359.985 296.782L381.948 334.828C383.183 336.965 383.185 339.6 381.951 341.738C380.718 343.877 378.437 345.196 375.968 345.197C373.498 345.199 371.216 343.882 369.98 341.745L344.04 296.782H324.879L298.939 341.745C297.029 345.049 292.802 346.18 289.497 344.27C286.193 342.359 285.063 338.132 286.973 334.828L308.935 296.782L320.626 158.436C320.626 150.796 326.82 144.602 334.46 144.602C342.101 144.602 348.295 150.796 348.295 158.436L359.985 296.782Z" fill="#B19046"/>
<path d="M294.028 158.435H427.843C431.659 158.446 434.749 161.536 434.76 165.352V289.863C434.749 293.679 431.659 296.77 427.843 296.781H241.075C237.26 296.77 234.17 293.679 234.158 289.864V165.352C234.17 161.536 237.26 158.446 241.075 158.435H294.028V158.435Z" fill="#35495E"/>
<path d="M278.037 183.369L274.774 193.51H273.217C273.03 193.51 272.904 193.387 272.837 193.14L270.702 186.533C270.648 186.367 270.602 186.204 270.562 186.044C270.522 185.878 270.485 185.712 270.452 185.545C270.392 185.891 270.309 186.227 270.203 186.553L268.037 193.14C267.97 193.387 267.827 193.51 267.608 193.51H266.13L262.857 183.369H264.394C264.547 183.369 264.673 183.406 264.773 183.479C264.88 183.552 264.949 183.646 264.983 183.759L266.809 189.987C266.869 190.239 266.922 190.486 266.969 190.725C267.015 190.965 267.059 191.204 267.099 191.444C267.158 191.204 267.222 190.965 267.288 190.725C267.361 190.486 267.435 190.239 267.508 189.987L269.534 183.719C269.567 183.606 269.63 183.516 269.724 183.449C269.817 183.376 269.93 183.339 270.063 183.339H270.911C271.058 183.339 271.177 183.376 271.271 183.449C271.37 183.516 271.437 183.606 271.47 183.719L273.446 189.987C273.519 190.239 273.589 190.489 273.656 190.735C273.722 190.975 273.782 191.218 273.836 191.464C273.875 191.224 273.922 190.985 273.975 190.745C274.028 190.499 274.088 190.246 274.155 189.987L276.011 183.759C276.045 183.646 276.111 183.552 276.211 183.479C276.317 183.406 276.437 183.369 276.57 183.369H278.037ZM286.246 187.312C286.246 186.926 286.19 186.57 286.077 186.244C285.97 185.918 285.811 185.635 285.598 185.396C285.385 185.156 285.125 184.97 284.819 184.837C284.513 184.704 284.161 184.637 283.761 184.637C282.943 184.637 282.297 184.873 281.825 185.346C281.359 185.818 281.063 186.473 280.937 187.312H286.246ZM287.853 192.063C287.614 192.342 287.338 192.585 287.025 192.791C286.712 192.991 286.38 193.154 286.027 193.28C285.674 193.407 285.308 193.5 284.929 193.56C284.556 193.62 284.187 193.649 283.821 193.649C283.123 193.649 282.474 193.533 281.875 193.3C281.283 193.061 280.767 192.715 280.328 192.262C279.895 191.803 279.556 191.238 279.31 190.565C279.07 189.887 278.951 189.108 278.951 188.23C278.951 187.525 279.06 186.869 279.28 186.264C279.5 185.652 279.812 185.119 280.218 184.667C280.631 184.214 281.133 183.858 281.725 183.599C282.317 183.339 282.983 183.21 283.721 183.21C284.34 183.21 284.909 183.313 285.428 183.519C285.954 183.719 286.406 184.012 286.785 184.397C287.165 184.783 287.461 185.259 287.674 185.825C287.893 186.39 288.003 187.036 288.003 187.761C288.003 188.06 287.97 188.263 287.903 188.37C287.837 188.47 287.714 188.519 287.534 188.519H280.887C280.907 189.125 280.993 189.654 281.146 190.106C281.299 190.552 281.509 190.925 281.775 191.224C282.048 191.524 282.371 191.747 282.743 191.893C283.116 192.039 283.532 192.112 283.991 192.112C284.423 192.112 284.796 192.063 285.109 191.963C285.428 191.863 285.701 191.756 285.927 191.643C286.16 191.524 286.353 191.414 286.506 191.314C286.666 191.214 286.805 191.164 286.925 191.164C287.085 191.164 287.208 191.224 287.294 191.344L287.853 192.063ZM292.041 191.015C292.361 191.434 292.707 191.727 293.079 191.893C293.452 192.059 293.858 192.142 294.297 192.142C295.202 192.142 295.897 191.82 296.383 191.174C296.875 190.529 297.121 189.554 297.121 188.25C297.121 187.046 296.905 186.164 296.473 185.605C296.04 185.04 295.428 184.757 294.636 184.757C294.077 184.757 293.591 184.883 293.179 185.136C292.773 185.389 292.394 185.748 292.041 186.214V191.015ZM292.041 184.767C292.46 184.301 292.936 183.925 293.468 183.639C294.001 183.353 294.606 183.21 295.285 183.21C295.877 183.21 296.409 183.326 296.882 183.559C297.361 183.785 297.767 184.115 298.099 184.547C298.432 184.973 298.688 185.492 298.868 186.104C299.048 186.716 299.137 187.408 299.137 188.18C299.137 188.999 299.034 189.744 298.828 190.416C298.628 191.088 298.339 191.663 297.96 192.142C297.587 192.621 297.131 192.994 296.592 193.26C296.053 193.52 295.448 193.649 294.776 193.649C294.45 193.649 294.15 193.616 293.878 193.55C293.605 193.49 293.352 193.4 293.119 193.28C292.893 193.16 292.683 193.014 292.49 192.841C292.297 192.668 292.114 192.472 291.941 192.252L291.852 193.101C291.798 193.373 291.632 193.51 291.352 193.51H290.095V178.778H292.041V184.767ZM307.282 185.116C307.229 185.203 307.172 185.266 307.112 185.306C307.053 185.339 306.976 185.356 306.883 185.356C306.776 185.356 306.657 185.319 306.524 185.246C306.397 185.173 306.241 185.093 306.054 185.006C305.875 184.92 305.662 184.84 305.416 184.767C305.17 184.694 304.877 184.657 304.537 184.657C304.258 184.657 304.002 184.694 303.769 184.767C303.543 184.833 303.35 184.93 303.19 185.056C303.03 185.176 302.907 185.322 302.821 185.495C302.734 185.662 302.691 185.841 302.691 186.034C302.691 186.287 302.764 186.497 302.911 186.663C303.064 186.829 303.26 186.972 303.499 187.092C303.746 187.212 304.022 187.322 304.328 187.422C304.641 187.515 304.957 187.615 305.276 187.721C305.602 187.827 305.918 187.951 306.224 188.09C306.537 188.223 306.813 188.393 307.053 188.599C307.299 188.799 307.495 189.042 307.641 189.328C307.794 189.614 307.871 189.963 307.871 190.376C307.871 190.848 307.784 191.287 307.611 191.693C307.445 192.093 307.196 192.439 306.863 192.731C306.537 193.024 306.131 193.254 305.645 193.42C305.16 193.586 304.604 193.669 303.978 193.669C303.28 193.669 302.634 193.553 302.042 193.32C301.45 193.087 300.954 192.791 300.555 192.432L301.014 191.683C301.067 191.59 301.134 191.52 301.214 191.474C301.294 191.42 301.4 191.394 301.533 191.394C301.66 191.394 301.789 191.44 301.922 191.534C302.056 191.627 302.215 191.73 302.402 191.843C302.588 191.949 302.814 192.049 303.08 192.142C303.346 192.229 303.679 192.272 304.078 192.272C304.411 192.272 304.7 192.232 304.947 192.152C305.193 192.066 305.396 191.953 305.555 191.813C305.722 191.667 305.845 191.5 305.925 191.314C306.005 191.128 306.044 190.931 306.044 190.725C306.044 190.459 305.968 190.239 305.815 190.066C305.669 189.887 305.472 189.734 305.226 189.607C304.987 189.481 304.71 189.371 304.398 189.278C304.085 189.185 303.766 189.085 303.44 188.979C303.113 188.872 302.794 188.749 302.481 188.609C302.169 188.47 301.889 188.293 301.643 188.08C301.403 187.867 301.207 187.608 301.054 187.302C300.908 186.996 300.835 186.623 300.835 186.184C300.835 185.791 300.914 185.415 301.074 185.056C301.24 184.697 301.477 184.381 301.783 184.108C302.095 183.835 302.478 183.619 302.931 183.459C303.39 183.293 303.912 183.21 304.497 183.21C305.17 183.21 305.775 183.316 306.314 183.529C306.86 183.742 307.325 184.035 307.711 184.407L307.282 185.116ZM312.014 183.369V193.51H310.068V183.369H312.014ZM312.384 180.236C312.384 180.415 312.347 180.588 312.274 180.754C312.201 180.914 312.101 181.057 311.974 181.184C311.855 181.303 311.712 181.4 311.545 181.473C311.379 181.54 311.206 181.573 311.026 181.573C310.847 181.573 310.677 181.54 310.517 181.473C310.358 181.4 310.214 181.303 310.088 181.184C309.968 181.057 309.872 180.914 309.799 180.754C309.732 180.588 309.699 180.415 309.699 180.236C309.699 180.049 309.732 179.876 309.799 179.717C309.872 179.55 309.968 179.407 310.088 179.287C310.214 179.161 310.358 179.064 310.517 178.998C310.677 178.925 310.847 178.888 311.026 178.888C311.206 178.888 311.379 178.925 311.545 178.998C311.712 179.064 311.855 179.161 311.974 179.287C312.101 179.407 312.201 179.55 312.274 179.717C312.347 179.876 312.384 180.049 312.384 180.236ZM318.006 193.669C317.188 193.669 316.555 193.44 316.11 192.981C315.67 192.522 315.451 191.866 315.451 191.015V184.946H314.273C314.16 184.946 314.064 184.913 313.984 184.847C313.911 184.773 313.874 184.667 313.874 184.527V183.739L315.521 183.509L315.96 180.485C315.987 180.372 316.036 180.285 316.11 180.226C316.189 180.159 316.289 180.126 316.409 180.126H317.397V183.529H320.272V184.946H317.397V190.885C317.397 191.284 317.494 191.584 317.687 191.783C317.886 191.976 318.139 192.073 318.445 192.073C318.625 192.073 318.778 192.049 318.904 192.003C319.037 191.956 319.15 191.906 319.244 191.853C319.337 191.793 319.417 191.74 319.483 191.693C319.55 191.647 319.61 191.623 319.663 191.623C319.729 191.623 319.779 191.64 319.812 191.673C319.852 191.7 319.892 191.747 319.932 191.813L320.511 192.751C320.192 193.044 319.812 193.27 319.373 193.43C318.934 193.59 318.478 193.669 318.006 193.669ZM328.723 187.312C328.723 186.926 328.666 186.57 328.553 186.244C328.447 185.918 328.287 185.635 328.074 185.396C327.861 185.156 327.602 184.97 327.295 184.837C326.989 184.704 326.637 184.637 326.238 184.637C325.419 184.637 324.774 184.873 324.301 185.346C323.835 185.818 323.539 186.473 323.413 187.312H328.723ZM330.33 192.063C330.09 192.342 329.814 192.585 329.501 192.791C329.188 192.991 328.856 193.154 328.503 193.28C328.15 193.407 327.785 193.5 327.405 193.56C327.033 193.62 326.663 193.649 326.297 193.649C325.599 193.649 324.95 193.533 324.351 193.3C323.759 193.061 323.243 192.715 322.804 192.262C322.372 191.803 322.032 191.238 321.786 190.565C321.547 189.887 321.427 189.108 321.427 188.23C321.427 187.525 321.537 186.869 321.756 186.264C321.976 185.652 322.288 185.119 322.694 184.667C323.107 184.214 323.609 183.858 324.201 183.599C324.794 183.339 325.459 183.21 326.198 183.21C326.816 183.21 327.385 183.313 327.904 183.519C328.43 183.719 328.882 184.012 329.262 184.397C329.641 184.783 329.937 185.259 330.15 185.825C330.369 186.39 330.479 187.036 330.479 187.761C330.479 188.06 330.446 188.263 330.379 188.37C330.313 188.47 330.19 188.519 330.01 188.519H323.363C323.383 189.125 323.47 189.654 323.623 190.106C323.776 190.552 323.985 190.925 324.251 191.224C324.524 191.524 324.847 191.747 325.219 191.893C325.592 192.039 326.008 192.112 326.467 192.112C326.9 192.112 327.272 192.063 327.585 191.963C327.904 191.863 328.177 191.756 328.403 191.643C328.636 191.524 328.829 191.414 328.982 191.314C329.142 191.214 329.282 191.164 329.401 191.164C329.561 191.164 329.684 191.224 329.771 191.344L330.33 192.063ZM338.55 185.116C338.496 185.203 338.44 185.266 338.38 185.306C338.32 185.339 338.243 185.356 338.15 185.356C338.044 185.356 337.924 185.319 337.791 185.246C337.665 185.173 337.508 185.093 337.322 185.006C337.142 184.92 336.929 184.84 336.683 184.767C336.437 184.694 336.144 184.657 335.805 184.657C335.525 184.657 335.269 184.694 335.036 184.767C334.81 184.833 334.617 184.93 334.458 185.056C334.298 185.176 334.175 185.322 334.088 185.495C334.002 185.662 333.958 185.841 333.958 186.034C333.958 186.287 334.032 186.497 334.178 186.663C334.331 186.829 334.527 186.972 334.767 187.092C335.013 187.212 335.289 187.322 335.595 187.422C335.908 187.515 336.224 187.615 336.543 187.721C336.869 187.827 337.186 187.951 337.492 188.09C337.804 188.223 338.08 188.393 338.32 188.599C338.566 188.799 338.762 189.042 338.909 189.328C339.062 189.614 339.138 189.963 339.138 190.376C339.138 190.848 339.052 191.287 338.879 191.693C338.713 192.093 338.463 192.439 338.13 192.731C337.804 193.024 337.398 193.254 336.913 193.42C336.427 193.586 335.871 193.669 335.246 193.669C334.547 193.669 333.902 193.553 333.31 193.32C332.718 193.087 332.222 192.791 331.823 192.432L332.282 191.683C332.335 191.59 332.401 191.52 332.481 191.474C332.561 191.42 332.668 191.394 332.801 191.394C332.927 191.394 333.057 191.44 333.19 191.534C333.323 191.627 333.483 191.73 333.669 191.843C333.855 191.949 334.082 192.049 334.348 192.142C334.614 192.229 334.947 192.272 335.346 192.272C335.678 192.272 335.968 192.232 336.214 192.152C336.46 192.066 336.663 191.953 336.823 191.813C336.989 191.667 337.112 191.5 337.192 191.314C337.272 191.128 337.312 190.931 337.312 190.725C337.312 190.459 337.235 190.239 337.082 190.066C336.936 189.887 336.74 189.734 336.494 189.607C336.254 189.481 335.978 189.371 335.665 189.278C335.352 189.185 335.033 189.085 334.707 188.979C334.381 188.872 334.062 188.749 333.749 188.609C333.436 188.47 333.157 188.293 332.911 188.08C332.671 187.867 332.475 187.608 332.322 187.302C332.175 186.996 332.102 186.623 332.102 186.184C332.102 185.791 332.182 185.415 332.342 185.056C332.508 184.697 332.744 184.381 333.05 184.108C333.363 183.835 333.746 183.619 334.198 183.459C334.657 183.293 335.179 183.21 335.765 183.21C336.437 183.21 337.042 183.316 337.581 183.529C338.127 183.742 338.593 184.035 338.979 184.407L338.55 185.116Z" fill="#E4FBFF"/>
<path d="M272.188 214.183C272.188 213.797 272.131 213.441 272.018 213.115C271.912 212.789 271.752 212.506 271.539 212.267C271.326 212.027 271.067 211.841 270.761 211.708C270.455 211.575 270.102 211.508 269.703 211.508C268.884 211.508 268.239 211.744 267.766 212.217C267.301 212.689 267.005 213.345 266.878 214.183H272.188ZM273.795 218.934C273.555 219.213 273.279 219.456 272.966 219.662C272.654 219.862 272.321 220.025 271.968 220.151C271.616 220.278 271.25 220.371 270.87 220.431C270.498 220.491 270.128 220.521 269.763 220.521C269.064 220.521 268.415 220.404 267.816 220.171C267.224 219.932 266.708 219.586 266.269 219.133C265.837 218.674 265.497 218.109 265.251 217.437C265.012 216.758 264.892 215.979 264.892 215.101C264.892 214.396 265.002 213.74 265.221 213.135C265.441 212.523 265.754 211.99 266.16 211.538C266.572 211.086 267.074 210.73 267.667 210.47C268.259 210.211 268.924 210.081 269.663 210.081C270.282 210.081 270.85 210.184 271.369 210.39C271.895 210.59 272.348 210.883 272.727 211.269C273.106 211.654 273.402 212.13 273.615 212.696C273.835 213.261 273.944 213.907 273.944 214.632C273.944 214.931 273.911 215.134 273.845 215.241C273.778 215.341 273.655 215.391 273.475 215.391H266.828C266.848 215.996 266.935 216.525 267.088 216.977C267.241 217.423 267.45 217.796 267.717 218.095C267.989 218.395 268.312 218.618 268.685 218.764C269.057 218.91 269.473 218.984 269.932 218.984C270.365 218.984 270.737 218.934 271.05 218.834C271.369 218.734 271.642 218.628 271.868 218.514C272.101 218.395 272.294 218.285 272.447 218.185C272.607 218.085 272.747 218.035 272.867 218.035C273.026 218.035 273.149 218.095 273.236 218.215L273.795 218.934ZM283.143 212.137C283.083 212.21 283.023 212.27 282.963 212.316C282.91 212.356 282.83 212.376 282.723 212.376C282.617 212.376 282.504 212.336 282.384 212.257C282.271 212.17 282.125 212.08 281.945 211.987C281.772 211.887 281.559 211.798 281.306 211.718C281.06 211.631 280.754 211.588 280.388 211.588C279.909 211.588 279.486 211.674 279.12 211.847C278.754 212.02 278.448 212.267 278.202 212.586C277.963 212.905 277.78 213.295 277.653 213.754C277.527 214.213 277.464 214.728 277.464 215.301C277.464 215.893 277.53 216.422 277.663 216.888C277.796 217.347 277.986 217.736 278.232 218.055C278.478 218.368 278.778 218.608 279.13 218.774C279.483 218.934 279.876 219.014 280.308 219.014C280.727 219.014 281.073 218.964 281.346 218.864C281.619 218.757 281.845 218.644 282.025 218.524C282.204 218.405 282.354 218.295 282.474 218.195C282.594 218.089 282.717 218.035 282.843 218.035C283.003 218.035 283.126 218.095 283.212 218.215L283.771 218.934C283.538 219.22 283.276 219.463 282.983 219.662C282.697 219.862 282.391 220.025 282.065 220.151C281.739 220.278 281.396 220.371 281.037 220.431C280.684 220.491 280.325 220.521 279.959 220.521C279.327 220.521 278.734 220.404 278.182 220.171C277.637 219.938 277.161 219.599 276.755 219.153C276.356 218.707 276.04 218.162 275.807 217.516C275.574 216.864 275.457 216.126 275.457 215.301C275.457 214.549 275.561 213.854 275.767 213.215C275.98 212.576 276.289 212.027 276.695 211.568C277.108 211.102 277.613 210.74 278.212 210.48C278.811 210.214 279.496 210.081 280.268 210.081C280.993 210.081 281.632 210.197 282.184 210.43C282.737 210.663 283.229 210.992 283.662 211.418L283.143 212.137ZM289.734 210.081C290.48 210.081 291.152 210.204 291.75 210.45C292.356 210.69 292.868 211.039 293.287 211.498C293.713 211.951 294.039 212.499 294.265 213.145C294.492 213.784 294.605 214.502 294.605 215.301C294.605 216.099 294.492 216.821 294.265 217.467C294.039 218.112 293.713 218.661 293.287 219.113C292.868 219.566 292.356 219.915 291.75 220.161C291.152 220.401 290.48 220.521 289.734 220.521C288.982 220.521 288.304 220.401 287.698 220.161C287.099 219.915 286.587 219.566 286.161 219.113C285.735 218.661 285.406 218.112 285.173 217.467C284.947 216.821 284.834 216.099 284.834 215.301C284.834 214.502 284.947 213.784 285.173 213.145C285.406 212.499 285.735 211.951 286.161 211.498C286.587 211.039 287.099 210.69 287.698 210.45C288.304 210.204 288.982 210.081 289.734 210.081ZM289.734 219.004C290.692 219.004 291.408 218.681 291.88 218.035C292.353 217.39 292.589 216.482 292.589 215.311C292.589 214.14 292.353 213.231 291.88 212.586C291.408 211.934 290.692 211.608 289.734 211.608C288.763 211.608 288.038 211.934 287.559 212.586C287.086 213.231 286.85 214.14 286.85 215.311C286.85 216.482 287.086 217.39 287.559 218.035C288.038 218.681 288.763 219.004 289.734 219.004ZM296.777 220.381V210.241H297.945C298.218 210.241 298.388 210.37 298.454 210.63L298.594 211.598C298.966 211.152 299.379 210.789 299.831 210.51C300.291 210.224 300.826 210.081 301.438 210.081C302.11 210.081 302.656 210.267 303.075 210.64C303.494 211.006 303.8 211.505 303.993 212.137C304.14 211.778 304.329 211.468 304.562 211.209C304.795 210.949 305.055 210.736 305.341 210.57C305.627 210.404 305.93 210.28 306.249 210.201C306.575 210.121 306.904 210.081 307.237 210.081C307.776 210.081 308.255 210.167 308.674 210.34C309.1 210.507 309.459 210.753 309.752 211.079C310.045 211.405 310.268 211.807 310.421 212.287C310.574 212.766 310.65 213.311 310.65 213.923V220.381H308.694V213.923C308.694 213.165 308.528 212.593 308.195 212.207C307.869 211.821 307.39 211.628 306.758 211.628C306.479 211.628 306.212 211.678 305.96 211.778C305.707 211.871 305.484 212.014 305.291 212.207C305.105 212.4 304.955 212.639 304.842 212.925C304.735 213.211 304.682 213.544 304.682 213.923V220.381H302.726V213.923C302.726 213.138 302.569 212.559 302.257 212.187C301.944 211.814 301.485 211.628 300.879 211.628C300.46 211.628 300.071 211.738 299.712 211.957C299.352 212.177 299.023 212.476 298.724 212.855V220.381H296.777ZM313.269 220.381V210.241H314.437C314.709 210.241 314.879 210.37 314.946 210.63L315.085 211.598C315.458 211.152 315.87 210.789 316.323 210.51C316.782 210.224 317.318 210.081 317.93 210.081C318.602 210.081 319.147 210.267 319.567 210.64C319.986 211.006 320.292 211.505 320.485 212.137C320.631 211.778 320.821 211.468 321.054 211.209C321.287 210.949 321.546 210.736 321.832 210.57C322.118 210.404 322.421 210.28 322.74 210.201C323.066 210.121 323.396 210.081 323.729 210.081C324.267 210.081 324.747 210.167 325.166 210.34C325.592 210.507 325.951 210.753 326.244 211.079C326.536 211.405 326.759 211.807 326.912 212.287C327.065 212.766 327.142 213.311 327.142 213.923V220.381H325.186V213.923C325.186 213.165 325.019 212.593 324.687 212.207C324.361 211.821 323.882 211.628 323.249 211.628C322.97 211.628 322.704 211.678 322.451 211.778C322.198 211.871 321.975 212.014 321.782 212.207C321.596 212.4 321.446 212.639 321.333 212.925C321.227 213.211 321.173 213.544 321.173 213.923V220.381H319.217V213.923C319.217 213.138 319.061 212.559 318.748 212.187C318.435 211.814 317.976 211.628 317.371 211.628C316.952 211.628 316.562 211.738 316.203 211.957C315.844 212.177 315.514 212.476 315.215 212.855V220.381H313.269ZM336.477 214.183C336.477 213.797 336.421 213.441 336.308 213.115C336.201 212.789 336.041 212.506 335.828 212.267C335.616 212.027 335.356 211.841 335.05 211.708C334.744 211.575 334.391 211.508 333.992 211.508C333.174 211.508 332.528 211.744 332.056 212.217C331.59 212.689 331.294 213.345 331.168 214.183H336.477ZM338.084 218.934C337.845 219.213 337.568 219.456 337.256 219.662C336.943 219.862 336.61 220.025 336.258 220.151C335.905 220.278 335.539 220.371 335.16 220.431C334.787 220.491 334.418 220.521 334.052 220.521C333.353 220.521 332.705 220.404 332.106 220.171C331.514 219.932 330.998 219.586 330.559 219.133C330.126 218.674 329.787 218.109 329.541 217.437C329.301 216.758 329.181 215.979 329.181 215.101C329.181 214.396 329.291 213.74 329.511 213.135C329.73 212.523 330.043 211.99 330.449 211.538C330.861 211.086 331.364 210.73 331.956 210.47C332.548 210.211 333.214 210.081 333.952 210.081C334.571 210.081 335.14 210.184 335.659 210.39C336.184 210.59 336.637 210.883 337.016 211.269C337.395 211.654 337.692 212.13 337.904 212.696C338.124 213.261 338.234 213.907 338.234 214.632C338.234 214.931 338.201 215.134 338.134 215.241C338.067 215.341 337.944 215.391 337.765 215.391H331.118C331.138 215.996 331.224 216.525 331.377 216.977C331.53 217.423 331.74 217.796 332.006 218.095C332.279 218.395 332.601 218.618 332.974 218.764C333.347 218.91 333.762 218.984 334.222 218.984C334.654 218.984 335.027 218.934 335.339 218.834C335.659 218.734 335.932 218.628 336.158 218.514C336.391 218.395 336.584 218.285 336.737 218.185C336.896 218.085 337.036 218.035 337.156 218.035C337.316 218.035 337.439 218.095 337.525 218.215L338.084 218.934ZM342.162 212.187C342.488 211.521 342.881 210.999 343.34 210.62C343.799 210.241 344.351 210.051 344.997 210.051C345.216 210.051 345.422 210.078 345.615 210.131C345.815 210.177 345.988 210.251 346.134 210.35L346.005 211.817C345.958 211.997 345.848 212.087 345.675 212.087C345.582 212.087 345.442 212.07 345.256 212.037C345.07 211.997 344.87 211.977 344.657 211.977C344.345 211.977 344.068 212.024 343.829 212.117C343.589 212.203 343.373 212.336 343.18 212.516C342.994 212.689 342.828 212.905 342.681 213.165C342.535 213.418 342.398 213.707 342.272 214.033V220.381H340.326V210.241H341.444C341.656 210.241 341.8 210.28 341.873 210.36C341.953 210.433 342.009 210.567 342.042 210.76L342.162 212.187ZM354.372 212.137C354.312 212.21 354.252 212.27 354.192 212.316C354.139 212.356 354.059 212.376 353.952 212.376C353.846 212.376 353.733 212.336 353.613 212.257C353.5 212.17 353.354 212.08 353.174 211.987C353.001 211.887 352.788 211.798 352.535 211.718C352.289 211.631 351.983 211.588 351.617 211.588C351.138 211.588 350.715 211.674 350.349 211.847C349.983 212.02 349.677 212.267 349.431 212.586C349.192 212.905 349.009 213.295 348.882 213.754C348.756 214.213 348.693 214.728 348.693 215.301C348.693 215.893 348.759 216.422 348.892 216.888C349.025 217.347 349.215 217.736 349.461 218.055C349.707 218.368 350.007 218.608 350.359 218.774C350.712 218.934 351.105 219.014 351.537 219.014C351.956 219.014 352.302 218.964 352.575 218.864C352.848 218.757 353.074 218.644 353.254 218.524C353.433 218.405 353.583 218.295 353.703 218.195C353.823 218.089 353.946 218.035 354.072 218.035C354.232 218.035 354.355 218.095 354.441 218.215L355 218.934C354.767 219.22 354.505 219.463 354.212 219.662C353.926 219.862 353.62 220.025 353.294 220.151C352.968 220.278 352.625 220.371 352.266 220.431C351.913 220.491 351.554 220.521 351.188 220.521C350.556 220.521 349.963 220.404 349.411 220.171C348.866 219.938 348.39 219.599 347.984 219.153C347.585 218.707 347.269 218.162 347.036 217.516C346.803 216.864 346.686 216.126 346.686 215.301C346.686 214.549 346.79 213.854 346.996 213.215C347.209 212.576 347.518 212.027 347.924 211.568C348.337 211.102 348.842 210.74 349.441 210.48C350.04 210.214 350.725 210.081 351.497 210.081C352.222 210.081 352.861 210.197 353.413 210.43C353.966 210.663 354.458 210.992 354.891 211.418L354.372 212.137ZM363.359 214.183C363.359 213.797 363.302 213.441 363.189 213.115C363.083 212.789 362.923 212.506 362.71 212.267C362.497 212.027 362.238 211.841 361.931 211.708C361.625 211.575 361.273 211.508 360.874 211.508C360.055 211.508 359.41 211.744 358.937 212.217C358.472 212.689 358.175 213.345 358.049 214.183H363.359ZM364.966 218.934C364.726 219.213 364.45 219.456 364.137 219.662C363.824 219.862 363.492 220.025 363.139 220.151C362.786 220.278 362.421 220.371 362.041 220.431C361.669 220.491 361.299 220.521 360.933 220.521C360.235 220.521 359.586 220.404 358.987 220.171C358.395 219.932 357.879 219.586 357.44 219.133C357.008 218.674 356.668 218.109 356.422 217.437C356.183 216.758 356.063 215.979 356.063 215.101C356.063 214.396 356.173 213.74 356.392 213.135C356.612 212.523 356.925 211.99 357.33 211.538C357.743 211.086 358.245 210.73 358.837 210.47C359.43 210.211 360.095 210.081 360.834 210.081C361.452 210.081 362.021 210.184 362.54 210.39C363.066 210.59 363.518 210.883 363.898 211.269C364.277 211.654 364.573 212.13 364.786 212.696C365.005 213.261 365.115 213.907 365.115 214.632C365.115 214.931 365.082 215.134 365.015 215.241C364.949 215.341 364.826 215.391 364.646 215.391H357.999C358.019 215.996 358.106 216.525 358.259 216.977C358.412 217.423 358.621 217.796 358.887 218.095C359.16 218.395 359.483 218.618 359.855 218.764C360.228 218.91 360.644 218.984 361.103 218.984C361.536 218.984 361.908 218.934 362.221 218.834C362.54 218.734 362.813 218.628 363.039 218.514C363.272 218.395 363.465 218.285 363.618 218.185C363.778 218.085 363.918 218.035 364.037 218.035C364.197 218.035 364.32 218.095 364.407 218.215L364.966 218.934Z" fill="#E4FBFF"/>
<path d="M269.384 242.751C268.592 242.777 267.92 242.841 267.368 242.94C266.816 243.033 266.367 243.16 266.021 243.32C265.675 243.479 265.425 243.669 265.272 243.888C265.119 244.101 265.043 244.341 265.043 244.607C265.043 244.86 265.083 245.079 265.162 245.266C265.249 245.445 265.362 245.595 265.502 245.715C265.648 245.828 265.818 245.911 266.011 245.964C266.204 246.018 266.413 246.044 266.639 246.044C266.939 246.044 267.212 246.014 267.458 245.954C267.711 245.895 267.947 245.811 268.167 245.705C268.386 245.592 268.596 245.455 268.795 245.296C268.995 245.136 269.191 244.953 269.384 244.747V242.751ZM263.675 238.529C264.241 237.99 264.853 237.587 265.512 237.321C266.177 237.055 266.906 236.922 267.697 236.922C268.276 236.922 268.789 237.018 269.234 237.211C269.68 237.398 270.056 237.661 270.362 238C270.668 238.339 270.898 238.745 271.051 239.218C271.211 239.69 271.29 240.212 271.29 240.784V247.252H270.422C270.229 247.252 270.083 247.222 269.983 247.162C269.883 247.096 269.803 246.976 269.743 246.803L269.534 245.915C269.274 246.154 269.018 246.367 268.765 246.553C268.513 246.733 268.246 246.889 267.967 247.022C267.694 247.149 267.401 247.245 267.089 247.312C266.776 247.378 266.43 247.412 266.051 247.412C265.651 247.412 265.275 247.358 264.923 247.252C264.577 247.139 264.274 246.969 264.015 246.743C263.755 246.517 263.549 246.234 263.396 245.895C263.249 245.555 263.176 245.159 263.176 244.707C263.176 244.308 263.283 243.925 263.496 243.559C263.715 243.187 264.068 242.854 264.554 242.561C265.046 242.268 265.685 242.029 266.47 241.842C267.262 241.656 268.233 241.55 269.384 241.523V240.784C269.384 240.019 269.221 239.447 268.895 239.068C268.569 238.689 268.09 238.499 267.458 238.499C267.032 238.499 266.673 238.552 266.38 238.659C266.094 238.765 265.844 238.885 265.631 239.018C265.425 239.144 265.242 239.261 265.083 239.367C264.929 239.474 264.77 239.527 264.603 239.527C264.47 239.527 264.354 239.49 264.254 239.417C264.161 239.344 264.084 239.257 264.025 239.158L263.675 238.529ZM275.842 244.757C276.161 245.176 276.504 245.469 276.87 245.635C277.243 245.801 277.659 245.885 278.118 245.885C279.009 245.885 279.698 245.565 280.184 244.926C280.676 244.281 280.922 243.343 280.922 242.112C280.922 241.467 280.866 240.918 280.753 240.465C280.646 240.006 280.486 239.633 280.274 239.347C280.067 239.055 279.811 238.842 279.505 238.709C279.199 238.569 278.853 238.499 278.467 238.499C277.901 238.499 277.409 238.625 276.99 238.878C276.577 239.131 276.195 239.49 275.842 239.956V244.757ZM275.742 238.629C275.955 238.376 276.181 238.146 276.421 237.94C276.667 237.727 276.93 237.547 277.209 237.401C277.489 237.248 277.785 237.132 278.098 237.052C278.417 236.965 278.756 236.922 279.116 236.922C279.695 236.922 280.217 237.035 280.683 237.261C281.155 237.488 281.558 237.82 281.89 238.259C282.223 238.699 282.479 239.241 282.659 239.886C282.845 240.532 282.938 241.274 282.938 242.112C282.938 242.864 282.835 243.562 282.629 244.208C282.429 244.847 282.14 245.402 281.761 245.875C281.388 246.347 280.929 246.72 280.383 246.992C279.844 247.259 279.236 247.392 278.557 247.392C277.951 247.392 277.432 247.292 277 247.092C276.567 246.893 276.181 246.613 275.842 246.254V250.655H273.896V237.112H275.064C275.336 237.112 275.506 237.241 275.573 237.501L275.742 238.629ZM287.12 232.521V247.252H285.164V232.521H287.12ZM291.936 237.112V247.252H289.99V237.112H291.936ZM292.305 233.978C292.305 234.157 292.269 234.33 292.196 234.497C292.122 234.656 292.023 234.799 291.896 234.926C291.776 235.046 291.633 235.142 291.467 235.215C291.301 235.282 291.128 235.315 290.948 235.315C290.768 235.315 290.599 235.282 290.439 235.215C290.279 235.142 290.136 235.046 290.01 234.926C289.89 234.799 289.794 234.656 289.72 234.497C289.654 234.33 289.621 234.157 289.621 233.978C289.621 233.791 289.654 233.618 289.72 233.459C289.794 233.292 289.89 233.149 290.01 233.03C290.136 232.903 290.279 232.807 290.439 232.74C290.599 232.667 290.768 232.63 290.948 232.63C291.128 232.63 291.301 232.667 291.467 232.74C291.633 232.807 291.776 232.903 291.896 233.03C292.023 233.149 292.122 233.292 292.196 233.459C292.269 233.618 292.305 233.791 292.305 233.978ZM301.86 239.008C301.8 239.081 301.74 239.141 301.68 239.188C301.627 239.228 301.547 239.247 301.441 239.247C301.334 239.247 301.221 239.208 301.102 239.128C300.988 239.041 300.842 238.951 300.662 238.858C300.489 238.758 300.276 238.669 300.024 238.589C299.777 238.502 299.471 238.459 299.105 238.459C298.626 238.459 298.204 238.546 297.838 238.719C297.472 238.891 297.166 239.138 296.92 239.457C296.68 239.776 296.497 240.166 296.371 240.625C296.244 241.084 296.181 241.6 296.181 242.172C296.181 242.764 296.248 243.293 296.381 243.759C296.514 244.218 296.703 244.607 296.95 244.926C297.196 245.239 297.495 245.479 297.848 245.645C298.201 245.805 298.593 245.885 299.026 245.885C299.445 245.885 299.791 245.835 300.064 245.735C300.336 245.628 300.563 245.515 300.742 245.396C300.922 245.276 301.072 245.166 301.191 245.066C301.311 244.96 301.434 244.907 301.561 244.907C301.72 244.907 301.843 244.966 301.93 245.086L302.489 245.805C302.256 246.091 301.993 246.334 301.7 246.533C301.414 246.733 301.108 246.896 300.782 247.022C300.456 247.149 300.113 247.242 299.754 247.302C299.402 247.362 299.042 247.392 298.676 247.392C298.044 247.392 297.452 247.275 296.9 247.042C296.354 246.809 295.878 246.47 295.472 246.024C295.073 245.579 294.757 245.033 294.524 244.388C294.291 243.735 294.175 242.997 294.175 242.172C294.175 241.42 294.278 240.725 294.484 240.086C294.697 239.447 295.007 238.898 295.413 238.439C295.825 237.973 296.331 237.611 296.93 237.351C297.528 237.085 298.214 236.952 298.986 236.952C299.711 236.952 300.35 237.068 300.902 237.301C301.454 237.534 301.947 237.863 302.379 238.289L301.86 239.008ZM309.755 242.751C308.963 242.777 308.291 242.841 307.739 242.94C307.187 243.033 306.738 243.16 306.392 243.32C306.046 243.479 305.796 243.669 305.643 243.888C305.49 244.101 305.414 244.341 305.414 244.607C305.414 244.86 305.453 245.079 305.533 245.266C305.62 245.445 305.733 245.595 305.873 245.715C306.019 245.828 306.189 245.911 306.382 245.964C306.575 246.018 306.784 246.044 307.01 246.044C307.31 246.044 307.583 246.014 307.829 245.954C308.082 245.895 308.318 245.811 308.537 245.705C308.757 245.592 308.967 245.455 309.166 245.296C309.366 245.136 309.562 244.953 309.755 244.747V242.751ZM304.046 238.529C304.612 237.99 305.224 237.587 305.883 237.321C306.548 237.055 307.277 236.922 308.068 236.922C308.647 236.922 309.16 237.018 309.605 237.211C310.051 237.398 310.427 237.661 310.733 238C311.039 238.339 311.269 238.745 311.422 239.218C311.582 239.69 311.661 240.212 311.661 240.784V247.252H310.793C310.6 247.252 310.454 247.222 310.354 247.162C310.254 247.096 310.174 246.976 310.114 246.803L309.905 245.915C309.645 246.154 309.389 246.367 309.136 246.553C308.883 246.733 308.617 246.889 308.338 247.022C308.065 247.149 307.772 247.245 307.46 247.312C307.147 247.378 306.801 247.412 306.422 247.412C306.022 247.412 305.646 247.358 305.294 247.252C304.948 247.139 304.645 246.969 304.386 246.743C304.126 246.517 303.92 246.234 303.767 245.895C303.62 245.555 303.547 245.159 303.547 244.707C303.547 244.308 303.654 243.925 303.867 243.559C304.086 243.187 304.439 242.854 304.924 242.561C305.417 242.268 306.056 242.029 306.841 241.842C307.633 241.656 308.604 241.55 309.755 241.523V240.784C309.755 240.019 309.592 239.447 309.266 239.068C308.94 238.689 308.461 238.499 307.829 238.499C307.403 238.499 307.044 238.552 306.751 238.659C306.465 238.765 306.215 238.885 306.002 239.018C305.796 239.144 305.613 239.261 305.453 239.367C305.3 239.474 305.141 239.527 304.974 239.527C304.841 239.527 304.725 239.49 304.625 239.417C304.532 239.344 304.455 239.257 304.395 239.158L304.046 238.529ZM323.742 247.252H321.786V238.689H316.695V244.627C316.695 245.026 316.792 245.326 316.985 245.525C317.184 245.718 317.437 245.815 317.743 245.815C317.923 245.815 318.076 245.791 318.202 245.745C318.336 245.698 318.449 245.648 318.542 245.595C318.635 245.535 318.715 245.482 318.781 245.435C318.848 245.389 318.908 245.366 318.961 245.366C319.028 245.366 319.077 245.382 319.111 245.416C319.151 245.442 319.191 245.489 319.23 245.555L319.809 246.493C319.49 246.786 319.111 247.012 318.672 247.172C318.232 247.332 317.777 247.412 317.304 247.412C316.486 247.412 315.854 247.182 315.408 246.723C314.969 246.264 314.749 245.608 314.749 244.757V238.689H313.571C313.458 238.689 313.362 238.655 313.282 238.589C313.209 238.516 313.172 238.409 313.172 238.269V237.481L314.829 237.251L315.258 234.227C315.285 234.114 315.335 234.028 315.408 233.968C315.488 233.901 315.588 233.868 315.707 233.868H316.695V237.271H323.742V247.252ZM324.181 233.918C324.181 234.097 324.144 234.27 324.071 234.437C323.998 234.596 323.898 234.74 323.772 234.866C323.652 234.986 323.509 235.082 323.342 235.155C323.176 235.222 323.003 235.255 322.824 235.255C322.644 235.255 322.474 235.222 322.314 235.155C322.155 235.082 322.012 234.986 321.885 234.866C321.766 234.74 321.669 234.596 321.596 234.437C321.529 234.27 321.496 234.097 321.496 233.918C321.496 233.732 321.529 233.555 321.596 233.389C321.669 233.222 321.766 233.079 321.885 232.96C322.012 232.833 322.155 232.737 322.314 232.67C322.474 232.597 322.644 232.56 322.824 232.56C323.003 232.56 323.176 232.597 323.342 232.67C323.509 232.737 323.652 232.833 323.772 232.96C323.898 233.079 323.998 233.222 324.071 233.389C324.144 233.555 324.181 233.732 324.181 233.918ZM335.37 237.112L331.258 247.252H329.501L325.389 237.112H326.996C327.149 237.112 327.276 237.148 327.376 237.221C327.475 237.295 327.542 237.388 327.575 237.501L330.001 243.729C330.087 243.988 330.16 244.248 330.22 244.507C330.287 244.76 330.347 245.013 330.4 245.266C330.453 245.013 330.513 244.76 330.579 244.507C330.646 244.254 330.726 243.995 330.819 243.729L333.274 237.501C333.314 237.388 333.384 237.295 333.484 237.221C333.584 237.148 333.703 237.112 333.843 237.112H335.37ZM340.947 236.952C341.693 236.952 342.365 237.075 342.964 237.321C343.569 237.561 344.081 237.91 344.501 238.369C344.926 238.822 345.252 239.371 345.479 240.016C345.705 240.655 345.818 241.373 345.818 242.172C345.818 242.97 345.705 243.692 345.479 244.338C345.252 244.983 344.926 245.532 344.501 245.984C344.081 246.437 343.569 246.786 342.964 247.032C342.365 247.272 341.693 247.392 340.947 247.392C340.196 247.392 339.517 247.272 338.911 247.032C338.313 246.786 337.8 246.437 337.374 245.984C336.949 245.532 336.619 244.983 336.386 244.338C336.16 243.692 336.047 242.97 336.047 242.172C336.047 241.373 336.16 240.655 336.386 240.016C336.619 239.371 336.949 238.822 337.374 238.369C337.8 237.91 338.313 237.561 338.911 237.321C339.517 237.075 340.196 236.952 340.947 236.952ZM340.947 245.875C341.906 245.875 342.621 245.552 343.093 244.907C343.566 244.261 343.802 243.353 343.802 242.182C343.802 241.011 343.566 240.102 343.093 239.457C342.621 238.805 341.906 238.479 340.947 238.479C339.976 238.479 339.251 238.805 338.772 239.457C338.299 240.102 338.063 241.011 338.063 242.182C338.063 243.353 338.299 244.261 338.772 244.907C339.251 245.552 339.976 245.875 340.947 245.875ZM353.969 238.858C353.916 238.945 353.859 239.008 353.799 239.048C353.739 239.081 353.663 239.098 353.57 239.098C353.463 239.098 353.343 239.061 353.21 238.988C353.084 238.915 352.928 238.835 352.741 238.748C352.562 238.662 352.349 238.582 352.103 238.509C351.856 238.436 351.564 238.399 351.224 238.399C350.945 238.399 350.689 238.436 350.456 238.509C350.229 238.575 350.037 238.672 349.877 238.798C349.717 238.918 349.594 239.064 349.508 239.237C349.421 239.404 349.378 239.583 349.378 239.776C349.378 240.029 349.451 240.239 349.597 240.405C349.75 240.572 349.947 240.715 350.186 240.834C350.432 240.954 350.709 241.064 351.015 241.164C351.327 241.257 351.643 241.357 351.963 241.463C352.289 241.57 352.605 241.693 352.911 241.832C353.224 241.966 353.5 242.135 353.739 242.341C353.986 242.541 354.182 242.784 354.328 243.07C354.481 243.356 354.558 243.705 354.558 244.118C354.558 244.59 354.471 245.03 354.298 245.435C354.132 245.835 353.882 246.181 353.55 246.473C353.224 246.766 352.818 246.996 352.332 247.162C351.846 247.328 351.291 247.412 350.665 247.412C349.967 247.412 349.321 247.295 348.729 247.062C348.137 246.829 347.641 246.533 347.242 246.174L347.701 245.425C347.754 245.332 347.821 245.262 347.901 245.216C347.98 245.163 348.087 245.136 348.22 245.136C348.346 245.136 348.476 245.183 348.609 245.276C348.742 245.369 348.902 245.472 349.088 245.585C349.275 245.692 349.501 245.791 349.767 245.885C350.033 245.971 350.366 246.014 350.765 246.014C351.098 246.014 351.387 245.974 351.633 245.895C351.88 245.808 352.083 245.695 352.242 245.555C352.409 245.409 352.532 245.243 352.612 245.056C352.691 244.87 352.731 244.674 352.731 244.467C352.731 244.201 352.655 243.982 352.502 243.809C352.355 243.629 352.159 243.476 351.913 243.35C351.673 243.223 351.397 243.113 351.084 243.02C350.772 242.927 350.452 242.827 350.126 242.721C349.8 242.614 349.481 242.491 349.168 242.351C348.855 242.212 348.576 242.035 348.33 241.822C348.09 241.61 347.894 241.35 347.741 241.044C347.595 240.738 347.521 240.365 347.521 239.926C347.521 239.534 347.601 239.158 347.761 238.798C347.927 238.439 348.163 238.123 348.47 237.85C348.782 237.577 349.165 237.361 349.617 237.201C350.076 237.035 350.599 236.952 351.184 236.952C351.856 236.952 352.462 237.058 353.001 237.271C353.546 237.484 354.012 237.777 354.398 238.15L353.969 238.858Z" fill="#E4FBFF"/>
<path d="M272.008 266.438C271.689 266.019 271.343 265.726 270.97 265.56C270.604 265.393 270.192 265.31 269.733 265.31C268.841 265.31 268.149 265.633 267.657 266.278C267.171 266.917 266.928 267.852 266.928 269.083C266.928 269.728 266.981 270.28 267.088 270.74C267.201 271.192 267.361 271.565 267.567 271.857C267.78 272.144 268.039 272.356 268.345 272.496C268.651 272.629 268.997 272.696 269.383 272.696C269.949 272.696 270.438 272.569 270.85 272.317C271.263 272.064 271.649 271.708 272.008 271.249V266.438ZM273.964 259.392V274.123H272.787C272.514 274.123 272.344 273.993 272.278 273.734L272.108 272.566C271.675 273.078 271.183 273.491 270.631 273.804C270.085 274.11 269.453 274.263 268.735 274.263C268.156 274.263 267.63 274.15 267.158 273.923C266.692 273.697 266.293 273.368 265.96 272.935C265.627 272.496 265.371 271.954 265.191 271.309C265.012 270.663 264.922 269.921 264.922 269.083C264.922 268.331 265.022 267.632 265.221 266.987C265.421 266.341 265.71 265.783 266.09 265.31C266.469 264.838 266.928 264.468 267.467 264.202C268.006 263.929 268.615 263.793 269.293 263.793C269.906 263.793 270.425 263.893 270.85 264.092C271.283 264.292 271.669 264.575 272.008 264.941V259.392H273.964ZM283.397 267.925C283.397 267.539 283.34 267.183 283.227 266.857C283.12 266.531 282.961 266.248 282.748 266.009C282.535 265.769 282.275 265.583 281.969 265.45C281.663 265.317 281.311 265.25 280.911 265.25C280.093 265.25 279.448 265.486 278.975 265.959C278.509 266.431 278.213 267.087 278.087 267.925H283.397ZM285.003 272.676C284.764 272.955 284.488 273.198 284.175 273.404C283.862 273.604 283.53 273.767 283.177 273.893C282.824 274.02 282.458 274.113 282.079 274.173C281.707 274.233 281.337 274.263 280.971 274.263C280.273 274.263 279.624 274.146 279.025 273.913C278.433 273.674 277.917 273.328 277.478 272.875C277.046 272.416 276.706 271.851 276.46 271.179C276.22 270.5 276.101 269.722 276.101 268.843C276.101 268.138 276.211 267.483 276.43 266.877C276.65 266.265 276.962 265.733 277.368 265.28C277.781 264.828 278.283 264.472 278.875 264.212C279.468 263.953 280.133 263.823 280.871 263.823C281.49 263.823 282.059 263.926 282.578 264.132C283.104 264.332 283.556 264.625 283.936 265.011C284.315 265.397 284.611 265.872 284.824 266.438C285.043 267.004 285.153 267.649 285.153 268.374C285.153 268.674 285.12 268.877 285.053 268.983C284.987 269.083 284.864 269.133 284.684 269.133H278.037C278.057 269.738 278.143 270.267 278.296 270.72C278.449 271.165 278.659 271.538 278.925 271.837C279.198 272.137 279.521 272.36 279.893 272.506C280.266 272.653 280.682 272.726 281.141 272.726C281.573 272.726 281.946 272.676 282.259 272.576C282.578 272.476 282.851 272.37 283.077 272.257C283.31 272.137 283.503 272.027 283.656 271.927C283.816 271.827 283.955 271.778 284.075 271.778C284.235 271.778 284.358 271.837 284.445 271.957L285.003 272.676ZM293.223 265.729C293.17 265.816 293.114 265.879 293.054 265.919C292.994 265.952 292.917 265.969 292.824 265.969C292.718 265.969 292.598 265.932 292.465 265.859C292.339 265.786 292.182 265.706 291.996 265.62C291.816 265.533 291.603 265.453 291.357 265.38C291.111 265.307 290.818 265.27 290.479 265.27C290.199 265.27 289.943 265.307 289.71 265.38C289.484 265.447 289.291 265.543 289.131 265.669C288.972 265.789 288.849 265.936 288.762 266.109C288.676 266.275 288.632 266.455 288.632 266.648C288.632 266.9 288.706 267.11 288.852 267.276C289.005 267.443 289.201 267.586 289.441 267.705C289.687 267.825 289.963 267.935 290.269 268.035C290.582 268.128 290.898 268.228 291.217 268.334C291.543 268.441 291.859 268.564 292.166 268.704C292.478 268.837 292.754 269.006 292.994 269.213C293.24 269.412 293.436 269.655 293.583 269.941C293.736 270.227 293.812 270.577 293.812 270.989C293.812 271.462 293.726 271.901 293.553 272.307C293.386 272.706 293.137 273.052 292.804 273.345C292.478 273.637 292.072 273.867 291.587 274.033C291.101 274.2 290.545 274.283 289.92 274.283C289.221 274.283 288.576 274.166 287.984 273.933C287.391 273.701 286.896 273.404 286.496 273.045L286.956 272.297C287.009 272.203 287.075 272.134 287.155 272.087C287.235 272.034 287.342 272.007 287.475 272.007C287.601 272.007 287.731 272.054 287.864 272.147C287.997 272.24 288.157 272.343 288.343 272.456C288.529 272.563 288.755 272.663 289.022 272.756C289.288 272.842 289.62 272.885 290.02 272.885C290.352 272.885 290.642 272.846 290.888 272.766C291.134 272.679 291.337 272.566 291.497 272.426C291.663 272.28 291.786 272.114 291.866 271.927C291.946 271.741 291.986 271.545 291.986 271.338C291.986 271.072 291.909 270.853 291.756 270.68C291.61 270.5 291.414 270.347 291.167 270.221C290.928 270.094 290.652 269.984 290.339 269.891C290.026 269.798 289.707 269.698 289.381 269.592C289.055 269.485 288.735 269.362 288.423 269.223C288.11 269.083 287.831 268.906 287.584 268.694C287.345 268.481 287.149 268.221 286.996 267.915C286.849 267.609 286.776 267.236 286.776 266.797C286.776 266.405 286.856 266.029 287.015 265.669C287.182 265.31 287.418 264.994 287.724 264.721C288.037 264.448 288.419 264.232 288.872 264.073C289.331 263.906 289.853 263.823 290.439 263.823C291.111 263.823 291.716 263.929 292.255 264.142C292.801 264.355 293.267 264.648 293.653 265.021L293.223 265.729ZM297.956 263.983V274.123H296.009V263.983H297.956ZM298.325 260.849C298.325 261.028 298.288 261.201 298.215 261.368C298.142 261.527 298.042 261.671 297.916 261.797C297.796 261.917 297.653 262.013 297.487 262.086C297.32 262.153 297.147 262.186 296.968 262.186C296.788 262.186 296.618 262.153 296.459 262.086C296.299 262.013 296.156 261.917 296.029 261.797C295.91 261.671 295.813 261.527 295.74 261.368C295.673 261.201 295.64 261.028 295.64 260.849C295.64 260.662 295.673 260.489 295.74 260.33C295.813 260.163 295.91 260.02 296.029 259.901C296.156 259.774 296.299 259.678 296.459 259.611C296.618 259.538 296.788 259.501 296.968 259.501C297.147 259.501 297.32 259.538 297.487 259.611C297.653 259.678 297.796 259.774 297.916 259.901C298.042 260.02 298.142 260.163 298.215 260.33C298.288 260.489 298.325 260.662 298.325 260.849ZM304.337 269.063C304.683 269.063 304.985 269.016 305.245 268.923C305.511 268.83 305.731 268.7 305.904 268.534C306.083 268.361 306.216 268.155 306.303 267.915C306.396 267.676 306.443 267.413 306.443 267.127C306.443 266.541 306.263 266.075 305.904 265.729C305.551 265.377 305.029 265.2 304.337 265.2C303.651 265.2 303.129 265.377 302.77 265.729C302.417 266.075 302.241 266.541 302.241 267.127C302.241 267.413 302.284 267.676 302.37 267.915C302.464 268.148 302.597 268.351 302.77 268.524C302.949 268.69 303.169 268.823 303.428 268.923C303.695 269.016 303.997 269.063 304.337 269.063ZM307.441 274.652C307.441 274.412 307.374 274.223 307.241 274.083C307.108 273.937 306.925 273.824 306.692 273.744C306.466 273.657 306.2 273.597 305.894 273.564C305.587 273.524 305.265 273.494 304.925 273.474C304.593 273.454 304.25 273.438 303.897 273.424C303.545 273.404 303.205 273.371 302.879 273.325C302.533 273.498 302.247 273.707 302.021 273.953C301.802 274.2 301.692 274.489 301.692 274.822C301.692 275.035 301.745 275.234 301.851 275.421C301.965 275.607 302.134 275.767 302.36 275.9C302.593 276.039 302.883 276.146 303.229 276.219C303.581 276.299 304.001 276.339 304.486 276.339C304.965 276.339 305.388 276.296 305.754 276.209C306.12 276.129 306.426 276.013 306.672 275.86C306.925 275.713 307.115 275.537 307.241 275.331C307.374 275.124 307.441 274.898 307.441 274.652ZM309.417 264.362V265.091C309.417 265.33 309.267 265.48 308.968 265.54L307.88 265.699C307.973 265.906 308.046 266.125 308.099 266.358C308.153 266.584 308.179 266.824 308.179 267.077C308.179 267.576 308.083 268.028 307.89 268.434C307.697 268.833 307.431 269.176 307.091 269.462C306.752 269.748 306.346 269.968 305.874 270.121C305.408 270.274 304.896 270.35 304.337 270.35C303.877 270.35 303.448 270.3 303.049 270.201C302.849 270.32 302.696 270.453 302.59 270.6C302.49 270.74 302.44 270.879 302.44 271.019C302.44 271.252 302.537 271.425 302.73 271.538C302.929 271.651 303.185 271.734 303.498 271.788C303.818 271.834 304.18 271.864 304.586 271.877C304.999 271.891 305.414 271.914 305.834 271.947C306.26 271.974 306.675 272.027 307.081 272.107C307.494 272.18 307.856 272.303 308.169 272.476C308.489 272.643 308.745 272.875 308.938 273.175C309.137 273.468 309.237 273.85 309.237 274.323C309.237 274.762 309.127 275.188 308.908 275.6C308.695 276.013 308.382 276.379 307.97 276.698C307.557 277.017 307.055 277.274 306.462 277.467C305.87 277.66 305.198 277.756 304.446 277.756C303.695 277.756 303.039 277.683 302.48 277.536C301.928 277.39 301.465 277.194 301.093 276.948C300.727 276.701 300.451 276.415 300.264 276.089C300.085 275.763 299.995 275.424 299.995 275.071C299.995 274.579 300.148 274.163 300.454 273.824C300.76 273.478 301.183 273.208 301.722 273.015C301.429 272.882 301.196 272.702 301.023 272.476C300.85 272.243 300.764 271.937 300.764 271.558C300.764 271.412 300.79 271.262 300.843 271.109C300.897 270.949 300.976 270.793 301.083 270.64C301.196 270.48 301.332 270.33 301.492 270.191C301.658 270.051 301.848 269.925 302.061 269.811C301.562 269.532 301.169 269.163 300.883 268.704C300.597 268.238 300.454 267.696 300.454 267.077C300.454 266.578 300.551 266.129 300.744 265.729C300.937 265.33 301.203 264.987 301.542 264.701C301.888 264.415 302.297 264.196 302.77 264.043C303.249 263.89 303.771 263.813 304.337 263.813C305.215 263.813 305.97 263.996 306.602 264.362H309.417ZM313.029 265.39C313.249 265.157 313.478 264.944 313.718 264.751C313.957 264.558 314.21 264.395 314.476 264.262C314.749 264.122 315.038 264.016 315.344 263.943C315.657 263.863 315.99 263.823 316.343 263.823C316.901 263.823 317.39 263.916 317.81 264.102C318.236 264.289 318.591 264.552 318.878 264.891C319.164 265.224 319.38 265.626 319.526 266.099C319.673 266.571 319.746 267.093 319.746 267.666V274.123H317.79V267.666C317.79 266.94 317.623 266.378 317.291 265.979C316.958 265.573 316.449 265.37 315.764 265.37C315.265 265.37 314.796 265.49 314.356 265.729C313.924 265.962 313.521 266.282 313.149 266.687V274.123H311.202V263.983H312.37C312.643 263.983 312.813 264.112 312.879 264.372L313.029 265.39ZM335.855 263.983V274.123H334.687C334.421 274.123 334.248 273.993 334.168 273.734L334.028 272.716C333.809 272.949 333.579 273.162 333.34 273.355C333.1 273.547 332.844 273.714 332.571 273.854C332.298 273.987 332.009 274.09 331.703 274.163C331.397 274.243 331.067 274.283 330.715 274.283C330.156 274.283 329.663 274.19 329.238 274.003C328.818 273.817 328.466 273.557 328.18 273.225C327.893 272.885 327.677 272.48 327.531 272.007C327.384 271.535 327.311 271.012 327.311 270.44V263.983H329.267V270.44C329.267 271.165 329.434 271.731 329.766 272.137C330.099 272.536 330.608 272.736 331.294 272.736C331.793 272.736 332.258 272.619 332.691 272.386C333.123 272.147 333.529 271.821 333.908 271.408V263.983H335.855ZM347.075 274.123H345.198C345.045 274.123 344.922 274.083 344.829 274.003C344.743 273.917 344.673 273.827 344.62 273.734L342.174 269.871C342.141 269.971 342.108 270.068 342.074 270.161C342.041 270.254 341.998 270.34 341.945 270.42L339.699 273.734C339.633 273.827 339.556 273.917 339.47 274.003C339.383 274.083 339.27 274.123 339.13 274.123H337.394L340.927 268.903L337.533 263.983H339.41C339.563 263.983 339.672 264.006 339.739 264.053C339.812 264.099 339.875 264.169 339.929 264.262L342.334 267.965C342.367 267.865 342.404 267.769 342.444 267.676C342.484 267.576 342.537 267.473 342.603 267.366L344.669 264.302C344.789 264.089 344.949 263.983 345.149 263.983H346.935L343.542 268.813L347.075 274.123ZM362.112 263.983V274.123H360.945C360.678 274.123 360.505 273.993 360.426 273.734L360.286 272.716C360.066 272.949 359.837 273.162 359.597 273.355C359.358 273.547 359.102 273.714 358.829 273.854C358.556 273.987 358.266 274.09 357.96 274.163C357.654 274.243 357.325 274.283 356.972 274.283C356.413 274.283 355.921 274.19 355.495 274.003C355.076 273.817 354.723 273.557 354.437 273.225C354.151 272.885 353.935 272.48 353.788 272.007C353.642 271.535 353.569 271.012 353.569 270.44V263.983H355.525V270.44C355.525 271.165 355.691 271.731 356.024 272.137C356.357 272.536 356.866 272.736 357.551 272.736C358.05 272.736 358.516 272.619 358.948 272.386C359.381 272.147 359.787 271.821 360.166 271.408V263.983H362.112ZM366.865 263.983V274.123H364.919V263.983H366.865ZM367.234 260.849C367.234 261.028 367.198 261.201 367.125 261.368C367.051 261.527 366.952 261.671 366.825 261.797C366.705 261.917 366.562 262.013 366.396 262.086C366.23 262.153 366.057 262.186 365.877 262.186C365.697 262.186 365.528 262.153 365.368 262.086C365.208 262.013 365.065 261.917 364.939 261.797C364.819 261.671 364.723 261.527 364.649 261.368C364.583 261.201 364.55 261.028 364.55 260.849C364.55 260.662 364.583 260.489 364.649 260.33C364.723 260.163 364.819 260.02 364.939 259.901C365.065 259.774 365.208 259.678 365.368 259.611C365.528 259.538 365.697 259.501 365.877 259.501C366.057 259.501 366.23 259.538 366.396 259.611C366.562 259.678 366.705 259.774 366.825 259.901C366.952 260.02 367.051 260.163 367.125 260.33C367.198 260.489 367.234 260.662 367.234 260.849Z" fill="#E4FBFF"/>
<path d="M247.904 192.013C245.959 190.065 245.959 186.897 247.903 184.95C249.853 183.004 253.019 183.004 254.966 184.95C256.913 186.897 256.913 190.065 254.966 192.012V192.013C253.019 193.957 249.852 193.957 247.904 192.013V192.013Z" fill="#88FE12"/>
<path d="M247.904 245.755C245.959 243.807 245.959 240.64 247.903 238.693C249.853 236.746 253.019 236.746 254.966 238.693C256.913 240.64 256.913 243.807 254.966 245.754V245.755C253.019 247.699 249.852 247.699 247.904 245.755V245.755Z" fill="#99341F"/>
<path d="M247.904 272.626C245.959 270.678 245.959 267.511 247.903 265.564C249.853 263.617 253.019 263.617 254.966 265.564C256.913 267.511 256.913 270.678 254.966 272.625V272.626C253.019 274.57 249.852 274.57 247.904 272.626Z" fill="#E64C3C"/>
<path d="M247.904 217.349C245.959 215.401 245.959 212.233 247.903 210.286C249.853 208.339 253.019 208.339 254.966 210.286C256.913 212.233 256.913 215.401 254.966 217.347V217.349C253.019 219.293 249.852 219.293 247.904 217.349V217.349Z" fill="#4226EB"/>
</g>
<g clip-path="url(#clip2)">
<path d="M105.626 106.365C104.692 107.818 104.142 109.541 104.142 111.397C104.142 116.54 108.312 120.709 113.454 120.709C115.176 120.709 116.783 120.233 118.167 119.418C120.347 124.292 125.229 127.693 130.914 127.693C136.564 127.693 141.419 124.331 143.619 119.505C145.437 120.279 147.437 120.709 149.538 120.709C157.896 120.709 164.67 113.935 164.67 105.577C164.67 97.4922 158.324 90.9072 150.343 90.486C150.579 89.3453 150.702 88.1637 150.702 86.9531C150.702 77.3104 142.885 69.4932 133.242 69.4932C125.584 69.4932 119.094 74.4311 116.74 81.2889C114.484 79.7259 111.75 78.8051 108.798 78.8051C101.084 78.8051 94.8301 85.0593 94.8301 92.7731C94.8301 99.395 99.4417 104.927 105.626 106.365V106.365Z" fill="#D1A339"/>
<path d="M143.718 83.4621C143.718 79.3216 142.993 75.3516 141.671 71.6664C139.17 70.2847 136.3 69.4941 133.242 69.4941C125.584 69.4941 119.094 74.432 116.74 81.2898C114.484 79.7268 111.75 78.8061 108.798 78.8061C101.084 78.8061 94.8301 85.0603 94.8301 92.7741C94.8301 99.396 99.4417 104.928 105.626 106.366C104.692 107.818 104.142 109.542 104.142 111.398C104.142 114.162 105.354 116.638 107.266 118.343C107.775 118.365 108.285 118.382 108.798 118.382C128.084 118.382 143.718 102.748 143.718 83.4621Z" fill="#F0D365"/>
<path d="M130.912 128.857C125.368 128.857 120.287 125.806 117.647 120.989C116.323 121.569 114.894 121.873 113.452 121.873C107.676 121.873 102.976 117.174 102.976 111.397C102.976 109.903 103.295 108.437 103.908 107.087C97.8068 105.021 93.6641 99.3336 93.6641 92.773C93.6641 84.4295 100.453 77.6411 108.796 77.6411C111.394 77.6411 113.913 78.2998 116.161 79.557C119.089 72.7862 125.78 68.3291 133.24 68.3291C143.508 68.3291 151.864 76.6845 151.864 86.953C151.864 87.7851 151.808 88.6189 151.697 89.443C159.721 90.5041 165.832 97.3568 165.832 105.577C165.832 114.563 158.522 121.873 149.536 121.873C147.696 121.873 145.9 121.571 144.183 120.972C141.545 125.796 136.45 128.857 130.912 128.857ZM118.165 118.255C118.284 118.255 118.404 118.274 118.519 118.311C118.834 118.411 119.092 118.642 119.227 118.944C121.289 123.551 125.875 126.529 130.912 126.529C135.908 126.529 140.479 123.583 142.556 119.022C142.82 118.449 143.494 118.187 144.072 118.434C145.804 119.172 147.642 119.545 149.536 119.545C157.238 119.545 163.504 113.279 163.504 105.577C163.504 98.1576 157.695 92.0387 150.281 91.6488C149.942 91.63 149.628 91.4658 149.42 91.197C149.214 90.9293 149.133 90.5837 149.202 90.2518C149.423 89.1702 149.536 88.0613 149.536 86.953C149.536 77.9667 142.226 70.6571 133.24 70.6571C126.288 70.6571 120.098 75.0812 117.839 81.6662C117.72 82.0117 117.448 82.2806 117.101 82.3948C116.753 82.509 116.373 82.4528 116.076 82.2459C113.926 80.7568 111.408 79.9691 108.796 79.9691C101.736 79.9691 95.9921 85.7134 95.9921 92.773C95.9921 98.7538 100.061 103.876 105.887 105.233C106.256 105.317 106.56 105.578 106.702 105.928C106.844 106.28 106.807 106.678 106.602 106.996C105.754 108.316 105.304 109.837 105.304 111.397C105.304 115.889 108.959 119.545 113.452 119.545C114.893 119.545 116.319 119.154 117.575 118.414C117.757 118.309 117.96 118.255 118.165 118.255V118.255Z" fill="black"/>
<path d="M147.207 86.9533H144.879C144.879 80.5348 139.658 75.3133 133.239 75.3133V72.9854C140.942 72.9854 147.207 79.2509 147.207 86.9533Z" fill="black"/>
<path d="M129.648 102.403C130.694 102.294 131.493 101.955 132.045 101.386C132.598 100.809 132.874 100.073 132.874 99.1772C132.874 98.784 132.798 98.4451 132.648 98.1606C132.506 97.8761 132.309 97.6293 132.058 97.4201C131.807 97.2025 131.51 97.0185 131.167 96.8679C130.832 96.7172 130.472 96.5792 130.087 96.4537L129.648 102.403ZM129.146 88.2328C128.619 88.283 128.163 88.3876 127.778 88.5466C127.402 88.7056 127.088 88.9022 126.837 89.1365C126.594 89.3708 126.414 89.6385 126.297 89.9398C126.18 90.241 126.121 90.5547 126.121 90.8811C126.121 91.2576 126.188 91.5881 126.322 91.8726C126.456 92.1571 126.64 92.4081 126.874 92.6256C127.117 92.8348 127.397 93.0189 127.715 93.1779C128.042 93.3369 128.389 93.4833 128.757 93.6172L129.146 88.2328ZM130.251 94.1067C130.853 94.2907 131.447 94.4957 132.033 94.7217C132.627 94.9392 133.158 95.2195 133.627 95.5626C134.095 95.9056 134.472 96.3365 134.756 96.8553C135.049 97.3657 135.196 98.01 135.196 98.7881C135.196 99.5412 135.066 100.252 134.807 100.922C134.556 101.591 134.187 102.181 133.702 102.691C133.217 103.202 132.619 103.616 131.907 103.934C131.205 104.252 130.401 104.44 129.498 104.499L129.347 106.595C129.339 106.762 129.272 106.913 129.146 107.047C129.021 107.181 128.862 107.247 128.669 107.247H127.766L127.966 104.461C126.971 104.352 126.05 104.097 125.205 103.696C124.36 103.286 123.636 102.771 123.034 102.152L123.774 101.022C123.85 100.922 123.942 100.838 124.051 100.771C124.159 100.704 124.281 100.671 124.414 100.671C124.582 100.671 124.766 100.746 124.967 100.897C125.176 101.047 125.423 101.223 125.707 101.424C125.992 101.616 126.326 101.809 126.711 102.001C127.105 102.185 127.573 102.315 128.117 102.39L128.581 96.0018C127.996 95.8261 127.418 95.6295 126.849 95.412C126.28 95.186 125.77 94.8932 125.318 94.5334C124.866 94.1652 124.502 93.7092 124.226 93.1653C123.95 92.6215 123.812 91.9395 123.812 91.1195C123.812 90.5004 123.933 89.8979 124.176 89.3122C124.419 88.7265 124.77 88.2035 125.23 87.7433C125.699 87.2831 126.272 86.9066 126.95 86.6138C127.636 86.3209 128.418 86.1577 129.297 86.1243L129.422 84.3671C129.431 84.1998 129.498 84.0492 129.623 83.9153C129.749 83.7814 129.908 83.7145 130.1 83.7145H131.004L130.828 86.187C131.707 86.3042 132.464 86.5385 133.1 86.8899C133.744 87.2329 134.309 87.6471 134.794 88.1324L134.204 89.0361C134.028 89.3122 133.823 89.4503 133.589 89.4503C133.472 89.4503 133.326 89.4001 133.15 89.2997C132.983 89.1993 132.778 89.0863 132.535 88.9608C132.301 88.8269 132.029 88.693 131.719 88.5592C131.41 88.4253 131.062 88.3249 130.677 88.2579L130.251 94.1067Z" fill="black"/>
<path d="M105.448 135.896C104.07 135.896 102.948 134.868 102.948 133.605C102.948 132.342 104.07 131.313 105.448 131.313C106.826 131.313 107.947 132.342 107.947 133.605C107.947 134.868 106.826 135.896 105.448 135.896ZM105.448 132.841C104.989 132.841 104.615 133.183 104.615 133.605C104.615 134.026 104.989 134.368 105.448 134.368C105.907 134.368 106.281 134.026 106.281 133.605C106.281 133.183 105.907 132.841 105.448 132.841Z" fill="black"/>
<path d="M107.114 133.605C107.114 134.41 106.368 135.063 105.448 135.063C104.527 135.063 103.781 134.41 103.781 133.605C103.781 132.799 104.527 132.146 105.448 132.146C106.368 132.146 107.114 132.799 107.114 133.605Z" fill="#F0D365"/>
<path d="M116.279 128.397C116.279 130.007 114.786 131.313 112.946 131.313C111.106 131.313 109.613 130.007 109.613 128.397C109.613 126.786 111.106 125.48 112.946 125.48C114.786 125.48 116.279 126.786 116.279 128.397Z" fill="#F0D365"/>
<path d="M112.997 132.562C110.585 132.562 108.623 130.88 108.623 128.813C108.623 126.746 110.585 125.063 112.997 125.063C115.409 125.063 117.371 126.746 117.371 128.813C117.371 130.88 115.409 132.562 112.997 132.562ZM112.997 126.563C111.55 126.563 110.373 127.573 110.373 128.813C110.373 130.053 111.55 131.062 112.997 131.062C114.444 131.062 115.622 130.053 115.622 128.813C115.622 127.573 114.444 126.563 112.997 126.563Z" fill="black"/>
</g>
<g clip-path="url(#clip3)">
<path d="M186.749 117.118C185.774 118.538 185.201 120.223 185.201 122.037C185.201 127.063 189.548 131.138 194.91 131.138C196.704 131.138 198.38 130.673 199.823 129.877C202.096 134.64 207.186 137.964 213.113 137.964C219.003 137.964 224.064 134.678 226.358 129.962C228.254 130.718 230.338 131.138 232.529 131.138C241.242 131.138 248.305 124.517 248.305 116.348C248.305 108.446 241.688 102.01 233.369 101.598C233.614 100.483 233.742 99.3285 233.742 98.1453C233.742 88.7205 225.593 81.0801 215.54 81.0801C207.556 81.0801 200.789 85.9063 198.336 92.6091C195.983 91.0815 193.133 90.1815 190.055 90.1815C182.014 90.1815 175.493 96.2944 175.493 103.834C175.493 110.306 180.301 115.713 186.749 117.118V117.118Z" fill="#D1A339"/>
<path d="M226.459 94.7323C226.459 90.6854 225.703 86.8052 224.325 83.2032C221.718 81.8528 218.725 81.0801 215.538 81.0801C207.554 81.0801 200.787 85.9063 198.334 92.6091C195.981 91.0815 193.131 90.1815 190.054 90.1815C182.012 90.1815 175.491 96.2944 175.491 103.834C175.491 110.306 180.299 115.713 186.747 117.118C185.772 118.538 185.199 120.223 185.199 122.037C185.199 124.739 186.463 127.158 188.457 128.825C188.987 128.847 189.518 128.863 190.054 128.863C210.16 128.863 226.459 113.582 226.459 94.7323Z" fill="#F0D365"/>
<path d="M180.342 147.062C180.342 148.319 179.256 149.338 177.915 149.338C176.575 149.338 175.488 148.319 175.488 147.062C175.488 145.806 176.575 144.787 177.915 144.787C179.256 144.787 180.342 145.806 180.342 147.062Z" fill="#F0D365"/>
<path d="M192.477 139.102C192.477 141.616 190.303 143.653 187.623 143.653C184.942 143.653 182.769 141.616 182.769 139.102C182.769 136.589 184.942 134.552 187.623 134.552C190.303 134.552 192.477 136.589 192.477 139.102Z" fill="#F0D365"/>
<path d="M213.11 139.101C207.33 139.101 202.033 136.119 199.281 131.41C197.901 131.978 196.411 132.275 194.907 132.275C188.886 132.275 183.986 127.682 183.986 122.036C183.986 120.576 184.318 119.143 184.957 117.823C178.596 115.803 174.277 110.245 174.277 103.833C174.277 95.6779 181.355 89.0429 190.053 89.0429C192.762 89.0429 195.388 89.6867 197.731 90.9155C200.784 84.2977 207.76 79.9414 215.537 79.9414C226.243 79.9414 234.954 88.1079 234.954 98.1443C234.954 98.9576 234.896 99.7725 234.78 100.578C243.145 101.615 249.516 108.313 249.516 116.347C249.516 125.13 241.895 132.275 232.527 132.275C230.608 132.275 228.736 131.979 226.946 131.394C224.196 136.109 218.884 139.101 213.11 139.101ZM199.821 128.739C199.945 128.739 200.07 128.757 200.19 128.793C200.519 128.891 200.787 129.117 200.928 129.412C203.078 133.915 207.859 136.826 213.11 136.826C218.319 136.826 223.084 133.946 225.25 129.488C225.525 128.928 226.227 128.672 226.831 128.914C228.636 129.634 230.552 129.999 232.527 129.999C240.557 129.999 247.089 123.875 247.089 116.347C247.089 109.096 241.033 103.115 233.303 102.734C232.95 102.716 232.623 102.555 232.406 102.292C232.191 102.031 232.107 101.693 232.178 101.368C232.409 100.311 232.527 99.2276 232.527 98.1443C232.527 89.3612 224.906 82.2168 215.537 82.2168C208.29 82.2168 201.837 86.5409 199.481 92.977C199.357 93.3147 199.073 93.5775 198.711 93.6891C198.349 93.8008 197.953 93.7458 197.642 93.5436C195.401 92.0882 192.777 91.3182 190.053 91.3182C182.693 91.3182 176.704 96.9328 176.704 103.833C176.704 109.678 180.947 114.685 187.021 116.011C187.405 116.093 187.722 116.348 187.87 116.691C188.018 117.034 187.979 117.423 187.766 117.734C186.881 119.024 186.413 120.511 186.413 122.036C186.413 126.426 190.223 129.999 194.907 129.999C196.409 129.999 197.896 129.617 199.206 128.895C199.395 128.791 199.607 128.739 199.821 128.739V128.739Z" fill="black"/>
<path d="M177.918 150.477C175.911 150.477 174.277 148.946 174.277 147.064C174.277 145.183 175.911 143.651 177.918 143.651C179.925 143.651 181.559 145.183 181.559 147.064C181.559 148.946 179.925 150.477 177.918 150.477ZM177.918 145.927C177.25 145.927 176.704 146.437 176.704 147.064C176.704 147.692 177.25 148.202 177.918 148.202C178.586 148.202 179.131 147.692 179.131 147.064C179.131 146.437 178.586 145.927 177.918 145.927Z" fill="black"/>
<path d="M187.626 144.789C184.281 144.789 181.559 142.237 181.559 139.101C181.559 135.964 184.281 133.412 187.626 133.412C190.972 133.412 193.694 135.964 193.694 139.101C193.694 142.237 190.972 144.789 187.626 144.789ZM187.626 135.687C185.619 135.687 183.986 137.219 183.986 139.101C183.986 140.982 185.619 142.514 187.626 142.514C189.633 142.514 191.267 140.982 191.267 139.101C191.267 137.219 189.633 135.687 187.626 135.687Z" fill="black"/>
<path d="M230.099 98.1434H227.672C227.672 91.87 222.229 86.7666 215.537 86.7666V84.4912C223.567 84.4912 230.099 90.6151 230.099 98.1434Z" fill="black"/>
<g clip-path="url(#clip4)">
<path d="M216.654 99.3369C216.082 99.2779 215.504 99.2441 214.916 99.265C210.33 99.42 206.313 101.975 204.082 104.314L204.081 115.878L204.859 115.961C207.206 116.212 208.829 116.911 209.687 118.041C210.635 119.289 210.383 120.753 210.283 121.173C209.951 122.567 210.828 123.987 212.33 124.258C213.179 124.411 214.033 124.486 214.88 124.486C215.477 124.486 216.068 124.435 216.654 124.362C223.288 123.532 228.41 118.242 228.355 111.801C228.295 104.952 222.394 99.9272 216.654 99.3369V99.3369Z" fill="#818080"/>
<path d="M228.354 111.802C228.294 104.953 222.393 99.9283 216.653 99.3379V124.363C223.287 123.533 228.409 118.243 228.354 111.802Z" fill="#818080"/>
<path d="M218.027 108.936C216.981 107.953 216.981 106.355 218.026 105.373C219.076 104.391 220.779 104.391 221.827 105.373C222.875 106.355 222.875 107.953 221.827 108.935V108.936C220.779 109.917 219.075 109.917 218.027 108.936V108.936Z" fill="#88FE12"/>
<path d="M210.416 106.066C210.034 104.738 210.866 103.345 212.315 102.982C213.742 102.624 215.221 103.421 215.605 104.763C215.989 106.105 215.141 107.487 213.705 107.847C212.267 108.208 210.798 107.408 210.416 106.066V106.066Z" fill="#4226EB"/>
<path d="M207.249 112.596C205.818 112.236 204.966 110.853 205.35 109.512C205.731 108.175 207.198 107.369 208.639 107.732C210.074 108.091 210.925 109.47 210.539 110.816C210.154 112.165 208.677 112.955 207.249 112.596V112.596Z" fill="#FF435B"/>
<path d="M221.089 116.071C219.658 115.712 218.803 114.335 219.19 112.987C219.575 111.639 221.051 110.847 222.479 111.207C223.911 111.567 224.763 112.95 224.379 114.291C223.995 115.636 222.52 116.432 221.089 116.071V116.071Z" fill="#99341F"/>
<path d="M203.223 97.5752C201.002 97.5752 200.536 105.392 200.536 111.903C200.536 112.195 200.54 112.464 200.542 112.742L202.439 113.582H203.223H204.491L205.903 112.742C205.905 112.464 205.909 112.2 205.909 111.903C205.909 105.392 205.443 97.5752 203.223 97.5752V97.5752Z" fill="#B35324"/>
<path d="M205.902 112.742C205.904 112.464 205.908 112.2 205.908 111.903C205.908 105.392 205.442 97.5752 203.222 97.5752V113.582H204.49L205.902 112.742Z" fill="#99341F"/>
<path d="M203.223 112.742H200.543C200.575 116.455 200.802 118.894 200.815 119.118H203.223H205.631C205.655 118.708 205.874 116.615 205.904 112.742H203.223Z" fill="#FFF7E6"/>
<path d="M205.902 112.742H203.222V119.118H205.63C205.653 118.708 205.873 116.615 205.902 112.742V112.742Z" fill="#FFCCB3"/>
<path d="M203.223 117.779C201.247 117.779 199.641 119.285 199.641 121.137V122.816C199.641 123.742 198.777 124.551 197.79 124.551V126.23H201.432C202.063 126.23 202.66 126.109 203.223 125.921C205.303 125.226 206.804 123.323 206.804 121.137C206.804 119.285 205.198 117.779 203.223 117.779Z" fill="#474F54"/>
<path d="M206.804 121.137C206.804 119.285 205.197 117.779 203.222 117.779V125.921C205.302 125.226 206.804 123.323 206.804 121.137Z" fill="#32393F"/>
<path d="M216.654 121.137C218.138 121.137 219.341 120.009 219.341 118.618C219.341 117.227 218.138 116.1 216.654 116.1C215.171 116.1 213.968 117.227 213.968 118.618C213.968 120.009 215.171 121.137 216.654 121.137Z" fill="#E64C3C"/>
<path d="M219.34 118.618C219.34 117.227 218.137 116.1 216.653 116.1V121.137C218.137 121.137 219.34 120.009 219.34 118.618Z" fill="#E64C3C"/>
</g>
</g>
<g clip-path="url(#clip5)">
<path d="M61.9939 109.269C62.8488 110.598 63.3516 112.175 63.3516 113.873C63.3516 118.578 59.537 122.392 54.8322 122.392C53.2571 122.392 51.7866 121.956 50.5204 121.211C48.5258 125.67 44.0591 128.782 38.8582 128.782C33.689 128.782 29.2473 125.706 27.2344 121.291C25.571 121.999 23.7417 122.392 21.8193 122.392C14.1729 122.392 7.97515 116.194 7.97515 108.548C7.97515 101.151 13.7813 95.1267 21.0824 94.7414C20.8672 93.6978 20.7543 92.6167 20.7543 91.5091C20.7543 82.6871 27.9062 75.5352 36.7283 75.5352C43.7346 75.5352 49.6723 80.0528 51.8256 86.327C53.89 84.897 56.3911 84.0546 59.0919 84.0546C66.1492 84.0546 71.8711 89.7765 71.8711 96.8338C71.8711 102.892 67.6519 107.954 61.9939 109.269V109.269Z" fill="#D1A339"/>
<path d="M27.142 88.3143C27.142 84.5262 27.8055 80.8941 29.015 77.5225C31.3029 76.2585 33.9288 75.5352 36.7264 75.5352C43.7327 75.5352 49.6704 80.0528 51.8237 86.327C53.888 84.897 56.3891 84.0546 59.09 84.0546C66.1472 84.0546 71.8691 89.7765 71.8691 96.8338C71.8691 102.892 67.65 107.954 61.992 109.269C62.8469 110.598 63.3497 112.175 63.3497 113.873C63.3497 116.402 62.2411 118.667 60.4913 120.227C60.0259 120.247 59.5595 120.262 59.09 120.262C41.4452 120.262 27.142 105.959 27.142 88.3143Z" fill="#F0D365"/>
<path d="M67.6104 137.301C67.6104 138.477 68.564 139.431 69.7403 139.431C70.9165 139.431 71.8701 138.477 71.8701 137.301C71.8701 136.125 70.9165 135.171 69.7403 135.171C68.564 135.171 67.6104 136.125 67.6104 137.301Z" fill="#F0D365"/>
<path d="M56.961 129.849C56.961 132.201 58.8683 134.108 61.2207 134.108C63.5732 134.108 65.4805 132.201 65.4805 129.849C65.4805 127.496 63.5732 125.589 61.2207 125.589C58.8683 125.589 56.961 127.496 56.961 129.849Z" fill="#F0D365"/>
<path d="M38.8577 129.847C43.9302 129.847 48.5783 127.056 50.9937 122.648C52.2047 123.179 53.5125 123.458 54.8317 123.458C60.1158 123.458 64.4161 119.158 64.4161 113.873C64.4161 112.507 64.1244 111.165 63.5633 109.93C69.1454 108.039 72.9355 102.836 72.9355 96.8343C72.9355 89.2009 66.7248 82.9902 59.0914 82.9902C56.7146 82.9902 54.41 83.5928 52.3534 84.743C49.6745 78.5484 43.5532 74.4707 36.7278 74.4707C27.3332 74.4707 19.6889 82.115 19.6889 91.5096C19.6889 92.2709 19.7399 93.0337 19.8413 93.7877C12.5006 94.7585 6.90973 101.028 6.90973 108.549C6.90973 116.77 13.5973 123.458 21.8188 123.458C23.5025 123.458 25.1457 123.181 26.7165 122.633C29.1298 127.047 33.791 129.847 38.8577 129.847ZM50.52 120.148C50.4113 120.148 50.3016 120.165 50.196 120.199C49.9074 120.29 49.6719 120.501 49.5486 120.778C47.6616 124.993 43.4658 127.717 38.8577 127.717C34.287 127.717 30.1048 125.022 28.2042 120.849C27.9635 120.325 27.3468 120.085 26.8174 120.312C25.233 120.986 23.5514 121.328 21.8188 121.328C14.7719 121.328 9.0396 115.595 9.0396 108.549C9.0396 101.761 14.3539 96.1625 21.1371 95.8057C21.447 95.7886 21.7346 95.6383 21.9243 95.3924C22.1136 95.1474 22.1875 94.8313 22.1245 94.5276C21.9223 93.5381 21.8188 92.5236 21.8188 91.5096C21.8188 83.2881 28.5063 76.6006 36.7278 76.6006C43.0878 76.6006 48.751 80.6481 50.8179 86.6727C50.9266 86.9889 51.1757 87.2348 51.4934 87.3393C51.8116 87.4438 52.159 87.3924 52.4314 87.2031C54.398 85.8407 56.7016 85.12 59.0914 85.12C65.5502 85.12 70.8057 90.3755 70.8057 96.8343C70.8057 102.306 67.0826 106.993 61.7527 108.233C61.4152 108.311 61.1371 108.55 61.0071 108.87C60.8771 109.192 60.9114 109.556 61.0986 109.847C61.8749 111.054 62.2862 112.446 62.2862 113.873C62.2862 117.983 58.9422 121.328 54.8317 121.328C53.5135 121.328 52.2089 120.97 51.0597 120.293C50.8933 120.197 50.7072 120.148 50.52 120.148V120.148Z" fill="black"/>
<path d="M69.7407 140.495C71.5019 140.495 72.9355 139.061 72.9355 137.3C72.9355 135.539 71.5019 134.105 69.7407 134.105C67.9796 134.105 66.546 135.539 66.546 137.3C66.546 139.061 67.9796 140.495 69.7407 140.495ZM69.7407 136.235C70.3273 136.235 70.8057 136.713 70.8057 137.3C70.8057 137.888 70.3273 138.365 69.7407 138.365C69.1542 138.365 68.6758 137.888 68.6758 137.3C68.6758 136.713 69.1542 136.235 69.7407 136.235Z" fill="black"/>
<path d="M61.2203 135.171C64.1561 135.171 66.5449 132.782 66.5449 129.846C66.5449 126.91 64.1561 124.521 61.2203 124.521C58.2844 124.521 55.8956 126.91 55.8956 129.846C55.8956 132.782 58.2844 135.171 61.2203 135.171ZM61.2203 126.651C62.9815 126.651 64.4151 128.085 64.4151 129.846C64.4151 131.607 62.9815 133.041 61.2203 133.041C59.4591 133.041 58.0255 131.607 58.0255 129.846C58.0255 128.085 59.4591 126.651 61.2203 126.651Z" fill="black"/>
<path d="M23.9484 91.5087H26.0782C26.0782 85.6365 30.8553 80.8594 36.7275 80.8594V78.7295C29.6807 78.7295 23.9484 84.4618 23.9484 91.5087Z" fill="black"/>
<path d="M28.0234 102.187C27.7307 102.337 27.3988 102.455 27.0276 102.54C27.3988 102.626 27.7307 102.744 28.0234 102.894L32.6059 105.206C32.7487 105.285 32.8486 105.374 32.9057 105.474C32.97 105.574 33.0021 105.685 33.0021 105.806V107.305L24.6721 102.969V102.112L33.0021 97.7758V99.2748C33.0021 99.3961 32.97 99.5067 32.9057 99.6067C32.8486 99.7066 32.7487 99.7958 32.6059 99.8743L28.0234 102.187ZM38.1002 109.917C38.0003 110.189 37.8433 110.389 37.6291 110.517C37.415 110.653 37.1937 110.72 36.9653 110.72H36.0873L42.4686 94.7029C42.5686 94.4602 42.7113 94.2746 42.8969 94.1462C43.0896 94.0105 43.3109 93.9427 43.5607 93.9427H44.4494L38.1002 109.917ZM55.8539 102.112V102.969L47.524 107.305V105.806C47.524 105.685 47.5525 105.574 47.6096 105.474C47.6739 105.374 47.7774 105.285 47.9201 105.206L52.5027 102.894C52.7882 102.744 53.1201 102.626 53.4984 102.54C53.1201 102.455 52.7882 102.337 52.5027 102.187L47.9201 99.8743C47.7774 99.7958 47.6739 99.7066 47.6096 99.6067C47.5525 99.5067 47.524 99.3961 47.524 99.2748V97.7758L55.8539 102.112Z" fill="black"/>
</g>
<path d="M124.538 358.401C121.98 358.478 119.419 358.474 116.861 358.384C114.307 358.563 111.748 358.656 109.189 358.669L110.279 421.021C110.346 424.853 111.961 428.293 114.521 430.761C115.588 431.788 116.82 432.645 118.171 433.291C122.683 430.933 125.725 426.181 125.629 420.754L124.538 358.401Z" fill="#491352"/>
<path d="M109.174 357.865C111.894 358.141 114.622 358.311 117.352 358.397C120.078 358.216 122.798 357.951 125.507 357.581L125.036 330.636C122.313 330.758 119.588 330.754 116.866 330.628C114.152 330.85 111.428 330.947 108.703 330.921L109.174 357.865Z" fill="#ECCDFF"/>
<path d="M190.334 188.624C155.396 163.132 105.95 166.629 75.058 198.553C44.1621 230.48 42.388 279.922 69.1456 313.876C81.0737 322.575 94.6929 327.899 108.688 329.864C117.914 331.163 127.307 330.999 136.482 329.38C154.151 326.269 171.027 317.771 184.414 303.937C215.306 272.014 217.083 222.579 190.334 188.624V188.624Z" fill="#491352"/>
<path d="M169.363 192.984C196.939 219.559 197.709 263.566 171.079 291.085C144.449 318.604 100.35 319.372 72.774 292.797C45.1979 266.223 44.4282 222.215 71.058 194.697C97.6879 167.178 141.787 166.41 169.363 192.984Z" fill="#818080"/>
<path d="M177.197 199.605C149.731 180.813 111.788 183.969 87.9011 208.653C64.0142 233.338 62.1774 271.289 81.9561 298.025C109.422 316.818 147.365 313.661 171.252 288.977C195.139 264.293 196.975 226.341 177.197 199.605Z" fill="#B1D8E4"/>
<path d="M142.714 420.457L141.187 333.16C158.983 329.25 175.014 320.31 187.749 307.15C223.255 270.458 222.229 211.782 185.461 176.349C148.693 140.916 89.8941 141.94 54.3876 178.632C18.8811 215.324 19.9075 274 56.6755 309.433C69.8632 322.142 86.1965 330.518 104.118 333.806L104.54 357.935C104.54 357.94 104.54 357.943 104.539 357.947L105.645 421.103C105.732 426.046 107.741 430.657 111.301 434.089C114.862 437.52 119.55 439.363 124.501 439.276C129.453 439.191 134.075 437.188 137.516 433.632C140.957 430.076 142.802 425.397 142.714 420.457V420.457ZM113.411 335.041C119.589 335.549 125.789 335.441 131.943 334.718L132.268 353.273C126.112 353.889 119.909 353.997 113.736 353.596L113.411 335.041ZM61.0557 185.058C93.0118 152.035 145.93 151.113 179.022 183.003C212.113 214.893 213.037 267.701 181.081 300.724C168.789 313.425 153.089 321.759 135.675 324.825C126.961 326.363 118.098 326.517 109.335 325.283L109.334 325.285C91.8251 322.826 75.8427 315.044 63.1148 302.779C30.0233 270.889 29.0996 218.081 61.0557 185.058V185.058ZM124.341 430.028C121.865 430.07 119.521 429.15 117.74 427.434C115.96 425.719 114.957 423.413 114.912 420.942L113.898 362.869C120.072 363.231 126.271 363.124 132.43 362.546L133.446 420.62C133.489 423.09 132.568 425.428 130.848 427.206C129.127 428.984 126.818 429.984 124.341 430.028Z" fill="black"/>
<path d="M174.203 294.048C202.609 264.694 201.788 217.754 172.373 189.407C142.958 161.06 95.9199 161.88 67.5142 191.234C39.1085 220.588 39.9296 267.528 69.3445 295.874C98.7595 324.221 145.797 323.402 174.203 294.048ZM75.7838 289.22C50.0467 264.418 49.3282 223.343 74.1823 197.66C99.0363 171.976 140.196 171.259 165.933 196.061C191.671 220.864 192.389 261.938 167.535 287.622C142.681 313.306 101.521 314.023 75.7838 289.22Z" fill="black"/>
<path d="M152.212 220.212V220.212C152.192 217.184 149.976 214.62 146.983 214.16L144.011 213.703" stroke="black" stroke-width="2.78459"/>
<path d="M128.28 227.846L128.66 227.417C134.032 221.35 143.504 221.36 148.863 227.437V227.437" stroke="black" stroke-width="2.36759"/>
<path d="M105.799 243.265L106.544 247.969C107.517 254.117 113.43 258.205 119.535 256.95V256.95" stroke="black" stroke-width="5.09856"/>
<path d="M91.7434 221.01V221.01C91.6847 217.982 93.8326 215.361 96.8122 214.823L99.7707 214.289" stroke="black" stroke-width="2.78459"/>
<path d="M95.0762 228.534L95.4563 228.105C100.828 222.039 110.299 222.049 115.659 228.126V228.126" stroke="black" stroke-width="2.36759"/>
<path d="M169.647 218.949L174.055 224.49C182.8 235.484 182.939 251.014 174.391 262.152L172.768 264.267" stroke="black" stroke-width="4.07884"/>
<ellipse rx="2.74064" ry="2.74044" transform="matrix(0.720062 0.693909 -0.695406 0.718616 170.028 268.993)" fill="black"/>
<ellipse cx="152.495" cy="257.681" rx="8.47516" ry="7.85344" fill="#FABAFC"/>
<ellipse cx="87.1158" cy="258.889" rx="8.47514" ry="7.85344" fill="#FABAFC"/>
<path d="M169.444 318.092L233.613 292.115" stroke="black" stroke-width="1.207"/>
</g>
<defs>
<clipPath id="clip0">
<rect width="499.8" height="476" fill="white"/>
</clipPath>
<clipPath id="clip1">
<rect width="200.602" height="200.602" fill="white" transform="translate(234.159 144.601)"/>
</clipPath>
<clipPath id="clip2">
<rect width="72.1677" height="72.1677" fill="white" transform="translate(93.6641 68.3291)"/>
</clipPath>
<clipPath id="clip3">
<rect width="75.2387" height="70.5363" fill="white" transform="translate(174.277 79.9414)"/>
</clipPath>
<clipPath id="clip4">
<rect width="30.5657" height="28.6554" fill="white" transform="translate(197.79 97.5752)"/>
</clipPath>
<clipPath id="clip5">
<rect width="66.0258" height="66.0258" fill="white" transform="matrix(-1 0 0 1 72.9355 74.4707)"/>
</clipPath>
</defs>
</svg>
