<svg width="346" height="394" viewBox="0 0 346 394" fill="none" xmlns="http://www.w3.org/2000/svg">
<g clip-path="url(#clip0)">
<ellipse cx="252.5" cy="286.5" rx="69.5" ry="6.5" fill="#C4C4C4"/>
<ellipse cx="113.5" cy="365.5" rx="69.5" ry="6.5" fill="#C4C4C4"/>
<g clip-path="url(#clip1)">
<path d="M247.534 258.241H255.465V282.034C255.465 284.224 253.69 286 251.5 286C249.309 286 247.534 284.224 247.534 282.034V258.241V258.241Z" fill="#B19046"/>
<path d="M266.133 258.241L278.723 280.052C279.432 281.277 279.432 282.787 278.725 284.014C278.018 285.24 276.711 285.996 275.295 285.996C273.88 285.997 272.571 285.243 271.863 284.017L256.992 258.241H246.008L231.137 284.017C230.042 285.911 227.618 286.559 225.724 285.465C223.83 284.37 223.182 281.946 224.277 280.052L236.867 258.241L243.569 178.931C243.569 174.551 247.12 171 251.5 171C255.88 171 259.431 174.551 259.431 178.931L266.133 258.241Z" fill="#B19046"/>
<path d="M228.322 178.931H305.035C307.222 178.937 308.994 180.709 309 182.896V254.275C308.993 256.463 307.222 258.235 305.035 258.241H197.965C195.778 258.235 194.007 256.463 194 254.276V182.896C194.007 180.709 195.778 178.937 197.965 178.931H228.322V178.931Z" fill="#35495E"/>
<path d="M299.087 228.5H251.5C250.405 228.5 249.518 227.612 249.518 226.517C249.518 225.422 250.405 224.534 251.5 224.534H299.087C300.182 224.534 301.069 225.422 301.069 226.517C301.069 227.612 300.182 228.5 299.087 228.5Z" fill="#FF5364"/>
<path d="M299.087 236.432H251.5C250.405 236.432 249.518 235.544 249.518 234.449C249.518 233.353 250.405 232.466 251.5 232.466H299.087C300.182 232.466 301.069 233.353 301.069 234.449C301.069 235.544 300.182 236.432 299.087 236.432Z" fill="#F3D55B"/>
<path d="M299.087 244.363H251.5C250.405 244.363 249.518 243.476 249.518 242.38C249.518 241.285 250.405 240.397 251.5 240.397H299.087C300.182 240.397 301.069 241.285 301.069 242.38C301.069 243.476 300.182 244.363 299.087 244.363Z" fill="#2FA8CC"/>
<path d="M289.173 190.827V202.724H277.276C277.276 209.294 282.603 214.62 289.173 214.62C295.743 214.62 301.07 209.294 301.07 202.724C301.07 196.153 295.743 190.827 289.173 190.827Z" fill="white"/>
<path d="M251.5 216.603C250.405 216.603 249.518 215.716 249.518 214.62C249.518 213.525 250.405 212.638 251.5 212.638C262.029 212.638 269.65 200.794 269.65 192.81C269.65 191.715 270.538 190.827 271.633 190.827C272.728 190.827 273.616 191.715 273.616 192.81C273.616 203.587 263.751 216.603 251.5 216.603Z" fill="#FF5364"/>
<path d="M231.674 208.673L241.588 220.57V242.38L231.674 232.466L227.709 240.397H215.812L211.846 232.466L201.933 242.38V220.57L211.846 208.673H231.674Z" fill="#E64C3C"/>
<path d="M211.847 188.845C211.847 179.885 221.76 171 221.76 171C221.76 171 231.674 179.885 231.674 188.845H211.847Z" fill="#E64C3C"/>
<path d="M231.672 188.845H211.845V232.465H231.672V188.845Z" fill="#F0C419"/>
<path d="M231.673 224.534H211.845C210.75 224.534 209.862 223.646 209.862 222.551C209.862 221.456 210.75 220.568 211.845 220.568H231.673C232.768 220.568 233.656 221.456 233.656 222.551C233.656 223.646 232.768 224.534 231.673 224.534Z" fill="#E64C3C"/>
<path d="M226.417 240.397C226.618 240.941 226.718 241.517 226.715 242.097C226.715 244.918 221.758 252.294 221.758 252.294C221.758 252.294 216.801 244.918 216.801 242.097C216.797 241.517 216.898 240.942 217.098 240.397" fill="#F0C419"/>
<path d="M223.742 198.758H219.777C218.682 198.758 217.794 197.87 217.794 196.775C217.794 195.68 218.682 194.792 219.777 194.792H223.742C224.837 194.792 225.725 195.68 225.725 196.775C225.725 197.87 224.837 198.758 223.742 198.758Z" fill="white"/>
<path d="M223.742 206.689H219.777C218.682 206.689 217.794 205.802 217.794 204.706C217.794 203.611 218.682 202.724 219.777 202.724H223.742C224.837 202.724 225.725 203.611 225.725 204.706C225.725 205.802 224.837 206.689 223.742 206.689Z" fill="white"/>
<path d="M273.311 216.603H251.5C250.405 216.603 249.518 215.715 249.518 214.62V192.81C249.518 191.715 250.405 190.827 251.5 190.827C252.596 190.827 253.483 191.715 253.483 192.81V212.638H273.311C274.406 212.638 275.294 213.525 275.294 214.62C275.294 215.716 274.406 216.603 273.311 216.603Z" fill="#2FA8CC"/>
</g>
<path d="M113.75 72.908C112.598 74.6995 111.92 76.8254 111.92 79.1139C111.92 85.4559 117.062 90.5978 123.404 90.5978C125.527 90.5978 127.51 90.0104 129.216 89.006C131.905 95.0164 137.926 99.2107 144.937 99.2107C151.904 99.2107 157.892 95.0648 160.605 89.1133C162.847 90.0679 165.313 90.5978 167.904 90.5978C178.211 90.5978 186.566 82.2435 186.566 71.9365C186.566 61.9659 178.739 53.8451 168.897 53.3257C169.188 51.919 169.34 50.4617 169.34 48.9688C169.34 37.077 159.699 27.4365 147.807 27.4365C138.363 27.4365 130.359 33.5261 127.457 41.9834C124.674 40.0559 121.303 38.9204 117.662 38.9204C108.149 38.9204 100.437 46.6333 100.437 56.1462C100.437 64.3126 106.124 71.1354 113.75 72.908V72.908Z" fill="#D1A339"/>
<path d="M160.728 44.6633C160.728 39.5571 159.833 34.6612 158.203 30.1164C155.119 28.4125 151.579 27.4375 147.808 27.4375C138.364 27.4375 130.36 33.5271 127.458 41.9844C124.675 40.0569 121.304 38.9214 117.663 38.9214C108.15 38.9214 100.438 46.6343 100.438 56.1472C100.438 64.3136 106.125 71.1363 113.751 72.909C112.599 74.7005 111.921 76.8264 111.921 79.1149C111.921 82.5242 113.416 85.5774 115.774 87.6802C116.402 87.7075 117.03 87.7278 117.663 87.7278C141.448 87.7278 160.728 68.4476 160.728 44.6633Z" fill="#F0D365"/>
<path d="M144.935 100.645C138.098 100.645 131.832 96.8826 128.577 90.9416C126.944 91.6573 125.181 92.0323 123.403 92.0323C116.28 92.0323 110.484 86.2371 110.484 79.1129C110.484 77.2709 110.877 75.4625 111.633 73.7971C104.109 71.2493 99 64.2359 99 56.1452C99 45.8557 107.372 37.4839 117.661 37.4839C120.865 37.4839 123.972 38.2962 126.744 39.8467C130.355 31.4966 138.606 26 147.806 26C160.47 26 170.774 36.3042 170.774 48.9677C170.774 49.9939 170.706 51.0221 170.569 52.0385C180.464 53.3471 188 61.7981 188 71.9355C188 83.0177 178.985 92.0323 167.903 92.0323C165.634 92.0323 163.419 91.6594 161.301 90.9213C158.048 96.87 151.765 100.645 144.935 100.645ZM129.215 87.5709C129.362 87.5709 129.51 87.594 129.652 87.6396C130.041 87.763 130.358 88.0475 130.525 88.4204C133.068 94.1021 138.724 97.7742 144.935 97.7742C151.097 97.7742 156.734 94.1413 159.296 88.5164C159.62 87.8092 160.452 87.4861 161.165 87.7917C163.301 88.7008 165.568 89.1613 167.903 89.1613C177.402 89.1613 185.129 81.4344 185.129 71.9355C185.129 62.7857 177.966 55.2396 168.822 54.7587C168.404 54.7356 168.017 54.533 167.761 54.2015C167.506 53.8714 167.406 53.4452 167.491 53.0359C167.764 51.702 167.903 50.3345 167.903 48.9677C167.903 37.8855 158.889 28.871 147.806 28.871C139.233 28.871 131.6 34.3269 128.814 42.4478C128.667 42.8739 128.331 43.2055 127.903 43.3464C127.474 43.4873 127.006 43.4179 126.639 43.1627C123.988 41.3263 120.883 40.3548 117.661 40.3548C108.955 40.3548 101.871 47.439 101.871 56.1452C101.871 63.5209 106.89 69.8383 114.074 71.5107C114.529 71.6152 114.904 71.9369 115.079 72.3687C115.254 72.8025 115.208 73.2932 114.956 73.6857C113.909 75.3132 113.355 77.1896 113.355 79.1129C113.355 84.6523 117.862 89.1613 123.403 89.1613C125.18 89.1613 126.939 88.6791 128.488 87.7672C128.712 87.6368 128.963 87.5709 129.215 87.5709V87.5709Z" fill="black"/>
<path d="M165.03 48.968H162.16C162.16 41.0525 155.72 34.6132 147.805 34.6132V31.7422C157.304 31.7422 165.03 39.4691 165.03 48.968Z" fill="black"/>
<path d="M143.375 67.1903C144.665 67.0561 145.651 66.6382 146.332 65.9365C147.013 65.2245 147.353 64.3165 147.353 63.2124C147.353 62.7274 147.26 62.3095 147.075 61.9586C146.899 61.6078 146.657 61.3034 146.347 61.0454C146.038 60.7771 145.671 60.5501 145.248 60.3644C144.835 60.1786 144.392 60.0084 143.917 59.8536L143.375 67.1903ZM142.756 49.7153C142.106 49.7772 141.544 49.9062 141.069 50.1023C140.605 50.2983 140.218 50.5408 139.908 50.8298C139.609 51.1187 139.387 51.4489 139.243 51.8204C139.098 52.1918 139.026 52.5788 139.026 52.9812C139.026 53.4456 139.108 53.8532 139.274 54.204C139.439 54.5549 139.666 54.8644 139.955 55.1327C140.254 55.3907 140.6 55.6177 140.992 55.8138C141.394 56.0098 141.822 56.1904 142.276 56.3555L142.756 49.7153ZM144.118 56.9591C144.861 57.1862 145.594 57.439 146.316 57.7176C147.049 57.9859 147.704 58.3315 148.282 58.7546C148.86 59.1777 149.324 59.7091 149.675 60.3489C150.036 60.9783 150.217 61.7729 150.217 62.7325C150.217 63.6612 150.057 64.5383 149.737 65.3638C149.427 66.1893 148.973 66.9168 148.375 67.5463C147.776 68.1757 147.038 68.6865 146.161 69.0786C145.295 69.4707 144.304 69.7029 143.19 69.7751L143.004 72.36C142.993 72.5664 142.911 72.7521 142.756 72.9172C142.601 73.0823 142.405 73.1649 142.168 73.1649H141.054L141.301 69.7287C140.073 69.5946 138.938 69.2798 137.896 68.7845C136.854 68.2789 135.961 67.6443 135.218 66.8807L136.131 65.4877C136.224 65.3638 136.338 65.2606 136.472 65.1781C136.606 65.0955 136.756 65.0543 136.921 65.0543C137.127 65.0543 137.354 65.1471 137.602 65.3329C137.86 65.5186 138.164 65.7353 138.515 65.983C138.866 66.2203 139.279 66.4576 139.753 66.695C140.238 66.922 140.816 67.0819 141.487 67.1748L142.06 59.2964C141.337 59.0797 140.625 58.8372 139.924 58.5689C139.222 58.2903 138.592 57.9291 138.035 57.4854C137.478 57.0314 137.029 56.469 136.689 55.7983C136.348 55.1275 136.178 54.2866 136.178 53.2753C136.178 52.5117 136.328 51.7688 136.627 51.0464C136.926 50.3241 137.359 49.6792 137.927 49.1117C138.505 48.5441 139.212 48.0798 140.047 47.7186C140.894 47.3575 141.858 47.1562 142.942 47.115L143.097 44.948C143.107 44.7416 143.19 44.5559 143.344 44.3908C143.499 44.2257 143.695 44.1431 143.932 44.1431H145.047L144.83 47.1924C145.914 47.3368 146.848 47.6258 147.632 48.0591C148.426 48.4822 149.123 48.993 149.721 49.5915L148.994 50.7059C148.777 51.0464 148.524 51.2167 148.235 51.2167C148.091 51.2167 147.91 51.1548 147.694 51.031C147.487 50.9071 147.235 50.7678 146.935 50.6131C146.646 50.448 146.311 50.2829 145.929 50.1178C145.547 49.9527 145.119 49.8288 144.645 49.7463L144.118 56.9591Z" fill="black"/>
<path d="M113.177 116.692C113.177 118.278 111.892 119.563 110.307 119.563C108.721 119.563 107.436 118.278 107.436 116.692C107.436 115.107 108.721 113.821 110.307 113.821C111.892 113.821 113.177 115.107 113.177 116.692Z" fill="#F0D365"/>
<path d="M128.532 106.646C128.532 109.817 125.961 112.388 122.79 112.388C119.619 112.388 117.048 109.817 117.048 106.646C117.048 103.475 119.619 100.904 122.79 100.904C125.961 100.904 128.532 103.475 128.532 106.646Z" fill="#F0D365"/>
<path d="M110.306 121.001C107.932 121.001 106 119.068 106 116.694C106 114.32 107.932 112.388 110.306 112.388C112.68 112.388 114.613 114.32 114.613 116.694C114.613 119.068 112.68 121.001 110.306 121.001ZM110.306 115.259C109.516 115.259 108.871 115.902 108.871 116.694C108.871 117.486 109.516 118.13 110.306 118.13C111.097 118.13 111.742 117.486 111.742 116.694C111.742 115.902 111.097 115.259 110.306 115.259Z" fill="black"/>
<path d="M123.177 114.355C119.22 114.355 116 111.135 116 107.177C116 103.22 119.22 100 123.177 100C127.135 100 130.355 103.22 130.355 107.177C130.355 111.135 127.135 114.355 123.177 114.355ZM123.177 102.871C120.803 102.871 118.871 104.803 118.871 107.177C118.871 109.551 120.803 111.484 123.177 111.484C125.551 111.484 127.484 109.551 127.484 107.177C127.484 104.803 125.551 102.871 123.177 102.871Z" fill="black"/>
<g clip-path="url(#clip2)">
<path d="M195.26 117.53C194.224 119.039 193.615 120.831 193.615 122.759C193.615 128.104 198.237 132.437 203.937 132.437C205.846 132.437 207.627 131.942 209.161 131.095C211.578 136.16 216.99 139.695 223.292 139.695C229.555 139.695 234.937 136.201 237.376 131.186C239.391 131.99 241.608 132.437 243.937 132.437C253.202 132.437 260.711 125.397 260.711 116.711C260.711 108.309 253.676 101.465 244.83 101.028C245.091 99.8422 245.227 98.6142 245.227 97.3561C245.227 87.3349 236.562 79.2109 225.873 79.2109C217.383 79.2109 210.189 84.3426 207.58 91.4696C205.079 89.8452 202.048 88.8884 198.776 88.8884C190.225 88.8884 183.292 95.388 183.292 103.404C183.292 110.286 188.404 116.036 195.26 117.53V117.53Z" fill="#D1A339"/>
<path d="M237.485 93.7271C237.485 89.4241 236.681 85.2983 235.215 81.4685C232.443 80.0325 229.261 79.2109 225.872 79.2109C217.382 79.2109 210.188 84.3426 207.579 91.4696C205.078 89.8452 202.047 88.8884 198.775 88.8884C190.224 88.8884 183.291 95.388 183.291 103.404C183.291 110.286 188.403 116.036 195.259 117.53C194.223 119.039 193.614 120.831 193.614 122.759C193.614 125.632 194.957 128.205 197.077 129.977C197.641 130 198.206 130.017 198.775 130.017C220.154 130.017 237.485 113.77 237.485 93.7271Z" fill="#F0D365"/>
<path d="M188.449 149.369C188.449 150.705 187.294 151.788 185.869 151.788C184.444 151.788 183.288 150.705 183.288 149.369C183.288 148.032 184.444 146.949 185.869 146.949C187.294 146.949 188.449 148.032 188.449 149.369Z" fill="#F0D365"/>
<path d="M201.352 140.904C201.352 143.576 199.041 145.743 196.191 145.743C193.34 145.743 191.029 143.576 191.029 140.904C191.029 138.232 193.34 136.065 196.191 136.065C199.041 136.065 201.352 138.232 201.352 140.904Z" fill="#F0D365"/>
<path d="M223.29 140.903C217.144 140.903 211.512 137.733 208.586 132.726C207.118 133.329 205.534 133.645 203.935 133.645C197.533 133.645 192.323 128.762 192.323 122.758C192.323 121.206 192.676 119.682 193.356 118.278C186.592 116.131 182 110.221 182 103.403C182 94.7323 189.525 87.6774 198.774 87.6774C201.654 87.6774 204.446 88.362 206.938 89.6685C210.184 82.632 217.601 78 225.871 78C237.254 78 246.516 86.6833 246.516 97.3548C246.516 98.2196 246.454 99.0861 246.332 99.9425C255.226 101.045 262 108.167 262 116.71C262 126.049 253.897 133.645 243.935 133.645C241.895 133.645 239.904 133.331 238.001 132.709C235.077 137.722 229.429 140.903 223.29 140.903ZM209.16 129.886C209.291 129.886 209.424 129.905 209.552 129.943C209.902 130.047 210.187 130.287 210.337 130.601C212.623 135.389 217.707 138.484 223.29 138.484C228.828 138.484 233.896 135.422 236.199 130.682C236.49 130.086 237.238 129.814 237.879 130.072C239.799 130.838 241.836 131.226 243.935 131.226C252.474 131.226 259.419 124.714 259.419 116.71C259.419 108.999 252.98 102.64 244.761 102.235C244.386 102.215 244.038 102.045 243.808 101.765C243.578 101.487 243.489 101.128 243.565 100.783C243.81 99.659 243.935 98.5066 243.935 97.3548C243.935 88.0159 235.833 80.4194 225.871 80.4194C218.165 80.4194 211.303 85.0171 208.799 91.8605C208.667 92.2196 208.365 92.499 207.98 92.6177C207.595 92.7364 207.174 92.678 206.844 92.463C204.461 90.9154 201.67 90.0968 198.774 90.0968C190.948 90.0968 184.581 96.0666 184.581 103.403C184.581 109.619 189.092 114.942 195.55 116.352C195.959 116.44 196.296 116.711 196.453 117.075C196.611 117.44 196.569 117.854 196.342 118.185C195.402 119.556 194.903 121.137 194.903 122.758C194.903 127.426 198.955 131.226 203.935 131.226C205.533 131.226 207.113 130.819 208.506 130.051C208.707 129.941 208.933 129.886 209.16 129.886V129.886Z" fill="black"/>
<path d="M185.871 153C183.737 153 182 151.372 182 149.371C182 147.371 183.737 145.742 185.871 145.742C188.005 145.742 189.742 147.371 189.742 149.371C189.742 151.372 188.005 153 185.871 153ZM185.871 148.162C185.16 148.162 184.581 148.704 184.581 149.371C184.581 150.039 185.16 150.581 185.871 150.581C186.582 150.581 187.161 150.039 187.161 149.371C187.161 148.704 186.582 148.162 185.871 148.162Z" fill="black"/>
<path d="M196.193 146.951C192.636 146.951 189.741 144.238 189.741 140.903C189.741 137.568 192.636 134.854 196.193 134.854C199.75 134.854 202.644 137.568 202.644 140.903C202.644 144.238 199.75 146.951 196.193 146.951ZM196.193 137.274C194.059 137.274 192.322 138.902 192.322 140.903C192.322 142.903 194.059 144.532 196.193 144.532C198.327 144.532 200.064 142.903 200.064 140.903C200.064 138.902 198.327 137.274 196.193 137.274Z" fill="black"/>
<path d="M241.354 97.355H238.773C238.773 90.6846 232.985 85.2582 225.87 85.2582V82.8389C234.408 82.8389 241.354 89.3503 241.354 97.355Z" fill="black"/>
<g clip-path="url(#clip3)">
<path d="M227.058 98.623C226.45 98.5604 225.835 98.5244 225.21 98.5466C220.334 98.7114 216.062 101.428 213.69 103.915L213.689 116.211L214.517 116.299C217.012 116.566 218.738 117.309 219.651 118.51C220.658 119.838 220.39 121.395 220.284 121.841C219.931 123.324 220.863 124.833 222.46 125.121C223.363 125.284 224.271 125.364 225.172 125.364C225.806 125.364 226.435 125.31 227.058 125.232C234.112 124.349 239.558 118.724 239.5 111.876C239.436 104.594 233.161 99.2508 227.058 98.623V98.623Z" fill="white"/>
<path d="M239.499 111.878C239.435 104.596 233.16 99.2528 227.058 98.625V125.234C234.111 124.351 239.557 118.726 239.499 111.878Z" fill="white"/>
<path d="M228.517 108.829C227.404 107.784 227.404 106.085 228.517 105.041C229.632 103.997 231.444 103.997 232.558 105.041C233.671 106.085 233.671 107.784 232.558 108.829V108.829C231.444 109.872 229.631 109.872 228.517 108.829V108.829Z" fill="#88FE12"/>
<path d="M220.423 105.778C220.018 104.367 220.902 102.886 222.443 102.499C223.96 102.118 225.533 102.966 225.941 104.393C226.35 105.82 225.447 107.289 223.921 107.672C222.392 108.056 220.83 107.206 220.423 105.778V105.778Z" fill="#4226EB"/>
<path d="M217.057 112.722C215.535 112.34 214.629 110.868 215.037 109.443C215.443 108.021 217.002 107.164 218.534 107.55C220.06 107.932 220.965 109.398 220.555 110.829C220.145 112.264 218.575 113.104 217.057 112.722V112.722Z" fill="#FF435B"/>
<path d="M231.773 116.418C230.251 116.036 229.342 114.572 229.753 113.139C230.162 111.705 231.732 110.863 233.251 111.245C234.773 111.628 235.679 113.099 235.271 114.525C234.863 115.955 233.295 116.802 231.773 116.418V116.418Z" fill="#99341F"/>
<path d="M212.776 96.75C210.416 96.75 209.92 105.062 209.92 111.984C209.92 112.295 209.924 112.581 209.927 112.877L211.943 113.769H212.776H214.125L215.626 112.877C215.629 112.581 215.633 112.3 215.633 111.984C215.633 105.062 215.137 96.75 212.776 96.75V96.75Z" fill="#B35324"/>
<path d="M215.626 112.877C215.628 112.581 215.632 112.3 215.632 111.984C215.632 105.062 215.136 96.75 212.775 96.75V113.769H214.124L215.626 112.877Z" fill="#99341F"/>
<path d="M212.776 112.877H209.927C209.961 116.824 210.202 119.418 210.216 119.656H212.776H215.337C215.362 119.22 215.595 116.995 215.627 112.877H212.776Z" fill="#FFF7E6"/>
<path d="M215.626 112.877H212.775V119.656H215.336C215.361 119.22 215.594 116.995 215.626 112.877V112.877Z" fill="#FFCCB3"/>
<path d="M212.776 118.232C210.676 118.232 208.968 119.834 208.968 121.803V123.588C208.968 124.572 208.05 125.433 207 125.433V127.218H210.872C211.543 127.218 212.178 127.089 212.776 126.889C214.988 126.15 216.585 124.127 216.585 121.803C216.585 119.834 214.877 118.232 212.776 118.232Z" fill="#474F54"/>
<path d="M216.584 121.803C216.584 119.834 214.876 118.232 212.775 118.232V126.889C214.987 126.15 216.584 124.127 216.584 121.803Z" fill="#32393F"/>
<path d="M227.059 121.803C228.636 121.803 229.915 120.604 229.915 119.125C229.915 117.646 228.636 116.447 227.059 116.447C225.481 116.447 224.202 117.646 224.202 119.125C224.202 120.604 225.481 121.803 227.059 121.803Z" fill="#E64C3C"/>
<path d="M229.914 119.125C229.914 117.646 228.635 116.447 227.058 116.447V121.803C228.635 121.803 229.914 120.604 229.914 119.125Z" fill="#E64C3C"/>
</g>
</g>
<path d="M72.9133 79.7989C74.0138 81.5099 74.6612 83.5403 74.6612 85.7259C74.6612 91.7828 69.7503 96.6937 63.6934 96.6937C61.6658 96.6937 59.7726 96.1327 58.1426 95.1734C55.5747 100.914 49.8244 104.919 43.1289 104.919C36.4742 104.919 30.7561 100.96 28.1647 95.2758C26.0233 96.1876 23.6683 96.6937 21.1934 96.6937C11.3496 96.6937 3.37083 88.7149 3.37083 78.8711C3.37083 69.3486 10.8456 61.5927 20.2449 61.0967C19.9677 59.7532 19.8224 58.3615 19.8224 56.9356C19.8224 45.5783 29.0296 36.3711 40.387 36.3711C49.4067 36.3711 57.0508 42.187 59.8228 50.2642C62.4804 48.4233 65.7003 47.3388 69.1773 47.3388C78.2626 47.3388 85.6289 54.7051 85.6289 63.7904C85.6289 71.5898 80.1972 78.1059 72.9133 79.7989V79.7989Z" fill="#D1A339"/>
<path d="M28.0473 52.8227C28.0473 47.946 28.9015 43.2701 30.4585 38.9296C33.404 37.3023 36.7845 36.3711 40.386 36.3711C49.4057 36.3711 57.0498 42.187 59.8219 50.2642C62.4795 48.4233 65.6994 47.3388 69.1763 47.3388C78.2617 47.3388 85.6279 54.7051 85.6279 63.7904C85.6279 71.5898 80.1963 78.1059 72.9123 79.7989C74.0129 81.5099 74.6602 83.5403 74.6602 85.7259C74.6602 88.982 73.233 91.898 70.9804 93.9062C70.3813 93.9323 69.7808 93.9517 69.1763 93.9517C46.461 93.9517 28.0473 75.5381 28.0473 52.8227Z" fill="#F0D365"/>
<path d="M80.146 115.885C80.146 117.4 81.3737 118.627 82.8879 118.627C84.4022 118.627 85.6299 117.4 85.6299 115.885C85.6299 114.371 84.4022 113.144 82.8879 113.144C81.3737 113.144 80.146 114.371 80.146 115.885Z" fill="#F0D365"/>
<path d="M66.4366 106.291C66.4366 109.319 68.892 111.774 71.9204 111.774C74.9489 111.774 77.4043 109.319 77.4043 106.291C77.4043 103.262 74.9489 100.807 71.9204 100.807C68.892 100.807 66.4366 103.262 66.4366 106.291Z" fill="#F0D365"/>
<path d="M43.129 106.29C49.6592 106.29 55.6431 102.697 58.7526 97.0229C60.3116 97.7064 61.9952 98.0645 63.6935 98.0645C70.4962 98.0645 76.0323 92.5298 76.0323 85.7258C76.0323 83.9666 75.6567 82.2395 74.9344 80.6489C82.1206 78.2156 87 71.5174 87 63.7903C87 53.9633 79.0045 45.9677 69.1774 45.9677C66.1175 45.9677 63.1507 46.7436 60.5031 48.2244C57.0543 40.2496 49.1739 35 40.3871 35C28.2927 35 18.4516 44.8411 18.4516 56.9355C18.4516 57.9155 18.5172 58.8975 18.6478 59.8682C9.19758 61.118 2 69.1892 2 78.871C2 89.4551 10.6094 98.0645 21.1935 98.0645C23.3611 98.0645 25.4765 97.7084 27.4988 97.0035C30.6056 102.685 36.6062 106.29 43.129 106.29ZM58.1427 93.8037C58.0028 93.8037 57.8616 93.8258 57.7257 93.8693C57.3542 93.9871 57.0509 94.2589 56.8923 94.615C54.4629 100.041 49.0614 103.548 43.129 103.548C37.2448 103.548 31.8607 100.079 29.414 94.7067C29.1041 94.0313 28.3101 93.7227 27.6287 94.0145C25.5889 94.8828 23.424 95.3226 21.1935 95.3226C12.1216 95.3226 4.74194 87.9429 4.74194 78.871C4.74194 70.1324 11.5834 62.9254 20.3159 62.4662C20.7149 62.4441 21.0851 62.2507 21.3294 61.934C21.5731 61.6187 21.6682 61.2117 21.5872 60.8208C21.3268 59.5469 21.1935 58.2409 21.1935 56.9355C21.1935 46.3513 29.8029 37.7419 40.3871 37.7419C48.5747 37.7419 55.8654 42.9527 58.5263 50.7086C58.6662 51.1156 58.9869 51.4322 59.3959 51.5668C59.8056 51.7013 60.2527 51.635 60.6035 51.3914C63.1353 49.6375 66.1008 48.7097 69.1774 48.7097C77.4923 48.7097 84.2581 55.4755 84.2581 63.7903C84.2581 70.8346 79.465 76.8681 72.6035 78.4653C72.169 78.565 71.8109 78.8723 71.6436 79.2847C71.4762 79.699 71.5204 80.1676 71.7614 80.5425C72.7608 82.0969 73.2903 83.8889 73.2903 85.7258C73.2903 91.0162 68.9853 95.3226 63.6935 95.3226C61.9966 95.3226 60.317 94.862 58.8376 93.9911C58.6234 93.8666 58.3837 93.8037 58.1427 93.8037V93.8037Z" fill="black"/>
<path d="M82.8871 119.999C85.1544 119.999 87 118.154 87 115.886C87 113.619 85.1544 111.773 82.8871 111.773C80.6198 111.773 78.7742 113.619 78.7742 115.886C78.7742 118.154 80.6198 119.999 82.8871 119.999ZM82.8871 114.515C83.6422 114.515 84.2581 115.13 84.2581 115.886C84.2581 116.643 83.6422 117.257 82.8871 117.257C82.132 117.257 81.5161 116.643 81.5161 115.886C81.5161 115.13 82.132 114.515 82.8871 114.515Z" fill="black"/>
<path d="M71.9186 113.143C75.6981 113.143 78.7734 110.068 78.7734 106.288C78.7734 102.509 75.6981 99.4336 71.9186 99.4336C68.1391 99.4336 65.0638 102.509 65.0638 106.288C65.0638 110.068 68.1391 113.143 71.9186 113.143ZM71.9186 102.176C74.1859 102.176 76.0315 104.021 76.0315 106.288C76.0315 108.556 74.1859 110.401 71.9186 110.401C69.6513 110.401 67.8057 108.556 67.8057 106.288C67.8057 104.021 69.6513 102.176 71.9186 102.176Z" fill="black"/>
<path d="M23.9361 56.935H26.678C26.678 49.3753 32.828 43.2253 40.3877 43.2253V40.4834C31.3157 40.4834 23.9361 47.8631 23.9361 56.935Z" fill="black"/>
<path d="M29.1817 70.6466C28.805 70.8395 28.3777 70.9912 27.8998 71.1014C28.3777 71.2117 28.805 71.3633 29.1817 71.5563L35.0812 74.5336C35.265 74.6347 35.3936 74.7496 35.4671 74.8782C35.5498 75.0068 35.5912 75.1493 35.5912 75.3055V77.2352L24.8674 71.6528V70.5501L35.5912 64.9677V66.8974C35.5912 67.0536 35.5498 67.196 35.4671 67.3247C35.3936 67.4533 35.265 67.5682 35.0812 67.6693L29.1817 70.6466ZM42.1544 80.5985C42.0258 80.9477 41.8236 81.205 41.5479 81.3704C41.2723 81.545 40.9874 81.6323 40.6933 81.6323H39.5631L47.7782 61.0117C47.9069 60.6993 48.0906 60.4604 48.3296 60.295C48.5777 60.1204 48.8625 60.0331 49.1842 60.0331H50.3282L42.1544 80.5985ZM65.0101 70.5501V71.6528L54.2863 77.2352V75.3055C54.2863 75.1493 54.3231 75.0068 54.3966 74.8782C54.4793 74.7496 54.6125 74.6347 54.7963 74.5336L60.6958 71.5563C61.0633 71.3633 61.4906 71.2117 61.9777 71.1014C61.4906 70.9912 61.0633 70.8395 60.6958 70.6466L54.7963 67.6693C54.6125 67.5682 54.4793 67.4533 54.3966 67.3247C54.3231 67.196 54.2863 67.0536 54.2863 66.8974V64.9677L65.0101 70.5501Z" fill="black"/>
<path d="M110.91 298.863C108.797 298.927 106.682 298.923 104.568 298.849C102.459 298.997 100.345 299.074 98.2315 299.084L99.1323 350.692C99.1877 353.863 100.521 356.71 102.636 358.752C103.517 359.603 104.535 360.312 105.651 360.847C109.377 358.895 111.89 354.962 111.81 350.47L110.91 298.863Z" fill="#491352"/>
<path d="M98.219 298.42C100.466 298.648 102.719 298.788 104.974 298.86C107.225 298.71 109.471 298.491 111.709 298.184L111.32 275.883C109.071 275.984 106.821 275.981 104.573 275.876C102.331 276.06 100.081 276.141 97.8297 276.119L98.219 298.42Z" fill="#ECCDFF"/>
<path d="M165.254 158.344C136.396 137.245 95.5571 140.14 70.042 166.562C44.5236 192.987 43.0583 233.908 65.1587 262.011C75.0106 269.211 86.2593 273.617 97.8181 275.244C105.438 276.318 113.196 276.183 120.775 274.843C135.368 272.268 149.307 265.234 160.364 253.785C185.879 227.363 187.347 186.447 165.254 158.344V158.344Z" fill="#491352"/>
<path d="M147.932 161.953C170.708 183.948 171.344 220.371 149.349 243.147C127.354 265.924 90.9309 266.56 68.1546 244.565C45.3784 222.57 44.7426 186.147 66.7374 163.37C88.7322 140.594 125.156 139.958 147.932 161.953Z" fill="white"/>
<path d="M154.403 167.433C131.718 151.879 100.379 154.491 80.6496 174.922C60.9204 195.352 59.4033 226.763 75.7394 248.891C98.4244 264.445 129.763 261.833 149.493 241.403C169.222 220.972 170.739 189.561 154.403 167.433Z" fill="#B1D8E4"/>
<path d="M125.921 350.225L124.66 277.972C139.359 274.735 152.599 267.336 163.117 256.444C192.444 226.076 191.596 177.511 161.228 148.185C130.859 118.858 82.295 119.706 52.9685 150.074C23.6421 180.443 24.4898 229.007 54.8582 258.334C65.7505 268.852 79.2409 275.785 94.0432 278.507L94.3918 298.477C94.3919 298.482 94.3919 298.484 94.3909 298.487L95.3044 350.759C95.3758 354.85 97.0351 358.667 99.976 361.507C102.917 364.347 106.789 365.872 110.878 365.8C114.968 365.73 118.786 364.072 121.628 361.129C124.47 358.186 125.994 354.313 125.921 350.225V350.225ZM101.719 279.528C106.821 279.949 111.942 279.86 117.025 279.261L117.293 294.618C112.209 295.128 107.086 295.217 101.987 294.886L101.719 279.528ZM58.476 155.393C84.87 128.061 128.578 127.298 155.909 153.692C183.241 180.086 184.004 223.794 157.61 251.126C147.458 261.638 134.49 268.535 120.108 271.073C112.91 272.346 105.59 272.474 98.3523 271.453L98.3512 271.454C83.8898 269.419 70.6892 262.978 60.1767 252.826C32.8449 226.432 32.082 182.725 58.476 155.393V155.393ZM110.747 358.146C108.701 358.181 106.765 357.419 105.294 355.999C103.824 354.579 102.995 352.671 102.959 350.625L102.121 302.561C107.22 302.86 112.34 302.772 117.427 302.294L118.266 350.359C118.302 352.404 117.541 354.339 116.12 355.81C114.699 357.282 112.792 358.109 110.747 358.146Z" fill="black"/>
<path d="M152.103 245.807C175.564 221.511 174.886 182.661 150.591 159.199C126.296 135.738 87.445 136.416 63.9834 160.711C40.5219 185.006 41.2 223.857 65.4952 247.318C89.7903 270.78 128.641 270.102 152.103 245.807ZM70.8136 241.811C49.5562 221.283 48.9628 187.287 69.4909 166.029C90.019 144.772 124.015 144.179 145.272 164.707C166.53 185.235 167.123 219.231 146.595 240.488C126.067 261.746 92.0711 262.339 70.8136 241.811Z" fill="black"/>
<path d="M133.851 184.5V184.5C133.834 181.991 131.998 179.867 129.518 179.486L127.056 179.107" stroke="black" stroke-width="2.30703"/>
<path d="M114 190.808L114.314 190.452C118.748 185.435 126.577 185.443 131 190.469V190.469" stroke="black" stroke-width="1.96154"/>
<path d="M95.4328 203.57L96.0494 207.471C96.8527 212.553 101.738 215.935 106.778 214.896V214.896" stroke="black" stroke-width="4.22414"/>
<path d="M83.8385 185.159V185.159C83.7899 182.651 85.5695 180.479 88.0381 180.033L90.4893 179.59" stroke="black" stroke-width="2.30703"/>
<path d="M86.5752 191.378L86.8891 191.023C91.3228 186.005 99.1519 186.013 103.575 191.04V191.04" stroke="black" stroke-width="1.96154"/>
<path d="M148.168 183.443L151.813 188.035C159.036 197.134 159.148 209.98 152.084 219.204L150.745 220.951" stroke="black" stroke-width="3.37931"/>
<circle cx="148.482" cy="224.863" r="2.2659" transform="rotate(44 148.482 224.863)" fill="black"/>
<ellipse cx="134" cy="215.5" rx="7" ry="6.5" fill="#FABAFC"/>
<ellipse cx="80" cy="216.5" rx="7" ry="6.5" fill="#FABAFC"/>
<path d="M148 265.5L201 244" stroke="black"/>
</g>
<defs>
<clipPath id="clip0">
<rect width="346" height="394" fill="white"/>
</clipPath>
<clipPath id="clip1">
<rect width="115" height="115" fill="white" transform="translate(194 171)"/>
</clipPath>
<clipPath id="clip2">
<rect width="80" height="75" fill="white" transform="translate(182 78)"/>
</clipPath>
<clipPath id="clip3">
<rect width="32.5" height="30.4688" fill="white" transform="translate(207 96.75)"/>
</clipPath>
</defs>
</svg>
