<svg width="500" height="476" viewBox="0 0 500 476" fill="none" xmlns="http://www.w3.org/2000/svg">
<g clip-path="url(#clip0)">
<ellipse cx="329.18" cy="345.659" rx="100.393" ry="7.85279" fill="#C4C4C4"/>
<ellipse cx="163.951" cy="441.568" rx="100.393" ry="7.85281" fill="#C4C4C4"/>
<g clip-path="url(#clip1)">
<path d="M353.494 284.365H371.345V337.918C371.345 342.848 367.349 346.844 362.42 346.844C357.49 346.844 353.494 342.848 353.494 337.918V284.365V284.365Z" fill="#B19046"/>
<path d="M395.356 284.364L423.695 333.454C425.289 336.213 425.291 339.612 423.699 342.372C422.108 345.131 419.164 346.833 415.978 346.835C412.792 346.837 409.848 345.138 408.253 342.38L374.782 284.364H350.058L316.588 342.38C314.123 346.644 308.668 348.102 304.404 345.638C300.141 343.173 298.682 337.718 301.147 333.454L329.485 284.364L344.57 105.853C344.57 95.9942 352.562 88.002 362.421 88.002C372.279 88.002 380.272 95.9942 380.272 105.853L395.356 284.364Z" fill="#B19046"/>
<path d="M310.25 105.851H482.914C487.838 105.865 491.826 109.853 491.84 114.776V275.436C491.825 280.359 487.838 284.347 482.914 284.361H241.924C237.001 284.347 233.014 280.359 232.999 275.436V114.777C233.014 109.853 237.001 105.865 241.924 105.851H310.25V105.851Z" fill="#35495E"/>
<path d="M289.617 137.218L285.405 150.303H283.396C283.156 150.303 282.993 150.144 282.907 149.826L280.151 141.301C280.082 141.086 280.022 140.876 279.971 140.67C279.919 140.455 279.872 140.241 279.829 140.026C279.752 140.472 279.644 140.906 279.507 141.327L276.713 149.826C276.627 150.144 276.442 150.303 276.159 150.303H274.253L270.029 137.218H272.012C272.209 137.218 272.373 137.266 272.501 137.36C272.639 137.455 272.729 137.575 272.772 137.721L275.129 145.757C275.206 146.083 275.274 146.401 275.335 146.71C275.395 147.019 275.45 147.328 275.502 147.637C275.579 147.328 275.661 147.019 275.747 146.71C275.841 146.401 275.936 146.083 276.03 145.757L278.644 137.669C278.687 137.523 278.769 137.407 278.889 137.321C279.009 137.227 279.155 137.18 279.327 137.18H280.421C280.61 137.18 280.765 137.227 280.885 137.321C281.014 137.407 281.1 137.523 281.143 137.669L283.693 145.757C283.787 146.083 283.877 146.405 283.963 146.723C284.049 147.032 284.126 147.345 284.195 147.663C284.246 147.354 284.306 147.045 284.375 146.735C284.444 146.418 284.521 146.092 284.607 145.757L287.002 137.721C287.045 137.575 287.131 137.455 287.26 137.36C287.397 137.266 287.552 137.218 287.723 137.218H289.617ZM300.209 142.305C300.209 141.807 300.136 141.348 299.99 140.927C299.853 140.507 299.647 140.142 299.372 139.833C299.097 139.524 298.762 139.283 298.367 139.112C297.972 138.94 297.517 138.854 297.002 138.854C295.946 138.854 295.113 139.159 294.504 139.768C293.903 140.378 293.521 141.224 293.358 142.305H300.209ZM302.282 148.435C301.973 148.796 301.617 149.109 301.213 149.376C300.81 149.633 300.381 149.843 299.926 150.007C299.471 150.17 298.998 150.29 298.509 150.367C298.028 150.444 297.552 150.483 297.079 150.483C296.178 150.483 295.341 150.333 294.568 150.032C293.804 149.723 293.139 149.277 292.572 148.693C292.014 148.101 291.576 147.371 291.258 146.504C290.949 145.628 290.795 144.623 290.795 143.49C290.795 142.58 290.937 141.734 291.22 140.953C291.503 140.163 291.907 139.476 292.43 138.893C292.963 138.309 293.611 137.849 294.375 137.515C295.139 137.18 295.998 137.012 296.951 137.012C297.749 137.012 298.483 137.145 299.153 137.412C299.831 137.669 300.415 138.047 300.904 138.545C301.394 139.043 301.776 139.657 302.05 140.386C302.334 141.116 302.475 141.949 302.475 142.885C302.475 143.271 302.433 143.533 302.347 143.67C302.261 143.799 302.102 143.864 301.87 143.864H293.293C293.319 144.645 293.431 145.327 293.628 145.911C293.826 146.486 294.096 146.967 294.439 147.354C294.791 147.74 295.208 148.028 295.689 148.216C296.169 148.405 296.706 148.5 297.298 148.5C297.856 148.5 298.337 148.435 298.741 148.307C299.153 148.178 299.505 148.04 299.797 147.895C300.097 147.74 300.346 147.598 300.544 147.47C300.75 147.341 300.93 147.276 301.085 147.276C301.291 147.276 301.449 147.354 301.561 147.508L302.282 148.435ZM307.686 147.083C308.098 147.624 308.544 148.002 309.025 148.216C309.506 148.431 310.03 148.538 310.596 148.538C311.764 148.538 312.661 148.122 313.288 147.289C313.923 146.456 314.241 145.199 314.241 143.516C314.241 141.962 313.962 140.824 313.404 140.103C312.846 139.373 312.056 139.009 311.034 139.009C310.313 139.009 309.686 139.172 309.154 139.498C308.63 139.824 308.141 140.288 307.686 140.889V147.083ZM307.686 139.021C308.227 138.42 308.841 137.935 309.527 137.566C310.214 137.197 310.996 137.012 311.871 137.012C312.635 137.012 313.322 137.163 313.932 137.463C314.55 137.755 315.074 138.18 315.503 138.738C315.932 139.288 316.263 139.957 316.495 140.747C316.726 141.537 316.842 142.43 316.842 143.426C316.842 144.482 316.709 145.443 316.443 146.31C316.186 147.178 315.812 147.92 315.323 148.538C314.842 149.157 314.254 149.637 313.558 149.981C312.863 150.316 312.082 150.483 311.215 150.483C310.794 150.483 310.407 150.44 310.055 150.354C309.703 150.277 309.377 150.161 309.077 150.007C308.785 149.852 308.514 149.663 308.265 149.44C308.016 149.217 307.78 148.963 307.557 148.68L307.441 149.775C307.373 150.127 307.158 150.303 306.797 150.303H305.175V131.294H307.686V139.021ZM327.352 139.472C327.283 139.584 327.21 139.665 327.133 139.717C327.055 139.76 326.957 139.781 326.836 139.781C326.699 139.781 326.545 139.734 326.373 139.64C326.21 139.545 326.008 139.442 325.768 139.33C325.536 139.219 325.261 139.116 324.943 139.021C324.626 138.927 324.248 138.88 323.81 138.88C323.449 138.88 323.119 138.927 322.818 139.021C322.526 139.107 322.278 139.232 322.071 139.395C321.865 139.549 321.707 139.738 321.595 139.962C321.483 140.176 321.428 140.408 321.428 140.657C321.428 140.983 321.522 141.254 321.711 141.468C321.908 141.683 322.162 141.867 322.471 142.022C322.788 142.177 323.145 142.318 323.54 142.447C323.943 142.567 324.351 142.696 324.763 142.833C325.184 142.971 325.592 143.13 325.986 143.31C326.39 143.482 326.746 143.7 327.055 143.967C327.373 144.224 327.626 144.538 327.815 144.907C328.013 145.276 328.111 145.727 328.111 146.259C328.111 146.869 328 147.435 327.777 147.959C327.562 148.474 327.24 148.92 326.811 149.298C326.39 149.676 325.866 149.972 325.24 150.187C324.613 150.401 323.896 150.509 323.089 150.509C322.187 150.509 321.355 150.359 320.59 150.058C319.826 149.758 319.187 149.376 318.672 148.912L319.264 147.946C319.333 147.826 319.419 147.736 319.522 147.676C319.625 147.607 319.762 147.573 319.934 147.573C320.097 147.573 320.264 147.633 320.436 147.753C320.608 147.873 320.814 148.006 321.054 148.152C321.294 148.289 321.586 148.418 321.93 148.538C322.273 148.65 322.702 148.706 323.218 148.706C323.647 148.706 324.02 148.654 324.338 148.551C324.656 148.44 324.918 148.294 325.124 148.113C325.338 147.925 325.497 147.71 325.6 147.47C325.703 147.229 325.755 146.976 325.755 146.71C325.755 146.366 325.656 146.083 325.458 145.86C325.27 145.628 325.016 145.43 324.699 145.267C324.39 145.104 324.033 144.963 323.63 144.842C323.226 144.722 322.814 144.593 322.393 144.456C321.973 144.319 321.561 144.16 321.157 143.98C320.754 143.799 320.393 143.572 320.075 143.297C319.766 143.022 319.513 142.687 319.316 142.292C319.127 141.898 319.032 141.417 319.032 140.85C319.032 140.344 319.135 139.858 319.341 139.395C319.556 138.931 319.861 138.523 320.256 138.171C320.659 137.819 321.153 137.54 321.737 137.334C322.329 137.12 323.003 137.012 323.759 137.012C324.626 137.012 325.407 137.15 326.102 137.425C326.806 137.699 327.407 138.077 327.905 138.558L327.352 139.472ZM333.458 137.218V150.303H330.946V137.218H333.458ZM333.934 133.175C333.934 133.407 333.887 133.63 333.792 133.844C333.698 134.05 333.569 134.235 333.406 134.398C333.252 134.553 333.067 134.677 332.852 134.772C332.638 134.857 332.414 134.9 332.183 134.9C331.951 134.9 331.732 134.857 331.526 134.772C331.32 134.677 331.135 134.553 330.972 134.398C330.818 134.235 330.693 134.05 330.599 133.844C330.513 133.63 330.47 133.407 330.47 133.175C330.47 132.934 330.513 132.711 330.599 132.505C330.693 132.29 330.818 132.106 330.972 131.951C331.135 131.788 331.32 131.664 331.526 131.578C331.732 131.483 331.951 131.436 332.183 131.436C332.414 131.436 332.638 131.483 332.852 131.578C333.067 131.664 333.252 131.788 333.406 131.951C333.569 132.106 333.698 132.29 333.792 132.505C333.887 132.711 333.934 132.934 333.934 133.175ZM341.189 150.509C340.133 150.509 339.317 150.213 338.742 149.62C338.175 149.028 337.892 148.182 337.892 147.083V139.253H336.372C336.226 139.253 336.102 139.21 335.999 139.124C335.904 139.03 335.857 138.893 335.857 138.712V137.695L337.982 137.399L338.549 133.497C338.583 133.351 338.647 133.239 338.742 133.162C338.845 133.076 338.974 133.033 339.128 133.033H340.403V137.425H344.112V139.253H340.403V146.916C340.403 147.431 340.528 147.817 340.777 148.075C341.034 148.324 341.36 148.448 341.755 148.448C341.987 148.448 342.185 148.418 342.348 148.358C342.52 148.298 342.665 148.234 342.786 148.165C342.906 148.088 343.009 148.019 343.095 147.959C343.181 147.899 343.258 147.869 343.327 147.869C343.412 147.869 343.477 147.89 343.52 147.933C343.571 147.967 343.623 148.028 343.674 148.113L344.421 149.324C344.009 149.702 343.52 149.994 342.953 150.2C342.386 150.406 341.798 150.509 341.189 150.509ZM355.017 142.305C355.017 141.807 354.944 141.348 354.798 140.927C354.66 140.507 354.454 140.142 354.18 139.833C353.905 139.524 353.57 139.283 353.175 139.112C352.78 138.94 352.325 138.854 351.81 138.854C350.754 138.854 349.921 139.159 349.312 139.768C348.711 140.378 348.329 141.224 348.166 142.305H355.017ZM357.09 148.435C356.781 148.796 356.425 149.109 356.021 149.376C355.618 149.633 355.188 149.843 354.733 150.007C354.278 150.17 353.806 150.29 353.317 150.367C352.836 150.444 352.36 150.483 351.887 150.483C350.986 150.483 350.149 150.333 349.376 150.032C348.612 149.723 347.947 149.277 347.38 148.693C346.822 148.101 346.384 147.371 346.066 146.504C345.757 145.628 345.603 144.623 345.603 143.49C345.603 142.58 345.744 141.734 346.028 140.953C346.311 140.163 346.715 139.476 347.238 138.893C347.771 138.309 348.419 137.849 349.183 137.515C349.947 137.18 350.806 137.012 351.759 137.012C352.557 137.012 353.291 137.145 353.961 137.412C354.639 137.669 355.223 138.047 355.712 138.545C356.202 139.043 356.584 139.657 356.858 140.386C357.142 141.116 357.283 141.949 357.283 142.885C357.283 143.271 357.24 143.533 357.155 143.67C357.069 143.799 356.91 143.864 356.678 143.864H348.101C348.127 144.645 348.239 145.327 348.436 145.911C348.633 146.486 348.904 146.967 349.247 147.354C349.599 147.74 350.016 148.028 350.497 148.216C350.977 148.405 351.514 148.5 352.106 148.5C352.664 148.5 353.145 148.435 353.549 148.307C353.961 148.178 354.313 148.04 354.605 147.895C354.905 147.74 355.154 147.598 355.352 147.47C355.558 147.341 355.738 147.276 355.893 147.276C356.099 147.276 356.257 147.354 356.369 147.508L357.09 148.435ZM367.697 139.472C367.628 139.584 367.555 139.665 367.478 139.717C367.4 139.76 367.302 139.781 367.181 139.781C367.044 139.781 366.89 139.734 366.718 139.64C366.555 139.545 366.353 139.442 366.113 139.33C365.881 139.219 365.606 139.116 365.288 139.021C364.971 138.927 364.593 138.88 364.155 138.88C363.795 138.88 363.464 138.927 363.163 139.021C362.872 139.107 362.623 139.232 362.417 139.395C362.21 139.549 362.052 139.738 361.94 139.962C361.828 140.176 361.773 140.408 361.773 140.657C361.773 140.983 361.867 141.254 362.056 141.468C362.253 141.683 362.507 141.867 362.816 142.022C363.133 142.177 363.49 142.318 363.885 142.447C364.288 142.567 364.696 142.696 365.108 142.833C365.529 142.971 365.937 143.13 366.332 143.31C366.735 143.482 367.091 143.7 367.4 143.967C367.718 144.224 367.971 144.538 368.16 144.907C368.358 145.276 368.456 145.727 368.456 146.259C368.456 146.869 368.345 147.435 368.122 147.959C367.907 148.474 367.585 148.92 367.156 149.298C366.735 149.676 366.211 149.972 365.585 150.187C364.958 150.401 364.241 150.509 363.434 150.509C362.532 150.509 361.7 150.359 360.936 150.058C360.171 149.758 359.532 149.376 359.017 148.912L359.609 147.946C359.678 147.826 359.764 147.736 359.867 147.676C359.97 147.607 360.107 147.573 360.279 147.573C360.442 147.573 360.609 147.633 360.781 147.753C360.953 147.873 361.159 148.006 361.399 148.152C361.64 148.289 361.931 148.418 362.275 148.538C362.618 148.65 363.048 148.706 363.563 148.706C363.992 148.706 364.365 148.654 364.683 148.551C365.001 148.44 365.263 148.294 365.469 148.113C365.683 147.925 365.842 147.71 365.945 147.47C366.048 147.229 366.1 146.976 366.1 146.71C366.1 146.366 366.001 146.083 365.804 145.86C365.615 145.628 365.361 145.43 365.044 145.267C364.735 145.104 364.378 144.963 363.975 144.842C363.571 144.722 363.159 144.593 362.738 144.456C362.318 144.319 361.906 144.16 361.502 143.98C361.099 143.799 360.738 143.572 360.42 143.297C360.111 143.022 359.858 142.687 359.661 142.292C359.472 141.898 359.377 141.417 359.377 140.85C359.377 140.344 359.48 139.858 359.686 139.395C359.901 138.931 360.206 138.523 360.601 138.171C361.004 137.819 361.498 137.54 362.082 137.334C362.674 137.12 363.348 137.012 364.104 137.012C364.971 137.012 365.752 137.15 366.447 137.425C367.151 137.699 367.752 138.077 368.25 138.558L367.697 139.472Z" fill="#E4FBFF"/>
<path d="M282.069 176.977C282.069 176.479 281.996 176.02 281.85 175.599C281.713 175.179 281.507 174.814 281.232 174.505C280.957 174.196 280.622 173.955 280.227 173.783C279.833 173.612 279.378 173.526 278.862 173.526C277.806 173.526 276.974 173.831 276.364 174.44C275.763 175.05 275.381 175.895 275.218 176.977H282.069ZM284.142 183.107C283.833 183.468 283.477 183.781 283.074 184.047C282.67 184.305 282.241 184.515 281.786 184.678C281.331 184.842 280.859 184.962 280.369 185.039C279.888 185.116 279.412 185.155 278.94 185.155C278.038 185.155 277.201 185.005 276.428 184.704C275.664 184.395 274.999 183.949 274.432 183.365C273.874 182.772 273.436 182.043 273.119 181.176C272.81 180.3 272.655 179.295 272.655 178.162C272.655 177.252 272.797 176.406 273.08 175.625C273.363 174.835 273.767 174.148 274.291 173.565C274.823 172.981 275.471 172.521 276.235 172.187C276.999 171.852 277.858 171.684 278.811 171.684C279.609 171.684 280.343 171.817 281.013 172.084C281.691 172.341 282.275 172.719 282.764 173.217C283.254 173.715 283.636 174.329 283.911 175.058C284.194 175.788 284.336 176.621 284.336 177.557C284.336 177.943 284.293 178.205 284.207 178.342C284.121 178.471 283.962 178.535 283.73 178.535H275.153C275.179 179.317 275.291 179.999 275.488 180.583C275.686 181.158 275.956 181.639 276.3 182.025C276.652 182.412 277.068 182.699 277.549 182.888C278.03 183.077 278.566 183.172 279.159 183.172C279.717 183.172 280.197 183.107 280.601 182.978C281.013 182.85 281.365 182.712 281.657 182.566C281.957 182.412 282.206 182.27 282.404 182.141C282.61 182.013 282.79 181.948 282.945 181.948C283.151 181.948 283.31 182.025 283.421 182.18L284.142 183.107ZM296.204 174.337C296.127 174.432 296.05 174.509 295.972 174.569C295.904 174.621 295.801 174.646 295.663 174.646C295.526 174.646 295.38 174.595 295.225 174.492C295.079 174.38 294.891 174.264 294.659 174.144C294.436 174.015 294.161 173.899 293.835 173.796C293.517 173.685 293.122 173.629 292.65 173.629C292.032 173.629 291.486 173.741 291.014 173.964C290.542 174.187 290.147 174.505 289.829 174.917C289.52 175.329 289.284 175.831 289.121 176.423C288.958 177.016 288.876 177.681 288.876 178.42C288.876 179.184 288.962 179.866 289.134 180.467C289.306 181.06 289.55 181.562 289.868 181.974C290.186 182.378 290.572 182.687 291.027 182.901C291.482 183.107 291.989 183.21 292.547 183.21C293.088 183.21 293.534 183.146 293.886 183.017C294.238 182.88 294.53 182.734 294.762 182.579C294.994 182.425 295.187 182.283 295.341 182.154C295.496 182.017 295.655 181.948 295.818 181.948C296.024 181.948 296.183 182.025 296.294 182.18L297.015 183.107C296.715 183.476 296.376 183.79 295.998 184.047C295.629 184.305 295.234 184.515 294.813 184.678C294.393 184.842 293.95 184.962 293.487 185.039C293.032 185.116 292.568 185.155 292.096 185.155C291.28 185.155 290.516 185.005 289.804 184.704C289.1 184.404 288.486 183.966 287.962 183.391C287.447 182.815 287.039 182.111 286.739 181.279C286.438 180.437 286.288 179.484 286.288 178.42C286.288 177.449 286.421 176.552 286.687 175.728C286.962 174.904 287.361 174.196 287.885 173.603C288.417 173.002 289.07 172.534 289.842 172.199C290.615 171.856 291.499 171.684 292.495 171.684C293.431 171.684 294.255 171.835 294.968 172.135C295.68 172.436 296.316 172.86 296.874 173.41L296.204 174.337ZM304.71 171.684C305.671 171.684 306.538 171.843 307.311 172.161C308.092 172.47 308.753 172.921 309.294 173.513C309.844 174.097 310.264 174.805 310.556 175.638C310.848 176.462 310.994 177.389 310.994 178.42C310.994 179.45 310.848 180.381 310.556 181.214C310.264 182.047 309.844 182.755 309.294 183.339C308.753 183.923 308.092 184.374 307.311 184.691C306.538 185 305.671 185.155 304.71 185.155C303.739 185.155 302.864 185 302.082 184.691C301.31 184.374 300.649 183.923 300.099 183.339C299.55 182.755 299.125 182.047 298.824 181.214C298.532 180.381 298.386 179.45 298.386 178.42C298.386 177.389 298.532 176.462 298.824 175.638C299.125 174.805 299.55 174.097 300.099 173.513C300.649 172.921 301.31 172.47 302.082 172.161C302.864 171.843 303.739 171.684 304.71 171.684ZM304.71 183.197C305.946 183.197 306.869 182.781 307.478 181.948C308.088 181.115 308.393 179.944 308.393 178.432C308.393 176.921 308.088 175.75 307.478 174.917C306.869 174.075 305.946 173.655 304.71 173.655C303.456 173.655 302.52 174.075 301.902 174.917C301.293 175.75 300.988 176.921 300.988 178.432C300.988 179.944 301.293 181.115 301.902 181.948C302.52 182.781 303.456 183.197 304.71 183.197ZM313.797 184.975V171.89H315.304C315.656 171.89 315.875 172.058 315.961 172.393L316.141 173.642C316.622 173.067 317.154 172.599 317.738 172.238C318.331 171.869 319.022 171.684 319.812 171.684C320.679 171.684 321.383 171.925 321.924 172.405C322.464 172.878 322.859 173.522 323.108 174.337C323.297 173.874 323.542 173.474 323.842 173.14C324.143 172.805 324.478 172.53 324.847 172.315C325.216 172.101 325.607 171.942 326.019 171.839C326.44 171.736 326.864 171.684 327.294 171.684C327.989 171.684 328.607 171.796 329.148 172.019C329.698 172.234 330.161 172.551 330.539 172.972C330.917 173.393 331.204 173.912 331.402 174.53C331.599 175.149 331.698 175.853 331.698 176.642V184.975H329.174V176.642C329.174 175.664 328.959 174.925 328.53 174.427C328.109 173.929 327.491 173.68 326.676 173.68C326.315 173.68 325.972 173.745 325.645 173.874C325.319 173.994 325.031 174.178 324.783 174.427C324.542 174.676 324.349 174.985 324.203 175.355C324.066 175.724 323.997 176.153 323.997 176.642V184.975H321.473V176.642C321.473 175.629 321.271 174.882 320.868 174.402C320.464 173.921 319.872 173.68 319.09 173.68C318.549 173.68 318.047 173.822 317.584 174.105C317.12 174.389 316.695 174.775 316.309 175.264V184.975H313.797ZM335.077 184.975V171.89H336.583C336.935 171.89 337.154 172.058 337.24 172.393L337.42 173.642C337.901 173.067 338.434 172.599 339.017 172.238C339.61 171.869 340.301 171.684 341.091 171.684C341.958 171.684 342.662 171.925 343.203 172.405C343.744 172.878 344.139 173.522 344.388 174.337C344.576 173.874 344.821 173.474 345.122 173.14C345.422 172.805 345.757 172.53 346.126 172.315C346.495 172.101 346.886 171.942 347.298 171.839C347.719 171.736 348.144 171.684 348.573 171.684C349.268 171.684 349.887 171.796 350.427 172.019C350.977 172.234 351.441 172.551 351.818 172.972C352.196 173.393 352.484 173.912 352.681 174.53C352.879 175.149 352.977 175.853 352.977 176.642V184.975H350.453V176.642C350.453 175.664 350.239 174.925 349.809 174.427C349.389 173.929 348.77 173.68 347.955 173.68C347.594 173.68 347.251 173.745 346.925 173.874C346.598 173.994 346.311 174.178 346.062 174.427C345.821 174.676 345.628 174.985 345.482 175.355C345.345 175.724 345.276 176.153 345.276 176.642V184.975H342.752V176.642C342.752 175.629 342.55 174.882 342.147 174.402C341.743 173.921 341.151 173.68 340.37 173.68C339.829 173.68 339.326 173.822 338.863 174.105C338.399 174.389 337.974 174.775 337.588 175.264V184.975H335.077ZM365.023 176.977C365.023 176.479 364.95 176.02 364.804 175.599C364.667 175.179 364.461 174.814 364.186 174.505C363.911 174.196 363.576 173.955 363.181 173.783C362.786 173.612 362.331 173.526 361.816 173.526C360.76 173.526 359.927 173.831 359.318 174.44C358.717 175.05 358.335 175.895 358.172 176.977H365.023ZM367.096 183.107C366.787 183.468 366.431 183.781 366.027 184.047C365.624 184.305 365.195 184.515 364.74 184.678C364.285 184.842 363.812 184.962 363.323 185.039C362.842 185.116 362.366 185.155 361.894 185.155C360.992 185.155 360.155 185.005 359.382 184.704C358.618 184.395 357.953 183.949 357.386 183.365C356.828 182.772 356.39 182.043 356.073 181.176C355.764 180.3 355.609 179.295 355.609 178.162C355.609 177.252 355.751 176.406 356.034 175.625C356.317 174.835 356.721 174.148 357.244 173.565C357.777 172.981 358.425 172.521 359.189 172.187C359.953 171.852 360.812 171.684 361.765 171.684C362.563 171.684 363.297 171.817 363.967 172.084C364.645 172.341 365.229 172.719 365.718 173.217C366.208 173.715 366.59 174.329 366.865 175.058C367.148 175.788 367.29 176.621 367.29 177.557C367.29 177.943 367.247 178.205 367.161 178.342C367.075 178.471 366.916 178.535 366.684 178.535H358.107C358.133 179.317 358.245 179.999 358.442 180.583C358.64 181.158 358.91 181.639 359.254 182.025C359.606 182.412 360.022 182.699 360.503 182.888C360.983 183.077 361.52 183.172 362.112 183.172C362.671 183.172 363.151 183.107 363.555 182.978C363.967 182.85 364.319 182.712 364.611 182.566C364.911 182.412 365.16 182.27 365.358 182.141C365.564 182.013 365.744 181.948 365.899 181.948C366.105 181.948 366.264 182.025 366.375 182.18L367.096 183.107ZM372.358 174.402C372.779 173.543 373.286 172.869 373.878 172.38C374.47 171.89 375.183 171.646 376.016 171.646C376.299 171.646 376.565 171.68 376.814 171.749C377.072 171.809 377.295 171.903 377.484 172.032L377.316 173.925C377.256 174.157 377.115 174.273 376.891 174.273C376.771 174.273 376.591 174.251 376.351 174.208C376.11 174.157 375.853 174.131 375.578 174.131C375.174 174.131 374.818 174.191 374.509 174.311C374.2 174.423 373.921 174.595 373.672 174.827C373.431 175.05 373.217 175.329 373.028 175.664C372.839 175.99 372.663 176.363 372.5 176.784V184.975H369.989V171.89H371.431C371.706 171.89 371.89 171.942 371.985 172.045C372.088 172.139 372.161 172.311 372.204 172.56L372.358 174.402ZM388.112 174.337C388.035 174.432 387.958 174.509 387.881 174.569C387.812 174.621 387.709 174.646 387.572 174.646C387.434 174.646 387.288 174.595 387.134 174.492C386.988 174.38 386.799 174.264 386.567 174.144C386.344 174.015 386.069 173.899 385.743 173.796C385.425 173.685 385.03 173.629 384.558 173.629C383.94 173.629 383.395 173.741 382.922 173.964C382.45 174.187 382.055 174.505 381.738 174.917C381.429 175.329 381.193 175.831 381.029 176.423C380.866 177.016 380.785 177.681 380.785 178.42C380.785 179.184 380.871 179.866 381.042 180.467C381.214 181.06 381.459 181.562 381.776 181.974C382.094 182.378 382.48 182.687 382.935 182.901C383.39 183.107 383.897 183.21 384.455 183.21C384.996 183.21 385.442 183.146 385.794 183.017C386.146 182.88 386.438 182.734 386.67 182.579C386.902 182.425 387.095 182.283 387.25 182.154C387.404 182.017 387.563 181.948 387.726 181.948C387.932 181.948 388.091 182.025 388.203 182.18L388.924 183.107C388.623 183.476 388.284 183.79 387.906 184.047C387.537 184.305 387.142 184.515 386.722 184.678C386.301 184.842 385.859 184.962 385.395 185.039C384.94 185.116 384.476 185.155 384.004 185.155C383.189 185.155 382.425 185.005 381.712 184.704C381.008 184.404 380.394 183.966 379.87 183.391C379.355 182.815 378.947 182.111 378.647 181.279C378.346 180.437 378.196 179.484 378.196 178.42C378.196 177.449 378.329 176.552 378.595 175.728C378.87 174.904 379.269 174.196 379.793 173.603C380.325 173.002 380.978 172.534 381.751 172.199C382.523 171.856 383.408 171.684 384.403 171.684C385.339 171.684 386.163 171.835 386.876 172.135C387.589 172.436 388.224 172.86 388.782 173.41L388.112 174.337ZM399.709 176.977C399.709 176.479 399.636 176.02 399.49 175.599C399.352 175.179 399.146 174.814 398.872 174.505C398.597 174.196 398.262 173.955 397.867 173.783C397.472 173.612 397.017 173.526 396.502 173.526C395.446 173.526 394.613 173.831 394.004 174.44C393.403 175.05 393.021 175.895 392.857 176.977H399.709ZM401.782 183.107C401.473 183.468 401.117 183.781 400.713 184.047C400.31 184.305 399.88 184.515 399.425 184.678C398.97 184.842 398.498 184.962 398.009 185.039C397.528 185.116 397.051 185.155 396.579 185.155C395.678 185.155 394.841 185.005 394.068 184.704C393.304 184.395 392.638 183.949 392.072 183.365C391.514 182.772 391.076 182.043 390.758 181.176C390.449 180.3 390.295 179.295 390.295 178.162C390.295 177.252 390.436 176.406 390.72 175.625C391.003 174.835 391.406 174.148 391.93 173.565C392.462 172.981 393.111 172.521 393.875 172.187C394.639 171.852 395.497 171.684 396.45 171.684C397.249 171.684 397.983 171.817 398.653 172.084C399.331 172.341 399.915 172.719 400.404 173.217C400.893 173.715 401.275 174.329 401.55 175.058C401.834 175.788 401.975 176.621 401.975 177.557C401.975 177.943 401.932 178.205 401.846 178.342C401.761 178.471 401.602 178.535 401.37 178.535H392.793C392.819 179.317 392.93 179.999 393.128 180.583C393.325 181.158 393.596 181.639 393.939 182.025C394.291 182.412 394.708 182.699 395.188 182.888C395.669 183.077 396.206 183.172 396.798 183.172C397.356 183.172 397.837 183.107 398.241 182.978C398.653 182.85 399.005 182.712 399.297 182.566C399.597 182.412 399.846 182.27 400.043 182.141C400.25 182.013 400.43 181.948 400.584 181.948C400.79 181.948 400.949 182.025 401.061 182.18L401.782 183.107Z" fill="#E4FBFF"/>
<path d="M278.451 213.839C277.429 213.874 276.562 213.955 275.85 214.084C275.137 214.204 274.558 214.367 274.111 214.573C273.665 214.779 273.343 215.024 273.145 215.307C272.948 215.582 272.849 215.891 272.849 216.235C272.849 216.561 272.901 216.844 273.004 217.085C273.115 217.317 273.261 217.51 273.441 217.664C273.63 217.81 273.849 217.917 274.098 217.986C274.347 218.055 274.618 218.089 274.91 218.089C275.296 218.089 275.648 218.051 275.966 217.973C276.292 217.896 276.597 217.789 276.88 217.651C277.163 217.505 277.434 217.329 277.691 217.123C277.949 216.917 278.202 216.681 278.451 216.415V213.839ZM271.085 208.392C271.815 207.696 272.604 207.177 273.454 206.834C274.313 206.49 275.253 206.318 276.275 206.318C277.022 206.318 277.683 206.443 278.258 206.692C278.833 206.932 279.318 207.271 279.713 207.709C280.108 208.147 280.404 208.671 280.602 209.28C280.808 209.89 280.911 210.564 280.911 211.302V219.647H279.79C279.541 219.647 279.353 219.609 279.224 219.532C279.095 219.446 278.992 219.291 278.915 219.068L278.644 217.922C278.309 218.231 277.979 218.506 277.653 218.746C277.326 218.978 276.983 219.18 276.622 219.351C276.27 219.514 275.893 219.639 275.489 219.725C275.086 219.811 274.639 219.854 274.15 219.854C273.635 219.854 273.15 219.785 272.695 219.647C272.248 219.502 271.857 219.283 271.523 218.991C271.188 218.699 270.922 218.334 270.724 217.896C270.535 217.458 270.441 216.947 270.441 216.364C270.441 215.848 270.578 215.355 270.853 214.883C271.136 214.402 271.591 213.972 272.218 213.595C272.853 213.217 273.678 212.908 274.691 212.667C275.712 212.427 276.966 212.29 278.451 212.255V211.302C278.451 210.315 278.241 209.577 277.82 209.087C277.399 208.598 276.781 208.353 275.966 208.353C275.416 208.353 274.953 208.422 274.575 208.559C274.206 208.697 273.884 208.851 273.609 209.023C273.343 209.186 273.107 209.336 272.901 209.474C272.703 209.611 272.497 209.68 272.282 209.68C272.111 209.68 271.96 209.632 271.832 209.538C271.711 209.444 271.613 209.332 271.535 209.203L271.085 208.392ZM286.784 216.428C287.196 216.969 287.638 217.347 288.11 217.561C288.591 217.776 289.128 217.883 289.72 217.883C290.871 217.883 291.759 217.471 292.386 216.647C293.021 215.814 293.339 214.603 293.339 213.015C293.339 212.182 293.266 211.474 293.12 210.89C292.983 210.298 292.777 209.817 292.502 209.448C292.236 209.07 291.905 208.795 291.51 208.624C291.115 208.443 290.669 208.353 290.171 208.353C289.441 208.353 288.806 208.516 288.265 208.843C287.733 209.169 287.239 209.632 286.784 210.233V216.428ZM286.655 208.521C286.93 208.194 287.222 207.898 287.531 207.632C287.849 207.357 288.188 207.126 288.548 206.937C288.909 206.739 289.291 206.589 289.694 206.486C290.107 206.374 290.544 206.318 291.008 206.318C291.755 206.318 292.429 206.464 293.03 206.756C293.639 207.048 294.159 207.478 294.588 208.044C295.017 208.611 295.348 209.311 295.58 210.143C295.82 210.976 295.94 211.933 295.94 213.015C295.94 213.985 295.807 214.887 295.541 215.72C295.284 216.544 294.91 217.261 294.421 217.87C293.94 218.48 293.348 218.961 292.644 219.313C291.948 219.656 291.163 219.828 290.287 219.828C289.506 219.828 288.836 219.699 288.278 219.441C287.72 219.184 287.222 218.823 286.784 218.36V224.039H284.273V206.563H285.779C286.131 206.563 286.35 206.731 286.436 207.065L286.655 208.521ZM301.336 200.639V219.647H298.812V200.639H301.336ZM307.55 206.563V219.647H305.039V206.563H307.55ZM308.027 202.519C308.027 202.751 307.98 202.974 307.885 203.189C307.791 203.395 307.662 203.58 307.499 203.743C307.344 203.897 307.16 204.022 306.945 204.116C306.73 204.202 306.507 204.245 306.275 204.245C306.044 204.245 305.825 204.202 305.619 204.116C305.412 204.022 305.228 203.897 305.065 203.743C304.91 203.58 304.786 203.395 304.691 203.189C304.605 202.974 304.563 202.751 304.563 202.519C304.563 202.279 304.605 202.056 304.691 201.85C304.786 201.635 304.91 201.451 305.065 201.296C305.228 201.133 305.412 201.008 305.619 200.923C305.825 200.828 306.044 200.781 306.275 200.781C306.507 200.781 306.73 200.828 306.945 200.923C307.16 201.008 307.344 201.133 307.499 201.296C307.662 201.451 307.791 201.635 307.885 201.85C307.98 202.056 308.027 202.279 308.027 202.519ZM320.355 209.01C320.278 209.104 320.201 209.182 320.124 209.242C320.055 209.293 319.952 209.319 319.815 209.319C319.677 209.319 319.531 209.268 319.377 209.165C319.231 209.053 319.042 208.937 318.81 208.817C318.587 208.688 318.312 208.572 317.986 208.469C317.668 208.358 317.273 208.302 316.801 208.302C316.183 208.302 315.638 208.413 315.166 208.637C314.693 208.86 314.298 209.177 313.981 209.59C313.672 210.002 313.436 210.504 313.272 211.096C313.109 211.689 313.028 212.354 313.028 213.092C313.028 213.857 313.114 214.539 313.285 215.14C313.457 215.732 313.702 216.235 314.019 216.647C314.337 217.05 314.723 217.359 315.178 217.574C315.633 217.78 316.14 217.883 316.698 217.883C317.239 217.883 317.685 217.819 318.037 217.69C318.389 217.553 318.681 217.407 318.913 217.252C319.145 217.098 319.338 216.956 319.493 216.827C319.647 216.69 319.806 216.621 319.969 216.621C320.175 216.621 320.334 216.698 320.446 216.853L321.167 217.78C320.866 218.149 320.527 218.463 320.149 218.72C319.78 218.978 319.385 219.188 318.965 219.351C318.544 219.514 318.102 219.635 317.638 219.712C317.183 219.789 316.719 219.828 316.247 219.828C315.432 219.828 314.668 219.678 313.955 219.377C313.251 219.077 312.637 218.639 312.113 218.063C311.598 217.488 311.19 216.784 310.89 215.951C310.589 215.11 310.439 214.157 310.439 213.092C310.439 212.122 310.572 211.225 310.838 210.401C311.113 209.577 311.512 208.868 312.036 208.276C312.568 207.675 313.221 207.207 313.994 206.872C314.766 206.529 315.651 206.357 316.647 206.357C317.582 206.357 318.407 206.507 319.119 206.808C319.832 207.108 320.467 207.533 321.025 208.083L320.355 209.01ZM330.543 213.839C329.521 213.874 328.654 213.955 327.941 214.084C327.229 214.204 326.649 214.367 326.203 214.573C325.756 214.779 325.434 215.024 325.237 215.307C325.039 215.582 324.94 215.891 324.94 216.235C324.94 216.561 324.992 216.844 325.095 217.085C325.207 217.317 325.353 217.51 325.533 217.664C325.722 217.81 325.941 217.917 326.19 217.986C326.439 218.055 326.709 218.089 327.001 218.089C327.387 218.089 327.739 218.051 328.057 217.973C328.383 217.896 328.688 217.789 328.971 217.651C329.255 217.505 329.525 217.329 329.783 217.123C330.04 216.917 330.294 216.681 330.543 216.415V213.839ZM323.176 208.392C323.906 207.696 324.696 207.177 325.546 206.834C326.404 206.49 327.344 206.318 328.366 206.318C329.113 206.318 329.774 206.443 330.349 206.692C330.925 206.932 331.41 207.271 331.805 207.709C332.2 208.147 332.496 208.671 332.693 209.28C332.899 209.89 333.002 210.564 333.002 211.302V219.647H331.882C331.633 219.647 331.444 219.609 331.315 219.532C331.186 219.446 331.083 219.291 331.006 219.068L330.736 217.922C330.401 218.231 330.07 218.506 329.744 218.746C329.418 218.978 329.074 219.18 328.714 219.351C328.362 219.514 327.984 219.639 327.581 219.725C327.177 219.811 326.731 219.854 326.241 219.854C325.726 219.854 325.241 219.785 324.786 219.647C324.34 219.502 323.949 219.283 323.614 218.991C323.279 218.699 323.013 218.334 322.816 217.896C322.627 217.458 322.532 216.947 322.532 216.364C322.532 215.848 322.67 215.355 322.944 214.883C323.228 214.402 323.683 213.972 324.309 213.595C324.945 213.217 325.769 212.908 326.782 212.667C327.804 212.427 329.057 212.29 330.543 212.255V211.302C330.543 210.315 330.332 209.577 329.911 209.087C329.491 208.598 328.873 208.353 328.057 208.353C327.508 208.353 327.044 208.422 326.666 208.559C326.297 208.697 325.975 208.851 325.7 209.023C325.434 209.186 325.198 209.336 324.992 209.474C324.795 209.611 324.588 209.68 324.374 209.68C324.202 209.68 324.052 209.632 323.923 209.538C323.803 209.444 323.704 209.332 323.627 209.203L323.176 208.392ZM348.59 219.647H346.066V208.598H339.498V216.26C339.498 216.776 339.622 217.162 339.871 217.42C340.129 217.669 340.455 217.793 340.85 217.793C341.082 217.793 341.279 217.763 341.442 217.703C341.614 217.643 341.76 217.578 341.88 217.51C342 217.432 342.103 217.364 342.189 217.304C342.275 217.244 342.352 217.213 342.421 217.213C342.507 217.213 342.571 217.235 342.614 217.278C342.666 217.312 342.717 217.372 342.769 217.458L343.516 218.669C343.104 219.046 342.614 219.338 342.048 219.544C341.481 219.75 340.893 219.854 340.283 219.854C339.227 219.854 338.412 219.557 337.836 218.965C337.27 218.373 336.986 217.527 336.986 216.428V208.598H335.467C335.321 208.598 335.196 208.555 335.093 208.469C334.999 208.375 334.952 208.237 334.952 208.057V207.04L337.089 206.743L337.643 202.841C337.678 202.695 337.742 202.584 337.836 202.507C337.939 202.421 338.068 202.378 338.223 202.378H339.498V206.769H348.59V219.647ZM349.156 202.442C349.156 202.674 349.109 202.897 349.015 203.112C348.92 203.318 348.792 203.502 348.628 203.666C348.474 203.82 348.289 203.945 348.075 204.039C347.86 204.125 347.637 204.168 347.405 204.168C347.173 204.168 346.954 204.125 346.748 204.039C346.542 203.945 346.358 203.82 346.194 203.666C346.04 203.502 345.915 203.318 345.821 203.112C345.735 202.897 345.692 202.674 345.692 202.442C345.692 202.202 345.735 201.974 345.821 201.76C345.915 201.545 346.04 201.36 346.194 201.206C346.358 201.043 346.542 200.918 346.748 200.832C346.954 200.738 347.173 200.691 347.405 200.691C347.637 200.691 347.86 200.738 348.075 200.832C348.289 200.918 348.474 201.043 348.628 201.206C348.792 201.36 348.92 201.545 349.015 201.76C349.109 201.974 349.156 202.202 349.156 202.442ZM363.594 206.563L358.288 219.647H356.022L350.716 206.563H352.789C352.987 206.563 353.15 206.61 353.279 206.705C353.407 206.799 353.493 206.919 353.536 207.065L356.666 215.101C356.777 215.436 356.872 215.771 356.949 216.106C357.035 216.432 357.112 216.758 357.181 217.085C357.249 216.758 357.327 216.432 357.413 216.106C357.498 215.78 357.601 215.445 357.722 215.101L360.89 207.065C360.941 206.919 361.031 206.799 361.16 206.705C361.289 206.61 361.443 206.563 361.624 206.563H363.594ZM370.791 206.357C371.752 206.357 372.619 206.516 373.392 206.834C374.173 207.143 374.834 207.593 375.375 208.186C375.925 208.77 376.345 209.478 376.637 210.311C376.929 211.135 377.075 212.062 377.075 213.092C377.075 214.123 376.929 215.054 376.637 215.887C376.345 216.72 375.925 217.428 375.375 218.012C374.834 218.596 374.173 219.046 373.392 219.364C372.619 219.673 371.752 219.828 370.791 219.828C369.82 219.828 368.945 219.673 368.163 219.364C367.391 219.046 366.73 218.596 366.18 218.012C365.631 217.428 365.206 216.72 364.905 215.887C364.613 215.054 364.467 214.123 364.467 213.092C364.467 212.062 364.613 211.135 364.905 210.311C365.206 209.478 365.631 208.77 366.18 208.186C366.73 207.593 367.391 207.143 368.163 206.834C368.945 206.516 369.82 206.357 370.791 206.357ZM370.791 217.87C372.027 217.87 372.95 217.454 373.559 216.621C374.169 215.788 374.474 214.616 374.474 213.105C374.474 211.594 374.169 210.422 373.559 209.59C372.95 208.748 372.027 208.327 370.791 208.327C369.537 208.327 368.601 208.748 367.983 209.59C367.374 210.422 367.069 211.594 367.069 213.105C367.069 214.616 367.374 215.788 367.983 216.621C368.601 217.454 369.537 217.87 370.791 217.87ZM387.592 208.817C387.524 208.928 387.451 209.01 387.374 209.062C387.296 209.104 387.198 209.126 387.077 209.126C386.94 209.126 386.785 209.079 386.614 208.984C386.451 208.89 386.249 208.787 386.008 208.675C385.777 208.564 385.502 208.461 385.184 208.366C384.867 208.272 384.489 208.224 384.051 208.224C383.69 208.224 383.36 208.272 383.059 208.366C382.767 208.452 382.518 208.576 382.312 208.74C382.106 208.894 381.948 209.083 381.836 209.306C381.724 209.521 381.668 209.753 381.668 210.002C381.668 210.328 381.763 210.598 381.952 210.813C382.149 211.028 382.403 211.212 382.712 211.367C383.029 211.521 383.386 211.663 383.781 211.792C384.184 211.912 384.592 212.041 385.004 212.178C385.425 212.315 385.832 212.474 386.227 212.655C386.631 212.826 386.987 213.045 387.296 213.311C387.614 213.569 387.867 213.882 388.056 214.251C388.254 214.621 388.352 215.071 388.352 215.604C388.352 216.213 388.241 216.78 388.017 217.304C387.803 217.819 387.481 218.265 387.052 218.643C386.631 219.021 386.107 219.317 385.48 219.532C384.854 219.746 384.137 219.854 383.33 219.854C382.428 219.854 381.595 219.703 380.831 219.403C380.067 219.102 379.428 218.72 378.913 218.257L379.505 217.291C379.574 217.171 379.659 217.08 379.762 217.02C379.866 216.952 380.003 216.917 380.175 216.917C380.338 216.917 380.505 216.977 380.677 217.098C380.849 217.218 381.055 217.351 381.295 217.497C381.535 217.634 381.827 217.763 382.171 217.883C382.514 217.995 382.943 218.051 383.459 218.051C383.888 218.051 384.261 217.999 384.579 217.896C384.897 217.784 385.158 217.638 385.365 217.458C385.579 217.269 385.738 217.055 385.841 216.814C385.944 216.574 385.996 216.321 385.996 216.054C385.996 215.711 385.897 215.428 385.699 215.204C385.51 214.973 385.257 214.775 384.94 214.612C384.63 214.449 384.274 214.307 383.871 214.187C383.467 214.067 383.055 213.938 382.634 213.801C382.214 213.663 381.802 213.505 381.398 213.324C380.995 213.144 380.634 212.916 380.316 212.642C380.007 212.367 379.754 212.032 379.556 211.637C379.368 211.242 379.273 210.761 379.273 210.195C379.273 209.688 379.376 209.203 379.582 208.74C379.797 208.276 380.102 207.868 380.497 207.516C380.9 207.164 381.394 206.885 381.978 206.679C382.57 206.464 383.244 206.357 383.999 206.357C384.867 206.357 385.648 206.494 386.343 206.769C387.047 207.044 387.648 207.422 388.146 207.903L387.592 208.817Z" fill="#E4FBFF"/>
<path d="M281.837 244.403C281.425 243.862 280.979 243.484 280.498 243.27C280.026 243.055 279.493 242.948 278.901 242.948C277.751 242.948 276.858 243.364 276.222 244.197C275.596 245.021 275.282 246.228 275.282 247.816C275.282 248.649 275.351 249.361 275.488 249.954C275.634 250.537 275.84 251.018 276.106 251.396C276.381 251.765 276.716 252.04 277.111 252.22C277.506 252.392 277.952 252.478 278.45 252.478C279.18 252.478 279.811 252.315 280.343 251.988C280.876 251.662 281.374 251.203 281.837 250.61V244.403ZM284.361 235.311V254.319H282.842C282.49 254.319 282.271 254.152 282.185 253.817L281.966 252.31C281.408 252.971 280.773 253.504 280.06 253.907C279.356 254.302 278.54 254.5 277.613 254.5C276.866 254.5 276.188 254.354 275.578 254.062C274.977 253.77 274.462 253.345 274.033 252.787C273.604 252.22 273.273 251.52 273.041 250.688C272.81 249.855 272.694 248.898 272.694 247.816C272.694 246.846 272.822 245.944 273.08 245.111C273.338 244.279 273.711 243.557 274.2 242.948C274.69 242.338 275.282 241.862 275.978 241.518C276.673 241.166 277.459 240.99 278.334 240.99C279.124 240.99 279.794 241.119 280.343 241.377C280.901 241.634 281.399 241.999 281.837 242.471V235.311H284.361ZM296.532 246.322C296.532 245.824 296.459 245.365 296.313 244.944C296.176 244.523 295.97 244.158 295.695 243.849C295.42 243.54 295.085 243.3 294.69 243.128C294.295 242.956 293.84 242.871 293.325 242.871C292.269 242.871 291.436 243.175 290.827 243.785C290.226 244.395 289.844 245.24 289.681 246.322H296.532ZM298.605 252.452C298.296 252.813 297.94 253.126 297.536 253.392C297.133 253.65 296.704 253.86 296.249 254.023C295.794 254.186 295.321 254.306 294.832 254.384C294.351 254.461 293.875 254.5 293.403 254.5C292.501 254.5 291.664 254.349 290.891 254.049C290.127 253.74 289.462 253.293 288.895 252.71C288.337 252.117 287.899 251.387 287.582 250.52C287.272 249.645 287.118 248.64 287.118 247.507C287.118 246.597 287.26 245.751 287.543 244.97C287.826 244.18 288.23 243.493 288.753 242.909C289.286 242.325 289.934 241.866 290.698 241.531C291.462 241.196 292.321 241.029 293.274 241.029C294.072 241.029 294.806 241.162 295.476 241.428C296.154 241.686 296.738 242.064 297.227 242.562C297.717 243.059 298.099 243.673 298.373 244.403C298.657 245.133 298.798 245.966 298.798 246.901C298.798 247.288 298.756 247.55 298.67 247.687C298.584 247.816 298.425 247.88 298.193 247.88H289.616C289.642 248.662 289.754 249.344 289.951 249.928C290.149 250.503 290.419 250.984 290.762 251.37C291.114 251.757 291.531 252.044 292.012 252.233C292.492 252.422 293.029 252.516 293.621 252.516C294.179 252.516 294.66 252.452 295.064 252.323C295.476 252.194 295.828 252.057 296.12 251.911C296.42 251.757 296.669 251.615 296.867 251.486C297.073 251.357 297.253 251.293 297.408 251.293C297.614 251.293 297.773 251.37 297.884 251.525L298.605 252.452ZM309.212 243.489C309.143 243.6 309.07 243.682 308.993 243.733C308.916 243.776 308.817 243.798 308.697 243.798C308.559 243.798 308.405 243.751 308.233 243.656C308.07 243.562 307.868 243.459 307.628 243.347C307.396 243.235 307.121 243.132 306.804 243.038C306.486 242.944 306.108 242.896 305.67 242.896C305.31 242.896 304.979 242.944 304.679 243.038C304.387 243.124 304.138 243.248 303.932 243.411C303.726 243.566 303.567 243.755 303.455 243.978C303.344 244.193 303.288 244.425 303.288 244.674C303.288 245 303.382 245.27 303.571 245.485C303.769 245.7 304.022 245.884 304.331 246.039C304.649 246.193 305.005 246.335 305.4 246.464C305.803 246.584 306.211 246.713 306.623 246.85C307.044 246.987 307.452 247.146 307.847 247.326C308.25 247.498 308.606 247.717 308.916 247.983C309.233 248.241 309.486 248.554 309.675 248.923C309.873 249.293 309.972 249.743 309.972 250.276C309.972 250.885 309.86 251.452 309.637 251.975C309.422 252.491 309.1 252.937 308.671 253.315C308.25 253.693 307.726 253.989 307.1 254.203C306.473 254.418 305.756 254.525 304.949 254.525C304.048 254.525 303.215 254.375 302.451 254.075C301.687 253.774 301.047 253.392 300.532 252.928L301.124 251.963C301.193 251.842 301.279 251.752 301.382 251.692C301.485 251.623 301.622 251.589 301.794 251.589C301.957 251.589 302.124 251.649 302.296 251.769C302.468 251.89 302.674 252.023 302.914 252.169C303.155 252.306 303.447 252.435 303.79 252.555C304.133 252.667 304.563 252.722 305.078 252.722C305.507 252.722 305.881 252.671 306.198 252.568C306.516 252.456 306.778 252.31 306.984 252.13C307.198 251.941 307.357 251.727 307.46 251.486C307.563 251.246 307.615 250.992 307.615 250.726C307.615 250.383 307.516 250.1 307.319 249.876C307.13 249.645 306.876 249.447 306.559 249.284C306.25 249.121 305.893 248.979 305.49 248.859C305.086 248.739 304.674 248.61 304.254 248.473C303.833 248.335 303.421 248.176 303.017 247.996C302.614 247.816 302.253 247.588 301.936 247.314C301.626 247.039 301.373 246.704 301.176 246.309C300.987 245.914 300.892 245.433 300.892 244.867C300.892 244.36 300.995 243.875 301.201 243.411C301.416 242.948 301.721 242.54 302.116 242.188C302.519 241.836 303.013 241.557 303.597 241.351C304.189 241.136 304.863 241.029 305.619 241.029C306.486 241.029 307.267 241.166 307.963 241.441C308.667 241.716 309.268 242.094 309.765 242.574L309.212 243.489ZM315.318 241.235V254.319H312.807V241.235H315.318ZM315.794 237.191C315.794 237.423 315.747 237.646 315.653 237.861C315.558 238.067 315.429 238.252 315.266 238.415C315.112 238.569 314.927 238.694 314.713 238.788C314.498 238.874 314.275 238.917 314.043 238.917C313.811 238.917 313.592 238.874 313.386 238.788C313.18 238.694 312.995 238.569 312.832 238.415C312.678 238.252 312.553 238.067 312.459 237.861C312.373 237.646 312.33 237.423 312.33 237.191C312.33 236.951 312.373 236.728 312.459 236.522C312.553 236.307 312.678 236.122 312.832 235.968C312.995 235.805 313.18 235.68 313.386 235.594C313.592 235.5 313.811 235.453 314.043 235.453C314.275 235.453 314.498 235.5 314.713 235.594C314.927 235.68 315.112 235.805 315.266 235.968C315.429 236.122 315.558 236.307 315.653 236.522C315.747 236.728 315.794 236.951 315.794 237.191ZM323.551 247.79C323.998 247.79 324.388 247.73 324.723 247.61C325.067 247.49 325.35 247.322 325.573 247.108C325.805 246.884 325.977 246.618 326.088 246.309C326.208 246 326.269 245.661 326.269 245.292C326.269 244.536 326.037 243.935 325.573 243.489C325.118 243.034 324.444 242.806 323.551 242.806C322.667 242.806 321.993 243.034 321.529 243.489C321.074 243.935 320.847 244.536 320.847 245.292C320.847 245.661 320.903 246 321.014 246.309C321.134 246.61 321.306 246.871 321.529 247.095C321.761 247.309 322.044 247.481 322.379 247.61C322.723 247.73 323.113 247.79 323.551 247.79ZM327.556 255.002C327.556 254.693 327.471 254.448 327.299 254.268C327.127 254.079 326.891 253.933 326.59 253.83C326.299 253.718 325.955 253.641 325.56 253.598C325.165 253.547 324.749 253.508 324.311 253.482C323.882 253.456 323.44 253.435 322.985 253.418C322.53 253.392 322.092 253.349 321.671 253.289C321.225 253.512 320.855 253.783 320.563 254.1C320.28 254.418 320.139 254.792 320.139 255.221C320.139 255.496 320.207 255.753 320.345 255.994C320.491 256.234 320.709 256.44 321.001 256.612C321.302 256.792 321.675 256.929 322.122 257.024C322.577 257.127 323.118 257.178 323.744 257.178C324.363 257.178 324.908 257.122 325.38 257.011C325.852 256.908 326.247 256.758 326.565 256.56C326.891 256.371 327.136 256.144 327.299 255.878C327.471 255.611 327.556 255.32 327.556 255.002ZM330.106 241.724V242.665C330.106 242.974 329.913 243.167 329.527 243.244L328.123 243.45C328.243 243.716 328.338 244 328.406 244.3C328.475 244.592 328.509 244.901 328.509 245.227C328.509 245.871 328.385 246.455 328.136 246.979C327.887 247.494 327.543 247.936 327.106 248.305C326.668 248.674 326.144 248.958 325.534 249.155C324.933 249.353 324.272 249.451 323.551 249.451C322.959 249.451 322.405 249.387 321.89 249.258C321.632 249.413 321.435 249.584 321.298 249.773C321.169 249.954 321.104 250.134 321.104 250.314C321.104 250.615 321.229 250.838 321.478 250.984C321.735 251.13 322.066 251.237 322.469 251.306C322.882 251.366 323.349 251.405 323.873 251.422C324.405 251.439 324.942 251.469 325.483 251.512C326.032 251.546 326.569 251.615 327.093 251.718C327.625 251.812 328.093 251.971 328.496 252.194C328.909 252.409 329.239 252.71 329.488 253.096C329.746 253.474 329.874 253.967 329.874 254.577C329.874 255.144 329.733 255.693 329.449 256.225C329.175 256.758 328.771 257.23 328.239 257.642C327.707 258.054 327.058 258.385 326.294 258.634C325.53 258.883 324.663 259.007 323.693 259.007C322.723 259.007 321.877 258.913 321.156 258.724C320.443 258.535 319.847 258.282 319.366 257.964C318.894 257.646 318.537 257.277 318.297 256.856C318.065 256.436 317.949 255.998 317.949 255.543C317.949 254.907 318.147 254.371 318.542 253.933C318.937 253.487 319.482 253.139 320.177 252.89C319.799 252.718 319.499 252.486 319.276 252.194C319.052 251.894 318.941 251.499 318.941 251.01C318.941 250.821 318.975 250.628 319.044 250.43C319.113 250.224 319.216 250.022 319.353 249.825C319.499 249.619 319.675 249.426 319.881 249.245C320.096 249.065 320.34 248.902 320.615 248.756C319.971 248.395 319.465 247.919 319.095 247.326C318.726 246.725 318.542 246.026 318.542 245.227C318.542 244.583 318.666 244.004 318.915 243.489C319.164 242.974 319.507 242.531 319.945 242.162C320.392 241.793 320.92 241.51 321.529 241.312C322.148 241.115 322.821 241.016 323.551 241.016C324.685 241.016 325.659 241.252 326.475 241.724H330.106ZM334.767 243.051C335.05 242.75 335.347 242.476 335.656 242.227C335.965 241.978 336.291 241.767 336.635 241.596C336.987 241.415 337.36 241.278 337.755 241.184C338.158 241.081 338.588 241.029 339.043 241.029C339.764 241.029 340.395 241.149 340.936 241.39C341.485 241.63 341.945 241.969 342.314 242.407C342.683 242.836 342.962 243.356 343.151 243.965C343.34 244.575 343.434 245.249 343.434 245.987V254.319H340.91V245.987C340.91 245.051 340.695 244.326 340.266 243.811C339.837 243.287 339.18 243.025 338.296 243.025C337.652 243.025 337.047 243.18 336.48 243.489C335.922 243.789 335.402 244.201 334.922 244.725V254.319H332.41V241.235H333.917C334.269 241.235 334.488 241.402 334.574 241.737L334.767 243.051ZM364.22 241.235V254.319H362.713C362.369 254.319 362.146 254.152 362.043 253.817L361.863 252.504C361.58 252.804 361.283 253.079 360.974 253.328C360.665 253.577 360.335 253.791 359.983 253.972C359.631 254.143 359.257 254.276 358.862 254.371C358.467 254.474 358.042 254.525 357.587 254.525C356.866 254.525 356.231 254.405 355.681 254.165C355.141 253.924 354.685 253.59 354.316 253.16C353.947 252.722 353.668 252.199 353.479 251.589C353.29 250.98 353.196 250.306 353.196 249.567V241.235H355.72V249.567C355.72 250.503 355.935 251.233 356.364 251.757C356.793 252.272 357.45 252.529 358.334 252.529C358.978 252.529 359.579 252.379 360.137 252.079C360.695 251.769 361.219 251.349 361.708 250.816V241.235H364.22ZM378.697 254.319H376.276C376.079 254.319 375.92 254.268 375.8 254.165C375.688 254.053 375.598 253.937 375.529 253.817L372.374 248.833C372.331 248.962 372.288 249.086 372.245 249.207C372.202 249.327 372.146 249.438 372.078 249.542L369.18 253.817C369.094 253.937 368.996 254.053 368.884 254.165C368.772 254.268 368.626 254.319 368.446 254.319H366.205L370.764 247.584L366.386 241.235H368.807C369.004 241.235 369.146 241.265 369.232 241.325C369.326 241.385 369.408 241.475 369.476 241.596L372.58 246.373C372.623 246.245 372.67 246.12 372.722 246C372.773 245.871 372.842 245.738 372.928 245.601L375.594 241.647C375.748 241.372 375.954 241.235 376.212 241.235H378.517L374.138 247.468L378.697 254.319ZM398.1 241.235V254.319H396.594C396.25 254.319 396.027 254.152 395.924 253.817L395.744 252.504C395.46 252.804 395.164 253.079 394.855 253.328C394.546 253.577 394.216 253.791 393.864 253.972C393.512 254.143 393.138 254.276 392.743 254.371C392.348 254.474 391.923 254.525 391.468 254.525C390.747 254.525 390.112 254.405 389.562 254.165C389.021 253.924 388.566 253.59 388.197 253.16C387.828 252.722 387.549 252.199 387.36 251.589C387.171 250.98 387.077 250.306 387.077 249.567V241.235H389.601V249.567C389.601 250.503 389.815 251.233 390.245 251.757C390.674 252.272 391.331 252.529 392.215 252.529C392.859 252.529 393.46 252.379 394.018 252.079C394.576 251.769 395.1 251.349 395.589 250.816V241.235H398.1ZM404.233 241.235V254.319H401.722V241.235H404.233ZM404.709 237.191C404.709 237.423 404.662 237.646 404.568 237.861C404.473 238.067 404.345 238.252 404.181 238.415C404.027 238.569 403.842 238.694 403.628 238.788C403.413 238.874 403.19 238.917 402.958 238.917C402.726 238.917 402.507 238.874 402.301 238.788C402.095 238.694 401.911 238.569 401.747 238.415C401.593 238.252 401.468 238.067 401.374 237.861C401.288 237.646 401.245 237.423 401.245 237.191C401.245 236.951 401.288 236.728 401.374 236.522C401.468 236.307 401.593 236.122 401.747 235.968C401.911 235.805 402.095 235.68 402.301 235.594C402.507 235.5 402.726 235.453 402.958 235.453C403.19 235.453 403.413 235.5 403.628 235.594C403.842 235.68 404.027 235.805 404.181 235.968C404.345 236.122 404.473 236.307 404.568 236.522C404.662 236.728 404.709 236.951 404.709 237.191Z" fill="#E4FBFF"/>
<path d="M250.736 149.178C248.226 146.664 248.226 142.577 250.734 140.065C253.251 137.553 257.335 137.553 259.848 140.065C262.36 142.577 262.36 146.664 259.848 149.176V149.178C257.336 151.686 253.249 151.686 250.736 149.178V149.178Z" fill="#88FE12"/>
<path d="M250.736 218.523C248.226 216.009 248.226 211.922 250.734 209.409C253.251 206.897 257.335 206.897 259.848 209.409C262.36 211.922 262.36 216.009 259.848 218.521V218.523C257.336 221.03 253.249 221.031 250.736 218.523V218.523Z" fill="#99341F"/>
<path d="M250.736 253.195C248.226 250.68 248.226 246.594 250.734 244.081C253.251 241.569 257.335 241.569 259.848 244.081C262.36 246.594 262.36 250.68 259.848 253.192V253.195C257.336 255.702 253.249 255.703 250.736 253.195Z" fill="#E64C3C"/>
<path d="M250.736 181.869C248.226 179.355 248.226 175.268 250.734 172.756C253.251 170.244 257.335 170.244 259.848 172.756C262.36 175.268 262.36 179.355 259.848 181.867V181.869C257.336 184.377 253.249 184.377 250.736 181.869V181.869Z" fill="#4226EB"/>
<path d="M236.143 304.379C238.872 305.268 242.724 295.394 245.455 287.015C245.578 286.639 245.686 286.292 245.799 285.932L243.82 284.092L242.857 283.778L241.297 283.27L239.21 283.785C239.09 284.142 238.975 284.48 238.85 284.863C236.119 293.242 233.413 303.489 236.143 304.379V304.379Z" fill="#B35324"/>
<path d="M242.505 284.857L245.8 285.932C247.32 281.141 248.065 277.912 248.143 277.618L245.183 276.652L242.223 275.686C242.022 276.204 240.874 278.809 239.211 283.781L242.505 284.857Z" fill="#FFF7E6"/>
<path d="M235.722 295.652L237.212 296.139L238.423 292.428L237.084 291.991C236.993 292.225 236.474 293.403 235.722 295.652V295.652Z" fill="#FFCCB3"/>
<path d="M244.617 278.375C247.045 279.167 249.652 277.872 250.428 275.488L251.133 273.328C251.521 272.136 252.922 271.441 254.135 271.836L254.84 269.675L250.363 268.216C249.587 267.963 248.803 267.88 248.032 267.897C245.183 267.958 242.539 269.805 241.622 272.618C240.845 275.002 242.188 277.584 244.617 278.375Z" fill="#70808A"/>
</g>
<path d="M106.459 124.717C105.877 125.623 105.534 126.698 105.534 127.855C105.534 131.061 108.134 133.661 111.34 133.661C112.414 133.661 113.416 133.364 114.279 132.856C115.639 135.895 118.683 138.016 122.228 138.016C125.751 138.016 128.778 135.92 130.15 132.91C131.283 133.393 132.53 133.661 133.84 133.661C139.052 133.661 143.276 129.437 143.276 124.226C143.276 119.184 139.319 115.078 134.343 114.816C134.489 114.104 134.566 113.368 134.566 112.613C134.566 106.6 129.692 101.726 123.679 101.726C118.904 101.726 114.857 104.805 113.39 109.081C111.983 108.106 110.278 107.532 108.437 107.532C103.627 107.532 99.7275 111.432 99.7275 116.242C99.7275 120.371 102.603 123.821 106.459 124.717V124.717Z" fill="#D1A339"/>
<path d="M130.211 110.436C130.211 107.854 129.759 105.379 128.935 103.081C127.376 102.22 125.586 101.727 123.679 101.727C118.904 101.727 114.857 104.806 113.39 109.082C111.983 108.107 110.278 107.533 108.437 107.533C103.627 107.533 99.7275 111.433 99.7275 116.243C99.7275 120.372 102.603 123.821 106.459 124.718C105.877 125.624 105.534 126.698 105.534 127.856C105.534 129.579 106.29 131.123 107.482 132.186C107.799 132.2 108.117 132.21 108.437 132.21C120.463 132.21 130.211 122.462 130.211 110.436Z" fill="#F0D365"/>
<path d="M122.226 138.742C118.769 138.742 115.601 136.84 113.955 133.836C113.129 134.197 112.238 134.387 111.339 134.387C107.737 134.387 104.806 131.457 104.806 127.855C104.806 126.923 105.005 126.009 105.388 125.167C101.583 123.879 99 120.333 99 116.242C99 111.039 103.233 106.806 108.435 106.806C110.055 106.806 111.626 107.217 113.028 108.001C114.854 103.779 119.026 101 123.677 101C130.08 101 135.29 106.21 135.29 112.613C135.29 113.132 135.256 113.652 135.186 114.166C140.19 114.827 144 119.1 144 124.226C144 129.829 139.442 134.387 133.839 134.387C132.691 134.387 131.571 134.199 130.501 133.825C128.856 136.833 125.679 138.742 122.226 138.742ZM114.277 132.131C114.351 132.131 114.426 132.143 114.498 132.166C114.695 132.228 114.855 132.372 114.939 132.561C116.225 135.434 119.085 137.29 122.226 137.29C125.341 137.29 128.191 135.453 129.487 132.609C129.651 132.252 130.071 132.088 130.432 132.243C131.512 132.703 132.658 132.935 133.839 132.935C138.642 132.935 142.548 129.029 142.548 124.226C142.548 119.599 138.926 115.784 134.303 115.541C134.092 115.529 133.896 115.427 133.767 115.259C133.638 115.092 133.587 114.877 133.63 114.67C133.768 113.995 133.839 113.304 133.839 112.613C133.839 107.01 129.281 102.452 123.677 102.452C119.343 102.452 115.483 105.21 114.074 109.316C114 109.532 113.83 109.699 113.614 109.771C113.397 109.842 113.16 109.807 112.975 109.678C111.634 108.749 110.064 108.258 108.435 108.258C104.034 108.258 100.452 111.84 100.452 116.242C100.452 119.971 102.989 123.165 106.622 124.011C106.852 124.064 107.041 124.227 107.13 124.445C107.218 124.664 107.195 124.912 107.068 125.111C106.538 125.934 106.258 126.882 106.258 127.855C106.258 130.656 108.537 132.935 111.339 132.935C112.237 132.935 113.126 132.692 113.91 132.231C114.023 132.165 114.15 132.131 114.277 132.131V132.131Z" fill="black"/>
<path d="M132.386 112.613H130.935C130.935 108.611 127.679 105.355 123.677 105.355V103.903C128.48 103.903 132.386 107.81 132.386 112.613Z" fill="black"/>
<path d="M121.438 122.658C122.09 122.59 122.589 122.379 122.933 122.024C123.277 121.664 123.449 121.205 123.449 120.647C123.449 120.402 123.402 120.19 123.309 120.013C123.22 119.835 123.097 119.682 122.941 119.551C122.784 119.415 122.599 119.301 122.385 119.207C122.176 119.113 121.952 119.027 121.712 118.949L121.438 122.658ZM121.125 113.822C120.796 113.854 120.512 113.919 120.272 114.018C120.037 114.117 119.842 114.24 119.685 114.386C119.534 114.532 119.422 114.699 119.349 114.887C119.275 115.075 119.239 115.27 119.239 115.474C119.239 115.709 119.281 115.915 119.364 116.092C119.448 116.269 119.562 116.426 119.709 116.562C119.86 116.692 120.035 116.807 120.233 116.906C120.436 117.005 120.653 117.096 120.882 117.18L121.125 113.822ZM121.814 117.485C122.189 117.6 122.56 117.728 122.925 117.869C123.295 118.004 123.627 118.179 123.919 118.393C124.211 118.607 124.446 118.875 124.623 119.199C124.806 119.517 124.897 119.919 124.897 120.404C124.897 120.874 124.816 121.317 124.655 121.735C124.498 122.152 124.269 122.52 123.966 122.838C123.663 123.156 123.29 123.415 122.847 123.613C122.409 123.811 121.908 123.929 121.344 123.965L121.25 125.272C121.245 125.376 121.203 125.47 121.125 125.554C121.047 125.637 120.948 125.679 120.828 125.679H120.264L120.389 123.942C119.769 123.874 119.195 123.715 118.668 123.464C118.141 123.209 117.689 122.888 117.314 122.502L117.775 121.797C117.822 121.735 117.88 121.682 117.948 121.641C118.015 121.599 118.091 121.578 118.175 121.578C118.279 121.578 118.394 121.625 118.519 121.719C118.649 121.813 118.803 121.922 118.981 122.048C119.158 122.168 119.367 122.288 119.607 122.408C119.852 122.522 120.144 122.603 120.483 122.65L120.773 118.667C120.408 118.557 120.048 118.435 119.693 118.299C119.338 118.158 119.02 117.975 118.738 117.751C118.456 117.522 118.229 117.237 118.057 116.898C117.885 116.559 117.799 116.134 117.799 115.622C117.799 115.236 117.875 114.861 118.026 114.495C118.177 114.13 118.396 113.804 118.683 113.517C118.975 113.23 119.333 112.995 119.755 112.813C120.183 112.63 120.671 112.529 121.219 112.508L121.297 111.412C121.302 111.308 121.344 111.214 121.422 111.13C121.501 111.047 121.6 111.005 121.72 111.005H122.283L122.174 112.547C122.722 112.62 123.194 112.766 123.59 112.985C123.992 113.199 124.344 113.457 124.647 113.76L124.279 114.323C124.169 114.495 124.042 114.582 123.895 114.582C123.822 114.582 123.731 114.55 123.622 114.488C123.517 114.425 123.389 114.355 123.238 114.276C123.092 114.193 122.922 114.109 122.729 114.026C122.536 113.942 122.32 113.88 122.08 113.838L121.814 117.485Z" fill="black"/>
<path d="M106.348 143.131C105.488 143.131 104.789 142.49 104.789 141.702C104.789 140.915 105.488 140.273 106.348 140.273C107.207 140.273 107.906 140.915 107.906 141.702C107.906 142.49 107.207 143.131 106.348 143.131ZM106.348 141.226C106.061 141.226 105.828 141.439 105.828 141.702C105.828 141.965 106.061 142.178 106.348 142.178C106.634 142.178 106.867 141.965 106.867 141.702C106.867 141.439 106.634 141.226 106.348 141.226Z" fill="black"/>
<path d="M107.387 141.702C107.387 142.204 106.921 142.611 106.348 142.611C105.774 142.611 105.309 142.204 105.309 141.702C105.309 141.2 105.774 140.793 106.348 140.793C106.921 140.793 107.387 141.2 107.387 141.702Z" fill="#F0D365"/>
<path d="M113.101 138.455C113.101 139.459 112.171 140.273 111.023 140.273C109.876 140.273 108.945 139.459 108.945 138.455C108.945 137.451 109.876 136.637 111.023 136.637C112.171 136.637 113.101 137.451 113.101 138.455Z" fill="#F0D365"/>
<path d="M111.055 141.053C109.551 141.053 108.327 140.004 108.327 138.715C108.327 137.426 109.551 136.377 111.055 136.377C112.558 136.377 113.782 137.426 113.782 138.715C113.782 140.004 112.558 141.053 111.055 141.053ZM111.055 137.312C110.152 137.312 109.418 137.942 109.418 138.715C109.418 139.488 110.152 140.118 111.055 140.118C111.957 140.118 112.691 139.488 112.691 138.715C112.691 137.942 111.957 137.312 111.055 137.312Z" fill="black"/>
<g clip-path="url(#clip2)">
<path d="M173.293 130.761C172.723 131.631 172.388 132.662 172.388 133.773C172.388 136.85 174.93 139.345 178.066 139.345C179.115 139.345 180.095 139.06 180.939 138.572C182.268 141.489 185.245 143.524 188.711 143.524C192.156 143.524 195.116 141.512 196.457 138.624C197.566 139.088 198.785 139.345 200.066 139.345C205.161 139.345 209.292 135.291 209.292 130.29C209.292 125.452 205.422 121.511 200.557 121.259C200.7 120.577 200.775 119.87 200.775 119.145C200.775 113.375 196.009 108.697 190.13 108.697C185.461 108.697 181.504 111.652 180.069 115.756C178.694 114.821 177.027 114.27 175.227 114.27C170.524 114.27 166.711 118.012 166.711 122.628C166.711 126.591 169.523 129.901 173.293 130.761V130.761Z" fill="#D1A339"/>
<path d="M196.517 117.056C196.517 114.578 196.075 112.202 195.269 109.997C193.745 109.17 191.995 108.697 190.13 108.697C185.461 108.697 181.504 111.652 180.069 115.756C178.694 114.821 177.027 114.27 175.227 114.27C170.524 114.27 166.711 118.012 166.711 122.628C166.711 126.591 169.523 129.901 173.293 130.761C172.723 131.631 172.388 132.662 172.388 133.773C172.388 135.427 173.127 136.908 174.293 137.929C174.603 137.942 174.914 137.952 175.227 137.952C186.986 137.952 196.517 128.596 196.517 117.056Z" fill="#F0D365"/>
<path d="M169.547 149.094C169.547 149.864 168.911 150.487 168.127 150.487C167.344 150.487 166.708 149.864 166.708 149.094C166.708 148.325 167.344 147.701 168.127 147.701C168.911 147.701 169.547 148.325 169.547 149.094Z" fill="#F0D365"/>
<path d="M176.642 144.221C176.642 145.759 175.371 147.007 173.804 147.007C172.236 147.007 170.965 145.759 170.965 144.221C170.965 142.682 172.236 141.435 173.804 141.435C175.371 141.435 176.642 142.682 176.642 144.221Z" fill="#F0D365"/>
<path d="M188.71 144.22C185.329 144.22 182.232 142.394 180.622 139.511C179.815 139.859 178.944 140.041 178.065 140.041C174.543 140.041 171.677 137.229 171.677 133.772C171.677 132.878 171.872 132.001 172.246 131.192C168.526 129.956 166 126.553 166 122.627C166 117.634 170.139 113.572 175.226 113.572C176.81 113.572 178.346 113.966 179.716 114.719C181.501 110.667 185.581 108 190.129 108C196.39 108 201.484 113 201.484 119.145C201.484 119.642 201.45 120.141 201.382 120.635C206.274 121.27 210 125.37 210 130.289C210 135.667 205.543 140.041 200.065 140.041C198.942 140.041 197.847 139.86 196.801 139.502C195.192 142.388 192.086 144.22 188.71 144.22ZM180.938 137.876C181.01 137.876 181.083 137.887 181.154 137.909C181.346 137.969 181.503 138.107 181.585 138.288C182.843 141.045 185.639 142.827 188.71 142.827C191.756 142.827 194.543 141.064 195.809 138.335C195.97 137.991 196.381 137.835 196.733 137.983C197.789 138.424 198.91 138.648 200.065 138.648C204.761 138.648 208.581 134.898 208.581 130.289C208.581 125.849 205.039 122.188 200.519 121.955C200.312 121.943 200.121 121.845 199.994 121.684C199.868 121.524 199.819 121.317 199.861 121.119C199.996 120.471 200.065 119.808 200.065 119.145C200.065 113.767 195.608 109.393 190.129 109.393C185.891 109.393 182.117 112.04 180.739 115.981C180.667 116.188 180.501 116.349 180.289 116.417C180.077 116.485 179.846 116.452 179.664 116.328C178.354 115.437 176.818 114.965 175.226 114.965C170.922 114.965 167.419 118.403 167.419 122.627C167.419 126.206 169.9 129.272 173.452 130.083C173.677 130.134 173.863 130.29 173.949 130.499C174.036 130.71 174.013 130.948 173.888 131.138C173.371 131.928 173.097 132.839 173.097 133.772C173.097 136.46 175.325 138.648 178.065 138.648C178.943 138.648 179.812 138.414 180.578 137.971C180.689 137.908 180.813 137.876 180.938 137.876V137.876Z" fill="black"/>
<path d="M168.129 151.184C166.955 151.184 166 150.246 166 149.094C166 147.943 166.955 147.005 168.129 147.005C169.303 147.005 170.258 147.943 170.258 149.094C170.258 150.246 169.303 151.184 168.129 151.184ZM168.129 148.398C167.738 148.398 167.419 148.71 167.419 149.094C167.419 149.479 167.738 149.791 168.129 149.791C168.52 149.791 168.839 149.479 168.839 149.094C168.839 148.71 168.52 148.398 168.129 148.398Z" fill="black"/>
<path d="M173.807 147.702C171.851 147.702 170.259 146.139 170.259 144.219C170.259 142.299 171.851 140.736 173.807 140.736C175.764 140.736 177.356 142.299 177.356 144.219C177.356 146.139 175.764 147.702 173.807 147.702ZM173.807 142.129C172.634 142.129 171.678 143.067 171.678 144.219C171.678 145.371 172.634 146.309 173.807 146.309C174.981 146.309 175.936 145.371 175.936 144.219C175.936 143.067 174.981 142.129 173.807 142.129Z" fill="black"/>
<path d="M198.645 119.145H197.226C197.226 115.304 194.042 112.179 190.129 112.179V110.786C194.825 110.786 198.645 114.535 198.645 119.145Z" fill="black"/>
<g clip-path="url(#clip3)">
<path d="M190.784 119.875C190.449 119.839 190.111 119.818 189.767 119.831C187.085 119.926 184.736 121.49 183.431 122.922L183.431 130.002L183.886 130.053C185.258 130.206 186.208 130.634 186.709 131.326C187.264 132.091 187.116 132.987 187.058 133.244C186.863 134.098 187.376 134.967 188.255 135.133C188.751 135.226 189.25 135.272 189.746 135.272C190.095 135.272 190.441 135.241 190.784 135.196C194.663 134.688 197.658 131.449 197.626 127.506C197.591 123.313 194.14 120.236 190.784 119.875V119.875Z" fill="#818080"/>
<path d="M197.626 127.507C197.591 123.314 194.14 120.237 190.783 119.876V135.197C194.662 134.689 197.658 131.45 197.626 127.507Z" fill="#818080"/>
<path d="M191.586 125.752C190.974 125.151 190.974 124.172 191.586 123.571C192.199 122.97 193.195 122.97 193.808 123.571C194.421 124.172 194.421 125.151 193.808 125.752V125.752C193.196 126.353 192.199 126.353 191.586 125.752V125.752Z" fill="#88FE12"/>
<path d="M187.134 123.995C186.911 123.182 187.397 122.33 188.245 122.107C189.079 121.888 189.944 122.376 190.169 123.197C190.394 124.019 189.897 124.865 189.058 125.086C188.217 125.307 187.358 124.817 187.134 123.995V123.995Z" fill="#4226EB"/>
<path d="M185.283 127.993C184.446 127.772 183.948 126.925 184.172 126.104C184.395 125.285 185.253 124.792 186.095 125.014C186.935 125.234 187.432 126.079 187.207 126.902C186.981 127.729 186.118 128.212 185.283 127.993V127.993Z" fill="#FF435B"/>
<path d="M193.376 130.121C192.539 129.901 192.039 129.058 192.265 128.233C192.49 127.407 193.354 126.923 194.189 127.143C195.026 127.363 195.524 128.21 195.3 129.031C195.076 129.855 194.213 130.342 193.376 130.121V130.121Z" fill="#99341F"/>
<path d="M182.927 118.797C181.629 118.797 181.356 123.583 181.356 127.569C181.356 127.748 181.359 127.912 181.36 128.083L182.469 128.597H182.927H183.669L184.495 128.083C184.496 127.912 184.498 127.751 184.498 127.569C184.498 123.583 184.226 118.797 182.927 118.797V118.797Z" fill="#B35324"/>
<path d="M184.495 128.083C184.497 127.912 184.499 127.751 184.499 127.569C184.499 123.583 184.226 118.797 182.928 118.797V128.597H183.67L184.495 128.083Z" fill="#99341F"/>
<path d="M182.928 128.083H181.36C181.379 130.356 181.512 131.849 181.519 131.987H182.928H184.336C184.35 131.736 184.478 130.454 184.495 128.083H182.928Z" fill="#FFF7E6"/>
<path d="M184.495 128.083H182.928V131.987H184.336C184.35 131.736 184.478 130.454 184.495 128.083V128.083Z" fill="#FFCCB3"/>
<path d="M182.928 131.167C181.773 131.167 180.833 132.089 180.833 133.223V134.251C180.833 134.818 180.328 135.313 179.751 135.313V136.341H181.881C182.25 136.341 182.599 136.267 182.928 136.152C184.144 135.726 185.023 134.561 185.023 133.223C185.023 132.089 184.083 131.167 182.928 131.167Z" fill="#474F54"/>
<path d="M185.022 133.223C185.022 132.089 184.083 131.167 182.928 131.167V136.152C184.144 135.726 185.022 134.561 185.022 133.223Z" fill="#32393F"/>
<path d="M190.783 133.223C191.651 133.223 192.354 132.532 192.354 131.681C192.354 130.829 191.651 130.139 190.783 130.139C189.915 130.139 189.212 130.829 189.212 131.681C189.212 132.532 189.915 133.223 190.783 133.223Z" fill="#E64C3C"/>
<path d="M192.354 131.681C192.354 130.829 191.651 130.139 190.783 130.139V133.223C191.651 133.223 192.354 132.532 192.354 131.681Z" fill="#E64C3C"/>
</g>
</g>
<path d="M72.5369 128.027C73.0418 128.792 73.3388 129.7 73.3388 130.677C73.3388 133.385 71.0856 135.58 68.3066 135.58C67.3762 135.58 66.5076 135.329 65.7597 134.9C64.5815 137.467 61.9432 139.257 58.8711 139.257C55.8178 139.257 53.1941 137.487 52.0052 134.946C51.0226 135.354 49.9421 135.58 48.8066 135.58C44.29 135.58 40.6292 132.013 40.6292 127.612C40.6292 123.355 44.0587 119.888 48.3714 119.666C48.2442 119.065 48.1775 118.443 48.1775 117.806C48.1775 112.728 52.402 108.612 57.613 108.612C61.7515 108.612 65.2588 111.212 66.5307 114.823C67.75 114 69.2274 113.516 70.8227 113.516C74.9913 113.516 78.3711 116.809 78.3711 120.87C78.3711 124.357 75.8789 127.27 72.5369 128.027V128.027Z" fill="#D1A339"/>
<path d="M51.9508 115.967C51.9508 113.787 52.3427 111.697 53.0571 109.756C54.4085 109.029 55.9596 108.612 57.6121 108.612C61.7505 108.612 65.2578 111.212 66.5297 114.823C67.7491 114 69.2264 113.516 70.8217 113.516C74.9903 113.516 78.3701 116.809 78.3701 120.87C78.3701 124.357 75.8779 127.27 72.5359 128.027C73.0409 128.792 73.3379 129.7 73.3379 130.677C73.3379 132.132 72.683 133.436 71.6495 134.334C71.3746 134.346 71.0991 134.354 70.8217 134.354C60.3994 134.354 51.9508 126.122 51.9508 115.967Z" fill="#F0D365"/>
<path d="M75.854 144.16C75.854 144.837 76.4173 145.386 77.1121 145.386C77.8068 145.386 78.3701 144.837 78.3701 144.16C78.3701 143.483 77.8068 142.935 77.1121 142.935C76.4173 142.935 75.854 143.483 75.854 144.16Z" fill="#F0D365"/>
<path d="M69.5634 139.872C69.5634 141.225 70.6901 142.323 72.0796 142.323C73.4691 142.323 74.5957 141.225 74.5957 139.872C74.5957 138.518 73.4691 137.42 72.0796 137.42C70.6901 137.42 69.5634 138.518 69.5634 139.872Z" fill="#F0D365"/>
<path d="M58.871 139.871C61.8672 139.871 64.6127 138.264 66.0394 135.728C66.7548 136.033 67.5272 136.194 68.3065 136.194C71.4277 136.194 73.9677 133.719 73.9677 130.677C73.9677 129.891 73.7954 129.119 73.464 128.408C76.7612 127.32 79 124.325 79 120.871C79 116.478 75.3315 112.903 70.8226 112.903C69.4186 112.903 68.0574 113.25 66.8426 113.912C65.2602 110.347 61.6445 108 57.6129 108C52.0637 108 47.5484 112.4 47.5484 117.806C47.5484 118.245 47.5785 118.684 47.6384 119.118C43.3024 119.676 40 123.285 40 127.613C40 132.345 43.9502 136.194 48.8065 136.194C49.801 136.194 50.7716 136.034 51.6994 135.719C53.1249 138.259 55.8782 139.871 58.871 139.871ZM65.7596 134.289C65.6954 134.289 65.6306 134.299 65.5683 134.318C65.3978 134.371 65.2587 134.492 65.1859 134.651C64.0712 137.077 61.5929 138.645 58.871 138.645C56.1712 138.645 53.7008 137.094 52.5782 134.692C52.436 134.39 52.0717 134.252 51.759 134.383C50.8232 134.771 49.8299 134.968 48.8065 134.968C44.644 134.968 41.2581 131.669 41.2581 127.613C41.2581 123.706 44.3971 120.484 48.4038 120.279C48.5868 120.269 48.7567 120.183 48.8688 120.041C48.9806 119.9 49.0242 119.718 48.9871 119.543C48.8676 118.974 48.8065 118.39 48.8065 117.806C48.8065 113.075 52.7566 109.226 57.6129 109.226C61.3696 109.226 64.7147 111.555 65.9356 115.023C65.9998 115.205 66.1469 115.346 66.3346 115.406C66.5226 115.466 66.7277 115.437 66.8887 115.328C68.0503 114.544 69.4109 114.129 70.8226 114.129C74.6376 114.129 77.7419 117.154 77.7419 120.871C77.7419 124.02 75.5428 126.717 72.3945 127.432C72.1952 127.476 72.0309 127.614 71.9541 127.798C71.8773 127.983 71.8976 128.193 72.0082 128.36C72.4667 129.055 72.7097 129.856 72.7097 130.677C72.7097 133.043 70.7344 134.968 68.3065 134.968C67.5278 134.968 66.7572 134.762 66.0784 134.372C65.9801 134.317 65.8702 134.289 65.7596 134.289V134.289Z" fill="black"/>
<path d="M77.1129 145.999C78.1532 145.999 79 145.174 79 144.16C79 143.146 78.1532 142.321 77.1129 142.321C76.0726 142.321 75.2258 143.146 75.2258 144.16C75.2258 145.174 76.0726 145.999 77.1129 145.999ZM77.1129 143.547C77.4594 143.547 77.7419 143.822 77.7419 144.16C77.7419 144.498 77.4594 144.773 77.1129 144.773C76.7664 144.773 76.4839 144.498 76.4839 144.16C76.4839 143.822 76.7664 143.547 77.1129 143.547Z" fill="black"/>
<path d="M72.0794 142.935C73.8136 142.935 75.2246 141.56 75.2246 139.87C75.2246 138.181 73.8136 136.806 72.0794 136.806C70.3453 136.806 68.9343 138.181 68.9343 139.87C68.9343 141.56 70.3453 142.935 72.0794 142.935ZM72.0794 138.031C73.1197 138.031 73.9665 138.857 73.9665 139.87C73.9665 140.884 73.1197 141.709 72.0794 141.709C71.0391 141.709 70.1924 140.884 70.1924 139.87C70.1924 138.857 71.0391 138.031 72.0794 138.031Z" fill="black"/>
<path d="M50.0639 117.806H51.322C51.322 114.426 54.1437 111.677 57.6123 111.677V110.451C53.4499 110.451 50.0639 113.75 50.0639 117.806Z" fill="black"/>
<path d="M52.1643 123.209C52.0091 123.288 51.8332 123.351 51.6364 123.396C51.8332 123.441 52.0091 123.504 52.1643 123.583L54.5935 124.809C54.6691 124.851 54.7221 124.898 54.7524 124.951C54.7864 125.004 54.8035 125.063 54.8035 125.127V125.922L50.3878 123.623V123.169L54.8035 120.87V121.665C54.8035 121.729 54.7864 121.788 54.7524 121.841C54.7221 121.894 54.6691 121.941 54.5935 121.983L52.1643 123.209ZM57.506 127.307C57.453 127.45 57.3698 127.556 57.2562 127.624C57.1427 127.696 57.0254 127.732 56.9043 127.732H56.4389L59.8216 119.241C59.8746 119.113 59.9503 119.014 60.0487 118.946C60.1508 118.874 60.2681 118.839 60.4006 118.839H60.8716L57.506 127.307ZM66.9171 123.169V123.623L62.5014 125.922V125.127C62.5014 125.063 62.5166 125.004 62.5469 124.951C62.5809 124.898 62.6358 124.851 62.7114 124.809L65.1406 123.583C65.292 123.504 65.4679 123.441 65.6685 123.396C65.4679 123.351 65.292 123.288 65.1406 123.209L62.7114 121.983C62.6358 121.941 62.5809 121.894 62.5469 121.841C62.5166 121.788 62.5014 121.729 62.5014 121.665V120.87L66.9171 123.169Z" fill="black"/>
<path d="M124.538 358.401C121.98 358.478 119.419 358.474 116.861 358.384C114.307 358.563 111.748 358.656 109.189 358.669L110.279 421.021C110.346 424.853 111.961 428.293 114.521 430.761C115.588 431.788 116.82 432.645 118.171 433.291C122.683 430.933 125.725 426.181 125.629 420.754L124.538 358.401Z" fill="#491352"/>
<path d="M109.174 357.865C111.894 358.141 114.622 358.311 117.352 358.397C120.078 358.216 122.798 357.951 125.507 357.581L125.036 330.636C122.313 330.758 119.588 330.754 116.866 330.628C114.152 330.85 111.428 330.947 108.703 330.921L109.174 357.865Z" fill="#ECCDFF"/>
<path d="M190.334 188.624C155.396 163.132 105.95 166.629 75.058 198.553C44.1621 230.48 42.388 279.922 69.1456 313.876C81.0737 322.575 94.6929 327.899 108.688 329.864C117.914 331.163 127.307 330.999 136.482 329.38C154.151 326.269 171.027 317.771 184.414 303.937C215.306 272.014 217.083 222.579 190.334 188.624Z" fill="#491352"/>
<path d="M169.363 192.984C196.939 219.559 197.709 263.566 171.079 291.085C144.449 318.604 100.35 319.372 72.774 292.797C45.1979 266.223 44.4282 222.215 71.058 194.697C97.6879 167.178 141.787 166.41 169.363 192.984Z" fill="#818080"/>
<path d="M177.197 199.605C149.731 180.813 111.788 183.969 87.9011 208.653C64.0142 233.338 62.1774 271.289 81.9561 298.025C109.422 316.818 147.365 313.661 171.252 288.977C195.139 264.293 196.975 226.341 177.197 199.605Z" fill="#B1D8E4"/>
<path d="M142.714 420.457L141.187 333.16C158.983 329.25 175.014 320.31 187.749 307.15C223.255 270.458 222.229 211.782 185.461 176.349C148.693 140.916 89.8941 141.94 54.3876 178.632C18.8811 215.324 19.9075 274 56.6755 309.433C69.8632 322.142 86.1965 330.518 104.118 333.806L104.54 357.935C104.54 357.94 104.54 357.943 104.539 357.947L105.645 421.103C105.732 426.046 107.741 430.657 111.301 434.089C114.862 437.52 119.55 439.363 124.501 439.276C129.453 439.191 134.075 437.188 137.516 433.632C140.957 430.076 142.802 425.397 142.714 420.457V420.457ZM113.411 335.041C119.589 335.549 125.789 335.441 131.943 334.718L132.268 353.273C126.112 353.889 119.909 353.997 113.736 353.596L113.411 335.041ZM61.0557 185.058C93.0118 152.035 145.93 151.113 179.022 183.003C212.113 214.893 213.037 267.701 181.081 300.724C168.789 313.425 153.089 321.759 135.675 324.825C126.961 326.363 118.098 326.517 109.335 325.283L109.334 325.285C91.8251 322.826 75.8427 315.044 63.1148 302.779C30.0233 270.889 29.0996 218.081 61.0557 185.058V185.058ZM124.341 430.028C121.865 430.07 119.521 429.15 117.74 427.434C115.96 425.719 114.957 423.413 114.912 420.942L113.898 362.869C120.072 363.231 126.271 363.124 132.43 362.546L133.446 420.62C133.489 423.09 132.568 425.428 130.848 427.206C129.127 428.984 126.818 429.984 124.341 430.028Z" fill="black"/>
<path d="M174.203 294.048C202.609 264.694 201.788 217.754 172.373 189.407C142.958 161.06 95.9199 161.88 67.5142 191.234C39.1085 220.588 39.9295 267.528 69.3445 295.874C98.7595 324.221 145.797 323.402 174.203 294.048ZM75.7838 289.22C50.0467 264.418 49.3282 223.343 74.1823 197.66C99.0363 171.976 140.196 171.259 165.933 196.061C191.671 220.864 192.389 261.938 167.535 287.622C142.681 313.306 101.521 314.023 75.7838 289.22Z" fill="black"/>
<path d="M152.212 220.212V220.212C152.192 217.184 149.976 214.62 146.983 214.16L144.011 213.703" stroke="black" stroke-width="2.78459"/>
<path d="M128.28 227.846L128.66 227.417C134.032 221.35 143.504 221.36 148.863 227.437V227.437" stroke="black" stroke-width="2.36759"/>
<path d="M105.799 243.265L106.544 247.969C107.517 254.117 113.43 258.205 119.535 256.95V256.95" stroke="black" stroke-width="5.09856"/>
<path d="M91.7434 221.01V221.01C91.6847 217.982 93.8326 215.361 96.8122 214.823L99.7707 214.289" stroke="black" stroke-width="2.78459"/>
<path d="M95.0762 228.534L95.4563 228.105C100.828 222.039 110.299 222.049 115.659 228.126V228.126" stroke="black" stroke-width="2.36759"/>
<path d="M169.647 218.949L174.055 224.49C182.8 235.484 182.939 251.014 174.391 262.152L172.768 264.267" stroke="black" stroke-width="4.07884"/>
<ellipse rx="2.74064" ry="2.74044" transform="matrix(0.720062 0.693909 -0.695406 0.718616 170.028 268.993)" fill="black"/>
<ellipse cx="152.495" cy="257.681" rx="8.47516" ry="7.85344" fill="#FABAFC"/>
<ellipse cx="87.1158" cy="258.889" rx="8.47514" ry="7.85344" fill="#FABAFC"/>
<path d="M169.444 318.092L236 303" stroke="black" stroke-width="1.207"/>
</g>
<defs>
<clipPath id="clip0">
<rect width="499.8" height="476" fill="white"/>
</clipPath>
<clipPath id="clip1">
<rect width="258.841" height="258.841" fill="white" transform="translate(233 88)"/>
</clipPath>
<clipPath id="clip2">
<rect width="44" height="43.1852" fill="white" transform="translate(166 108)"/>
</clipPath>
<clipPath id="clip3">
<rect width="17.875" height="17.544" fill="white" transform="translate(179.751 118.796)"/>
</clipPath>
</defs>
</svg>
