<svg width="473" height="400" viewBox="0 0 473 400" fill="none" xmlns="http://www.w3.org/2000/svg">
<ellipse cx="70.5" cy="383.5" rx="69.5" ry="6.5" fill="#C4C4C4"/>
<path d="M345.709 181.753L362.184 170.998L366.651 168.364C367.882 167.638 369.164 167.001 370.486 166.458L378.526 163.155L394.495 158.571L415.657 154.982" stroke="black" stroke-width="2"/>
<g clip-path="url(#clip0)">
<path d="M451.248 156.811H446.669L445.906 156.285L446.669 155.548L448.959 154.707L453.806 155.548C453.176 156.322 452.263 156.811 451.248 156.811Z" fill="#D5DEF0"/>
<path d="M468.421 139.14V140.402L467.2 141.496L466.131 140.402V139.14C466.131 135.66 463.563 132.829 460.407 132.829C457.251 132.829 454.683 135.66 454.683 139.14V153.024C454.683 153.994 454.351 154.878 453.806 155.549H446.669L445.906 154.897L446.669 154.287H451.249C451.88 154.287 452.394 153.72 452.394 153.024V139.14C452.394 134.268 455.989 130.304 460.407 130.304C464.826 130.304 468.421 134.268 468.421 139.14Z" fill="#C2C9DA"/>
<path d="M467.2 170.695H463.842C461.948 170.695 460.407 168.997 460.407 166.909V155.549L463.994 154.707L467.2 155.549L467.963 163.416L467.2 170.695Z" fill="#FDBF00"/>
<path d="M467.2 155.549H460.407V144.189C460.407 142.101 461.948 140.402 463.842 140.402H467.2L467.963 147.975L467.2 155.549Z" fill="#FF9721"/>
<path d="M473 166.909C473 168.997 471.459 170.695 469.566 170.695H467.2V163.934C467.035 163.459 466.619 163.122 466.131 163.122H459.262C457.998 163.122 456.973 161.992 456.973 160.597C456.973 159.203 457.998 158.073 459.262 158.073H466.131C466.619 158.073 467.035 157.735 467.2 157.261V155.549L470.71 154.286L473 155.549V166.909Z" fill="#FFDA2D"/>
<path d="M473 144.189V155.549H467.2V153.836C467.035 153.362 466.619 153.024 466.131 153.024H461.552C460.287 153.024 459.262 151.894 459.262 150.5C459.262 149.106 460.287 147.975 461.552 147.975H466.131C466.619 147.975 467.035 147.638 467.2 147.163V140.402H469.566C471.459 140.402 473 142.101 473 144.189Z" fill="#FDBF00"/>
<path d="M446.669 159.336V151.763H434V159.336H446.669Z" fill="#D58678"/>
<path d="M446.669 155.566V151.761H434V155.566H446.669Z" fill="#B95D4C"/>
</g>
<path d="M421.918 157.201C421.918 157.646 421.927 158.089 421.925 158.531C421.987 158.952 422.449 159.702 422.716 159.969C423.479 160.732 424.593 161.763 425.719 161.823C426.094 161.842 427.493 162.014 427.784 161.776C428.286 161.365 428.268 160.582 428.256 159.956C428.121 159.551 428.253 158.759 428.253 158.444V159.711C428.253 159.789 428.254 159.871 428.256 159.956C428.268 160.582 428.286 161.365 427.784 161.776C427.493 162.014 426.094 161.842 425.719 161.823C424.593 161.763 423.479 160.732 422.716 159.969C422.449 159.702 421.987 158.952 421.925 158.531C421.921 158.5 421.918 158.471 421.918 158.444V157.201Z" fill="#F6DB40"/>
<path d="M414.951 154.01C414.4 156.831 414.905 160.65 417.695 162.045C419.101 162.748 421.316 162.687 421.719 160.872C421.983 159.685 421.918 158.446 421.918 157.201C421.918 157.198 421.918 158.122 421.918 158.444C421.918 158.841 422.43 159.683 422.716 159.969C423.479 160.732 424.593 161.763 425.719 161.823C426.094 161.842 427.493 162.014 427.784 161.776C428.354 161.309 428.253 160.362 428.253 159.711C428.253 159.078 428.253 158.444 428.253 157.811C428.253 156.433 428.253 157.749 428.253 158.444C428.253 158.821 428.064 159.883 428.37 160.145C428.977 160.665 429.721 161.078 430.446 161.4C431.321 161.789 433.508 162.674 434.482 161.916C438.654 158.671 434.625 153.414 431.96 150.749C430.82 149.609 429.545 149.538 428.089 149.107C427.161 148.832 425.968 148.836 424.992 148.989C423.883 149.163 422.633 149.747 421.543 149.787C419.788 149.852 417.627 150.54 416.17 151.476C414.591 152.492 413.87 153.303 414.528 155.277" stroke="black" stroke-width="2" stroke-linecap="round" stroke-linejoin="round"/>
<g clip-path="url(#clip1)">
<path d="M36.5609 56.061C33.8959 51.6325 28.4874 50.6889 24.4791 53.9545L20.1259 57.5012C16.1178 60.7667 15.0307 67.0024 17.6957 71.4309L19.3907 74.2474L28.75 66.6222L30.1147 68.89L16.4001 80.0732C12.393 83.3379 11.3053 89.5742 13.9711 94.0041L16.8663 98.815C19.5314 103.244 24.9401 104.187 28.9471 100.923L33.1125 97.5289L27.5417 88.2719L46.6037 72.7417L36.5609 56.061ZM21.7049 68.7607C21.1212 69.2363 20.3336 69.0989 19.9459 68.4547C19.5579 67.81 19.7161 66.9016 20.2998 66.426C20.8826 65.9513 21.6704 66.0888 22.0585 66.7336C22.446 67.3779 22.2876 68.286 21.7049 68.7607Z" fill="black"/>
<path d="M48.5067 60.3847L44.3413 63.7784L49.912 73.0354L30.8501 88.5656L40.8929 105.247C43.5579 109.675 48.9666 110.618 52.9747 107.353L57.3279 103.806C61.3361 100.541 62.4231 94.3051 59.7581 89.8766L58.0632 87.0601L48.7039 94.6853L47.3391 92.4174L61.0537 81.2343C65.0607 77.9697 66.1486 71.7333 63.4828 67.3035L60.5875 62.4924C57.9225 58.0635 52.5138 57.12 48.5067 60.3847ZM55.7491 92.5466C56.333 92.071 57.1204 92.2085 57.508 92.8526C57.8961 93.4974 57.738 94.4057 57.1541 94.8814C56.5714 95.3561 55.7835 95.2185 55.3955 94.5737C55.0079 93.9296 55.1664 93.0214 55.7491 92.5466Z" fill="black"/>
</g>
<path d="M420.887 324.77C420.746 327.337 418.056 376.53 417.933 378.782C417.815 380.439 416.437 381.722 414.777 381.722H368.462C366.802 381.722 365.108 380.439 364.99 378.782C364.869 376.579 362.232 328.344 362.036 324.77H420.887Z" fill="#C4C5C6"/>
<path d="M424.051 320.025V320.023C424.051 317.402 421.926 315.277 419.305 315.277H363.618C360.996 315.277 358.872 317.402 358.872 320.023V320.025C358.874 322.646 360.996 324.77 363.618 324.77H372.477C374.225 324.77 375.641 326.185 375.641 327.934V340.59C375.641 342.337 377.057 343.753 378.805 343.753C380.554 343.753 381.969 342.337 381.969 340.59V337.426C381.969 335.678 383.385 334.262 385.133 334.262C386.881 334.262 388.298 335.678 388.298 337.426V343.753C388.298 345.502 389.713 346.917 391.462 346.917C393.209 346.917 394.625 345.502 394.625 343.753V334.262C394.625 332.513 396.041 331.098 397.789 331.098C399.537 331.098 400.953 332.513 400.953 334.262V337.426C400.953 339.173 402.37 340.59 404.117 340.59C405.865 340.59 407.281 339.173 407.281 337.426V327.934C407.281 326.185 408.697 324.77 410.445 324.77H419.305C421.897 324.77 424.051 322.67 424.051 320.025V320.025Z" fill="#F6DB40"/>
<path d="M378.964 362.002C378.416 363.644 379.318 365.539 381.017 366.026C387.815 367.973 395.106 367.973 401.905 366.026C403.236 365.644 404.117 364.377 404.117 362.994C404.117 360.881 402.102 359.397 400.043 359.976C394.603 361.508 388.631 361.596 382.879 359.976C381.172 359.493 379.476 360.44 378.964 362.002V362.002Z" fill="#3A5361"/>
<path d="M391.502 373.812C392.375 373.812 393.084 374.521 393.084 375.395C393.084 376.268 392.375 376.977 391.502 376.977C390.628 376.977 389.92 376.268 389.92 375.395C389.92 374.521 390.628 373.812 391.502 373.812V373.812Z" fill="black"/>
<path d="M357.502 318.558C358.165 315.774 360.672 313.695 363.657 313.695H419.344C422.328 313.695 424.834 315.773 425.498 318.558C429.086 319.133 431.453 321.869 431.928 326.115C431.99 326.67 432.046 327.58 431.942 328.128C431.871 337.231 427.051 346.61 420.952 353.263L419.551 378.869C419.551 378.878 419.551 378.887 419.55 378.895C419.373 381.367 417.293 383.304 414.816 383.304H368.501C365.934 383.304 363.622 381.285 363.45 378.895C363.45 378.887 363.449 378.877 363.449 378.869C363.315 376.826 362.252 357.03 362.132 354.797C355.708 348.258 351.222 338.672 351.002 327.505C350.92 323.331 353.022 319.276 357.502 318.558V318.558ZM419.344 316.859H363.657C362.023 316.859 360.674 318.105 360.51 319.697C360.554 319.91 360.555 320.129 360.509 320.347C360.673 321.94 362.022 323.187 363.657 323.187H372.516C375.133 323.187 377.262 325.316 377.262 327.934V340.59C377.262 341.462 377.972 342.172 378.844 342.172C379.716 342.172 380.426 341.462 380.426 340.59V337.426C380.426 334.809 382.555 332.68 385.172 332.68C387.789 332.68 389.919 334.809 389.919 337.426V343.754C389.919 344.626 390.628 345.336 391.501 345.336C392.373 345.336 393.083 344.626 393.083 343.754V334.262C393.083 331.645 395.212 329.516 397.828 329.516C400.445 329.516 402.574 331.645 402.574 334.262V337.426C402.574 338.298 403.284 339.008 404.156 339.008C405.029 339.008 405.738 338.298 405.738 337.426V327.934C405.738 325.316 407.867 323.187 410.484 323.187H419.344C420.948 323.187 422.316 321.984 422.488 320.361C422.44 320.141 422.437 319.919 422.489 319.683C422.318 318.098 420.973 316.859 419.344 316.859V316.859ZM378.153 360.224C379.292 358.646 381.345 357.886 383.346 358.451C385.992 359.196 388.735 359.574 391.5 359.574C394.265 359.574 397.008 359.196 399.654 358.451C401.634 357.894 403.659 358.627 404.81 360.172C409.148 359.088 413.727 356.202 417.856 351.938L419.255 326.352H410.484C409.612 326.352 408.902 327.061 408.902 327.934V337.425C408.902 340.042 406.773 342.171 404.156 342.171C401.539 342.171 399.41 340.042 399.41 337.425V334.261C399.41 333.389 398.701 332.679 397.828 332.679C396.956 332.679 396.246 333.389 396.246 334.261V343.753C396.246 346.37 394.117 348.499 391.5 348.499C388.883 348.499 386.754 346.37 386.754 343.753V337.425C386.754 336.553 386.044 335.843 385.172 335.843C384.3 335.843 383.59 336.553 383.59 337.425V340.589C383.59 343.206 381.461 345.335 378.844 345.335C376.227 345.335 374.098 343.206 374.098 340.589V327.934C374.098 327.061 373.388 326.352 372.516 326.352H363.746L365.225 353.401C369.021 356.982 373.462 359.325 378.153 360.224V360.224ZM402.493 362.485C402.238 361.722 401.399 361.247 400.511 361.497C397.587 362.32 394.555 362.738 391.501 362.738C388.446 362.738 385.414 362.32 382.487 361.496C381.453 361.204 380.426 361.914 380.426 362.992C380.426 363.702 380.865 364.323 381.492 364.503C384.732 365.431 388.099 365.902 391.501 365.902C394.901 365.902 398.269 365.431 401.509 364.503C402.342 364.264 402.766 363.291 402.493 362.485V362.485ZM428.833 327.521C428.862 326.851 428.729 324.438 427.41 322.945C426.889 322.354 426.233 321.965 425.428 321.765C424.975 323.352 423.916 324.71 422.468 325.528L421.242 347.969C429.406 337.109 428.675 328.108 428.833 327.521ZM368.501 380.14H414.816C415.638 380.14 416.329 379.5 416.393 378.68L416.487 376.976H397.409C396.535 376.976 395.827 376.268 395.827 375.394C395.827 374.52 396.535 373.812 397.409 373.812H416.66L417.604 356.541C413.792 359.874 409.7 362.175 405.73 363.202C405.642 365.228 404.292 366.997 402.38 367.544C398.856 368.554 395.196 369.066 391.501 369.066C387.804 369.066 384.144 368.554 380.62 367.544C378.732 367.004 377.39 365.271 377.273 363.274C373.064 362.421 369.052 360.545 365.464 357.765L366.341 373.812H385.172C386.046 373.812 386.755 374.521 386.755 375.394C386.755 376.268 386.046 376.976 385.172 376.976H366.514L366.607 378.68C366.668 379.418 367.602 380.14 368.501 380.14ZM354.167 327.521C354.313 328.06 353.633 339.085 361.852 349.675L360.532 325.524C359.112 324.713 358.034 323.368 357.574 321.764C356.768 321.963 356.112 322.354 355.59 322.945C354.272 324.438 354.139 326.851 354.167 327.521Z" fill="black"/>
<path d="M98.9669 286.045C101.572 288.716 104.262 291.306 107.037 293.803C109.534 296.578 112.123 299.268 114.795 301.873L50.366 366.302C46.4064 370.262 41.2219 372.241 36.0321 372.241C33.8701 372.241 31.7081 371.893 29.6359 371.204C27.2971 364.156 28.9285 356.081 34.538 350.474L98.9669 286.045Z" fill="#491352"/>
<path d="M115.625 301.043C112.492 298.577 109.459 295.993 106.507 293.319C103.833 290.368 101.249 287.334 98.7834 284.201L126.625 256.359C129.357 259.245 132.219 262.001 135.202 264.624C137.823 267.607 140.582 270.469 143.467 273.201L115.625 301.043Z" fill="#ECCDFF"/>
<path d="M202.273 40.9629C264.791 49.558 313.102 103.314 313.102 168.155C313.102 233.004 264.781 286.765 202.255 295.35C180.915 292.412 161.228 284.212 144.555 272.104C133.56 264.124 123.875 254.438 115.895 243.444C100.521 222.278 91.4453 196.253 91.4453 168.155C91.4453 103.314 139.756 49.558 202.273 40.9629Z" fill="#491352"/>
<path d="M219.844 66.7891C163.949 66.7891 118.477 112.262 118.477 168.156C118.477 224.051 163.949 269.523 219.844 269.523C275.738 269.523 321.211 224.051 321.211 168.156C321.211 112.262 275.738 66.7891 219.844 66.7891Z" fill="white"/>
<path d="M204.906 65.8105C252.786 73.8777 289.379 115.626 289.379 165.763C289.379 215.9 252.786 257.648 204.906 265.715C157.026 257.648 120.434 215.9 120.434 165.763C120.434 115.626 157.026 73.8777 204.906 65.8105Z" fill="#B1D8E4"/>
<path d="M16.9193 332.857L107.123 242.653C92.4273 220.519 84.6875 194.887 84.6875 168.156C84.6875 93.6302 145.318 33 219.844 33C294.37 33 355 93.6302 355 168.156C355 242.682 294.37 303.312 219.844 303.312C193.113 303.312 167.481 295.573 145.347 280.877L120.414 305.81C120.409 305.815 120.406 305.818 120.404 305.823L55.1432 371.081C50.0352 376.189 43.2484 379 36.0312 379C28.8141 379 22.0273 376.189 16.9219 371.083C11.814 365.978 9 359.191 9 351.969C9 344.746 11.814 337.959 16.9193 332.857ZM134.347 272.762C127.351 267.039 120.958 260.646 115.238 253.653L96.0649 272.826C101.896 279.708 108.292 286.104 115.174 291.935L134.347 272.762ZM341.484 168.156C341.484 101.082 286.918 46.5156 219.844 46.5156C152.77 46.5156 98.2031 101.082 98.2031 168.156C98.2031 193.955 106.212 218.615 121.364 239.475C128.943 249.918 138.082 259.057 148.525 266.636V266.638C169.385 281.788 194.045 289.797 219.844 289.797C286.918 289.797 341.484 235.23 341.484 168.156ZM26.4753 361.525C29.0306 364.077 32.4227 365.484 36.0312 365.484C39.6398 365.484 43.0319 364.077 45.5872 361.525L105.592 301.517C98.7496 295.644 92.356 289.253 86.4825 282.408L26.4753 342.415C23.9226 344.968 22.5156 348.358 22.5156 351.969C22.5156 355.58 23.9226 358.969 26.4753 361.525Z" fill="black"/>
<path d="M111.719 168.156C111.719 108.534 160.222 60.0312 219.844 60.0312C279.466 60.0312 327.969 108.534 327.969 168.156C327.969 227.778 279.466 276.281 219.844 276.281C160.222 276.281 111.719 227.778 111.719 168.156ZM219.844 262.766C272.011 262.766 314.453 220.323 314.453 168.156C314.453 115.989 272.011 73.5469 219.844 73.5469C167.677 73.5469 125.234 115.989 125.234 168.156C125.234 220.323 167.677 262.766 219.844 262.766Z" fill="black"/>
<path d="M204.2 150.305C207.927 150.305 211.392 152.385 213.958 156.164C216.42 159.789 217.775 164.587 217.775 169.674C217.775 172.908 217.211 176.108 216.143 178.928L215.673 180.17L214.457 179.516C211.378 177.859 207.831 176.983 204.2 176.983C200.569 176.983 197.022 177.859 193.944 179.516L192.728 180.17L192.257 178.928C191.189 176.109 190.625 172.908 190.625 169.674C190.625 164.587 191.98 159.789 194.442 156.164C197.008 152.385 200.473 150.305 204.2 150.305ZM212.078 174.639C212.902 174.87 213.878 174.083 214.256 172.883C214.635 171.682 214.273 170.521 213.448 170.291C212.623 170.06 211.648 170.847 211.27 172.048C210.891 173.248 211.253 174.409 212.078 174.639Z" fill="black"/>
<path d="M204.2 150.305C207.927 150.305 211.392 152.385 213.958 156.164C216.42 159.789 217.775 164.587 217.775 169.674C217.775 172.908 217.211 176.108 216.143 178.928L215.673 180.17L214.457 179.516C211.378 177.859 207.831 176.983 204.2 176.983C200.569 176.983 197.022 177.859 193.944 179.516L192.728 180.17L192.257 178.928C191.189 176.109 190.625 172.908 190.625 169.674C190.625 164.587 191.98 159.789 194.442 156.164C197.008 152.385 200.473 150.305 204.2 150.305ZM212.078 174.639C212.902 174.87 213.878 174.083 214.256 172.883C214.635 171.682 214.273 170.521 213.448 170.291C212.623 170.06 211.648 170.847 211.27 172.048C210.891 173.248 211.253 174.409 212.078 174.639Z" fill="black"/>
<ellipse rx="2.0363" ry="3.39384" transform="matrix(-1 0 0 1 213.021 172.704)" fill="#E4FBFF"/>
<ellipse rx="2.0363" ry="3.39384" transform="matrix(-1 0 0 1 213.021 172.704)" fill="#E4FBFF"/>
<ellipse rx="2.0363" ry="3.39384" transform="matrix(-1 0 0 1 213.021 172.704)" fill="black"/>
<rect width="23.0781" height="6.78768" transform="matrix(-1 0 0 1 216.416 173.381)" fill="black"/>
<path d="M193.339 179.486L192.66 180.165H193.339V179.486Z" fill="black"/>
<circle r="2.71507" transform="matrix(-1 0 0 1 208.272 172.026)" fill="#E4FBFF"/>
<path d="M184.724 149.155V149.155C184.716 144.727 187.924 140.948 192.295 140.237L196.635 139.531" stroke="black" stroke-width="4.07261"/>
<path d="M245.957 150.305C249.684 150.305 253.149 152.385 255.715 156.164C258.176 159.789 259.532 164.587 259.532 169.674C259.532 172.908 258.968 176.108 257.9 178.928L257.429 180.17L256.213 179.516C253.135 177.859 249.588 176.983 245.957 176.983C242.325 176.983 238.779 177.859 235.701 179.516L234.485 180.17L234.014 178.928C232.946 176.109 232.382 172.908 232.382 169.674C232.382 164.587 233.737 159.789 236.199 156.164C238.764 152.385 242.23 150.305 245.957 150.305ZM253.835 174.639C254.659 174.87 255.635 174.083 256.013 172.883C256.392 171.682 256.029 170.521 255.204 170.291C254.38 170.06 253.405 170.847 253.027 172.048C252.648 173.248 253.01 174.409 253.835 174.639Z" fill="black"/>
<path d="M245.957 150.305C249.684 150.305 253.149 152.385 255.715 156.164C258.176 159.789 259.532 164.587 259.532 169.674C259.532 172.908 258.968 176.108 257.9 178.928L257.429 180.17L256.213 179.516C253.135 177.859 249.588 176.983 245.957 176.983C242.325 176.983 238.779 177.859 235.701 179.516L234.485 180.17L234.014 178.928C232.946 176.109 232.382 172.908 232.382 169.674C232.382 164.587 233.737 159.789 236.199 156.164C238.764 152.385 242.23 150.305 245.957 150.305ZM253.835 174.639C254.659 174.87 255.635 174.083 256.013 172.883C256.392 171.682 256.029 170.521 255.204 170.291C254.38 170.06 253.405 170.847 253.027 172.048C252.648 173.248 253.01 174.409 253.835 174.639Z" fill="black"/>
<ellipse rx="2.0363" ry="3.39384" transform="matrix(-1 0 0 1 254.78 172.704)" fill="#E4FBFF"/>
<ellipse rx="2.0363" ry="3.39384" transform="matrix(-1 0 0 1 254.78 172.704)" fill="#E4FBFF"/>
<ellipse rx="2.0363" ry="3.39384" transform="matrix(-1 0 0 1 254.78 172.704)" fill="black"/>
<rect width="23.0781" height="6.78768" transform="matrix(-1 0 0 1 258.175 173.381)" fill="black"/>
<path d="M235.098 179.486L234.419 180.165H235.098V179.486Z" fill="black"/>
<circle r="2.71507" transform="matrix(-1 0 0 1 250.03 172.026)" fill="#E4FBFF"/>
<path d="M265.485 147.798V147.798C265.493 143.369 262.285 139.59 257.914 138.88L253.574 138.174" stroke="black" stroke-width="4.07261"/>
<path d="M229.725 207.702L219.592 207.489C210.715 207.303 204.262 198.992 206.281 190.346V190.346" stroke="black" stroke-width="7.4569"/>
<path d="M193.19 93.7889L182.932 95.1496C162.6 97.8464 146.706 114.022 144.365 134.397L143.922 138.258" stroke="black" stroke-width="5.96552"/>
<circle r="4" transform="matrix(-1 0 0 1 142 146)" fill="black"/>
<defs>
<clipPath id="clip0">
<rect width="43" height="39" fill="white" transform="matrix(0 -1 -1 0 473 172)"/>
</clipPath>
<clipPath id="clip1">
<rect width="60" height="60" fill="white" transform="matrix(0.77527 -0.63163 0.515622 0.856816 0 73.8984)"/>
</clipPath>
</defs>
</svg>
