<svg width="473" height="400" viewBox="0 0 473 400" fill="none" xmlns="http://www.w3.org/2000/svg">
<ellipse cx="70.5" cy="383.5" rx="69.5" ry="6.5" fill="#C4C4C4"/>
<path d="M345.709 181.753L362.184 170.998L366.651 168.364C367.882 167.638 369.164 167.001 370.486 166.458L378.526 163.155L394.495 158.571L415.657 154.982" stroke="black" stroke-width="2"/>
<g clip-path="url(#clip0)">
<path d="M451.248 156.811H446.669L445.906 156.285L446.669 155.548L448.959 154.707L453.806 155.548C453.176 156.322 452.263 156.811 451.248 156.811Z" fill="#D5DEF0"/>
<path d="M468.421 139.14V140.402L467.2 141.496L466.131 140.402V139.14C466.131 135.66 463.563 132.829 460.407 132.829C457.251 132.829 454.683 135.66 454.683 139.14V153.024C454.683 153.994 454.351 154.878 453.806 155.549H446.669L445.906 154.897L446.669 154.287H451.249C451.88 154.287 452.394 153.72 452.394 153.024V139.14C452.394 134.268 455.989 130.304 460.407 130.304C464.826 130.304 468.421 134.268 468.421 139.14Z" fill="#C2C9DA"/>
<path d="M467.2 170.695H463.842C461.948 170.695 460.407 168.997 460.407 166.909V155.549L463.994 154.707L467.2 155.549L467.963 163.416L467.2 170.695Z" fill="#FDBF00"/>
<path d="M467.2 155.549H460.407V144.189C460.407 142.101 461.948 140.402 463.842 140.402H467.2L467.963 147.975L467.2 155.549Z" fill="#FF9721"/>
<path d="M473 166.909C473 168.997 471.459 170.695 469.566 170.695H467.2V163.934C467.035 163.459 466.619 163.122 466.131 163.122H459.262C457.998 163.122 456.973 161.992 456.973 160.597C456.973 159.203 457.998 158.073 459.262 158.073H466.131C466.619 158.073 467.035 157.735 467.2 157.261V155.549L470.71 154.286L473 155.549V166.909Z" fill="#FFDA2D"/>
<path d="M473 144.189V155.549H467.2V153.836C467.035 153.362 466.619 153.024 466.131 153.024H461.552C460.287 153.024 459.262 151.894 459.262 150.5C459.262 149.106 460.287 147.975 461.552 147.975H466.131C466.619 147.975 467.035 147.638 467.2 147.163V140.402H469.566C471.459 140.402 473 142.101 473 144.189Z" fill="#FDBF00"/>
<path d="M446.669 159.336V151.763H434V159.336H446.669Z" fill="#D58678"/>
<path d="M446.669 155.566V151.761H434V155.566H446.669Z" fill="#B95D4C"/>
</g>
<path d="M421.918 157.201C421.918 157.646 421.927 158.089 421.925 158.531C421.987 158.952 422.449 159.702 422.716 159.969C423.479 160.732 424.593 161.763 425.719 161.823C426.094 161.842 427.493 162.014 427.784 161.776C428.286 161.365 428.268 160.582 428.256 159.956C428.121 159.551 428.253 158.759 428.253 158.444V159.711C428.253 159.789 428.254 159.871 428.256 159.956C428.268 160.582 428.286 161.365 427.784 161.776C427.493 162.014 426.094 161.842 425.719 161.823C424.593 161.763 423.479 160.732 422.716 159.969C422.449 159.702 421.987 158.952 421.925 158.531C421.921 158.5 421.918 158.471 421.918 158.444V157.201Z" fill="#F6DB40"/>
<path d="M414.951 154.01C414.4 156.831 414.905 160.65 417.695 162.045C419.101 162.748 421.316 162.687 421.719 160.872C421.983 159.685 421.918 158.446 421.918 157.201C421.918 157.198 421.918 158.122 421.918 158.444C421.918 158.841 422.43 159.683 422.716 159.969C423.479 160.732 424.593 161.763 425.719 161.823C426.094 161.842 427.493 162.014 427.784 161.776C428.354 161.309 428.253 160.362 428.253 159.711C428.253 159.078 428.253 158.444 428.253 157.811C428.253 156.433 428.253 157.749 428.253 158.444C428.253 158.821 428.064 159.883 428.37 160.145C428.977 160.665 429.721 161.078 430.446 161.4C431.321 161.789 433.508 162.674 434.482 161.916C438.654 158.671 434.625 153.414 431.96 150.749C430.82 149.609 429.545 149.538 428.089 149.107C427.161 148.832 425.968 148.836 424.992 148.989C423.883 149.163 422.633 149.747 421.543 149.787C419.788 149.852 417.627 150.54 416.17 151.476C414.591 152.492 413.87 153.303 414.528 155.277" stroke="black" stroke-width="2" stroke-linecap="round" stroke-linejoin="round"/>
<g clip-path="url(#clip1)">
<path d="M36.5609 56.061C33.8959 51.6325 28.4874 50.6889 24.4791 53.9545L20.1259 57.5012C16.1178 60.7667 15.0307 67.0024 17.6957 71.4309L19.3907 74.2474L28.75 66.6222L30.1148 68.89L16.4001 80.0732C12.393 83.3379 11.3053 89.5742 13.9711 94.0041L16.8663 98.815C19.5314 103.244 24.9401 104.187 28.9471 100.923L33.1125 97.5289L27.5417 88.2719L46.6037 72.7417L36.5609 56.061ZM21.7049 68.7607C21.1212 69.2363 20.3336 69.0989 19.9459 68.4547C19.5579 67.81 19.7161 66.9016 20.2998 66.426C20.8826 65.9513 21.6704 66.0888 22.0585 66.7336C22.446 67.3779 22.2876 68.286 21.7049 68.7607Z" fill="black"/>
<path d="M48.5067 60.3847L44.3413 63.7784L49.912 73.0354L30.8501 88.5656L40.8929 105.247C43.5579 109.675 48.9666 110.618 52.9747 107.353L57.3279 103.806C61.3361 100.541 62.4231 94.3051 59.7581 89.8766L58.0632 87.0601L48.7039 94.6853L47.3391 92.4174L61.0537 81.2343C65.0607 77.9697 66.1486 71.7333 63.4828 67.3035L60.5875 62.4924C57.9225 58.0635 52.5138 57.12 48.5067 60.3847ZM55.7491 92.5466C56.333 92.071 57.1204 92.2085 57.508 92.8526C57.8961 93.4974 57.738 94.4057 57.1541 94.8814C56.5714 95.3561 55.7835 95.2185 55.3955 94.5737C55.0079 93.9296 55.1664 93.0214 55.7491 92.5466Z" fill="black"/>
</g>
<path d="M420.887 324.77C420.746 327.337 418.056 376.53 417.933 378.782C417.815 380.439 416.437 381.722 414.777 381.722H368.462C366.802 381.722 365.108 380.439 364.99 378.782C364.869 376.579 362.232 328.344 362.036 324.77H420.887Z" fill="#C4C5C6"/>
<path d="M424.051 320.025V320.023C424.051 317.402 421.926 315.277 419.305 315.277H363.618C360.996 315.277 358.872 317.402 358.872 320.023V320.025C358.874 322.646 360.996 324.77 363.618 324.77H372.477C374.225 324.77 375.641 326.185 375.641 327.934V340.59C375.641 342.337 377.057 343.753 378.805 343.753C380.554 343.753 381.969 342.337 381.969 340.59V337.426C381.969 335.678 383.385 334.262 385.133 334.262C386.881 334.262 388.298 335.678 388.298 337.426V343.753C388.298 345.502 389.713 346.917 391.462 346.917C393.209 346.917 394.625 345.502 394.625 343.753V334.262C394.625 332.513 396.041 331.098 397.789 331.098C399.537 331.098 400.953 332.513 400.953 334.262V337.426C400.953 339.173 402.37 340.59 404.117 340.59C405.865 340.59 407.281 339.173 407.281 337.426V327.934C407.281 326.185 408.697 324.77 410.445 324.77H419.305C421.897 324.77 424.051 322.67 424.051 320.025Z" fill="#F6DB40"/>
<path d="M378.964 362.002C378.416 363.644 379.318 365.539 381.017 366.026C387.815 367.973 395.106 367.973 401.905 366.026C403.236 365.644 404.117 364.377 404.117 362.994C404.117 360.881 402.102 359.397 400.043 359.976C394.603 361.508 388.631 361.596 382.879 359.976C381.172 359.493 379.476 360.44 378.964 362.002Z" fill="#3A5361"/>
<path d="M391.502 373.812C392.375 373.812 393.084 374.521 393.084 375.395C393.084 376.268 392.375 376.977 391.502 376.977C390.628 376.977 389.92 376.268 389.92 375.395C389.92 374.521 390.628 373.812 391.502 373.812Z" fill="black"/>
<path d="M357.502 318.558C358.165 315.774 360.672 313.695 363.657 313.695H419.344C422.328 313.695 424.834 315.773 425.498 318.558C429.086 319.133 431.453 321.869 431.928 326.115C431.99 326.67 432.046 327.58 431.942 328.128C431.871 337.231 427.051 346.61 420.952 353.263L419.551 378.869C419.551 378.878 419.551 378.887 419.55 378.895C419.373 381.367 417.293 383.304 414.816 383.304H368.501C365.934 383.304 363.622 381.285 363.45 378.895C363.45 378.887 363.449 378.877 363.449 378.869C363.314 376.826 362.252 357.03 362.132 354.797C355.708 348.258 351.222 338.672 351.002 327.505C350.92 323.331 353.022 319.276 357.502 318.558ZM419.344 316.859H363.657C362.023 316.859 360.674 318.105 360.51 319.697C360.554 319.91 360.555 320.129 360.509 320.347C360.673 321.94 362.022 323.187 363.657 323.187H372.516C375.133 323.187 377.262 325.316 377.262 327.934V340.59C377.262 341.462 377.972 342.172 378.844 342.172C379.716 342.172 380.426 341.462 380.426 340.59V337.426C380.426 334.809 382.555 332.68 385.172 332.68C387.789 332.68 389.919 334.809 389.919 337.426V343.754C389.919 344.626 390.628 345.336 391.501 345.336C392.373 345.336 393.083 344.626 393.083 343.754V334.262C393.083 331.645 395.212 329.516 397.828 329.516C400.445 329.516 402.574 331.645 402.574 334.262V337.426C402.574 338.298 403.284 339.008 404.156 339.008C405.029 339.008 405.738 338.298 405.738 337.426V327.934C405.738 325.316 407.867 323.187 410.484 323.187H419.344C420.948 323.187 422.316 321.984 422.488 320.361C422.44 320.141 422.437 319.919 422.489 319.683C422.318 318.098 420.973 316.859 419.344 316.859ZM378.153 360.224C379.292 358.646 381.345 357.886 383.346 358.451C385.992 359.196 388.735 359.574 391.5 359.574C394.265 359.574 397.008 359.196 399.654 358.451C401.634 357.894 403.659 358.627 404.81 360.172C409.148 359.088 413.727 356.202 417.856 351.938L419.255 326.352H410.484C409.612 326.352 408.902 327.061 408.902 327.934V337.425C408.902 340.042 406.773 342.171 404.156 342.171C401.539 342.171 399.41 340.042 399.41 337.425V334.261C399.41 333.389 398.701 332.679 397.828 332.679C396.956 332.679 396.246 333.389 396.246 334.261V343.753C396.246 346.37 394.117 348.499 391.5 348.499C388.883 348.499 386.754 346.37 386.754 343.753V337.425C386.754 336.553 386.044 335.843 385.172 335.843C384.3 335.843 383.59 336.553 383.59 337.425V340.589C383.59 343.206 381.461 345.335 378.844 345.335C376.227 345.335 374.098 343.206 374.098 340.589V327.934C374.098 327.061 373.388 326.352 372.516 326.352H363.746L365.225 353.401C369.021 356.982 373.462 359.325 378.153 360.224ZM402.493 362.486C402.238 361.722 401.399 361.247 400.511 361.497C397.587 362.32 394.555 362.738 391.501 362.738C388.446 362.738 385.414 362.32 382.487 361.496C381.453 361.204 380.426 361.914 380.426 362.992C380.426 363.702 380.865 364.323 381.492 364.503C384.732 365.431 388.099 365.902 391.501 365.902C394.901 365.902 398.269 365.431 401.509 364.503C402.342 364.264 402.766 363.291 402.493 362.486ZM428.833 327.521C428.862 326.851 428.729 324.438 427.41 322.945C426.889 322.354 426.233 321.965 425.428 321.765C424.975 323.352 423.916 324.71 422.468 325.528L421.242 347.969C429.406 337.109 428.675 328.108 428.833 327.521ZM368.501 380.14H414.816C415.638 380.14 416.329 379.5 416.393 378.68L416.487 376.976H397.409C396.535 376.976 395.827 376.268 395.827 375.394C395.827 374.52 396.535 373.812 397.409 373.812H416.66L417.604 356.541C413.792 359.874 409.7 362.175 405.73 363.202C405.642 365.228 404.292 366.997 402.38 367.544C398.856 368.554 395.196 369.066 391.501 369.066C387.804 369.066 384.144 368.554 380.62 367.544C378.732 367.004 377.39 365.271 377.273 363.274C373.064 362.421 369.052 360.545 365.464 357.765L366.341 373.812H385.172C386.046 373.812 386.755 374.521 386.755 375.394C386.755 376.268 386.046 376.976 385.172 376.976H366.514L366.607 378.68C366.668 379.418 367.602 380.14 368.501 380.14ZM354.167 327.521C354.313 328.06 353.633 339.085 361.852 349.675L360.532 325.524C359.112 324.713 358.034 323.368 357.574 321.764C356.768 321.963 356.112 322.354 355.59 322.945C354.272 324.438 354.139 326.851 354.167 327.521Z" fill="black"/>
<g clip-path="url(#clip2)">
<path d="M99.9669 289.045C102.572 291.716 105.262 294.306 108.037 296.803C110.534 299.578 113.123 302.268 115.795 304.873L51.366 369.302C47.4064 373.262 42.2219 375.241 37.0321 375.241C34.8701 375.241 32.7081 374.893 30.6359 374.204C28.2971 367.156 29.9285 359.081 35.538 353.474L99.9669 289.045Z" fill="#491352"/>
<path d="M116.625 304.043C113.492 301.577 110.459 298.993 107.507 296.319C104.833 293.368 102.249 290.334 99.7834 287.201L127.625 259.359C130.357 262.245 133.219 265.001 136.202 267.624C138.823 270.607 141.582 273.469 144.467 276.201L116.625 304.043Z" fill="#ECCDFF"/>
<path d="M203.273 43.9629C265.791 52.558 314.102 106.314 314.102 171.155C314.102 236.004 265.781 289.765 203.255 298.35C181.915 295.412 162.228 287.212 145.555 275.104C134.56 267.124 124.875 257.438 116.895 246.444C101.521 225.278 92.4453 199.253 92.4453 171.155C92.4453 106.314 140.756 52.558 203.273 43.9629Z" fill="#491352"/>
<path d="M220.844 69.7891C164.949 69.7891 119.477 115.262 119.477 171.156C119.477 227.051 164.949 272.523 220.844 272.523C276.738 272.523 322.211 227.051 322.211 171.156C322.211 115.262 276.738 69.7891 220.844 69.7891Z" fill="white"/>
<path d="M205.906 68.8105C253.786 76.8777 290.379 118.626 290.379 168.763C290.379 218.9 253.786 260.648 205.906 268.715C158.026 260.648 121.434 218.9 121.434 168.763C121.434 118.626 158.026 76.8777 205.906 68.8105Z" fill="#B1D8E4"/>
<path d="M17.9193 335.857L108.123 245.653C93.4273 223.519 85.6875 197.887 85.6875 171.156C85.6875 96.6302 146.318 36 220.844 36C295.37 36 356 96.6302 356 171.156C356 245.682 295.37 306.312 220.844 306.312C194.113 306.312 168.481 298.573 146.347 283.877L121.414 308.81C121.409 308.815 121.406 308.818 121.404 308.823L56.1432 374.081C51.0352 379.189 44.2484 382 37.0312 382C29.8141 382 23.0273 379.189 17.9219 374.083C12.814 368.978 10 362.191 10 354.969C10 347.746 12.814 340.959 17.9193 335.857ZM135.347 275.762C128.351 270.039 121.958 263.646 116.238 256.653L97.0649 275.826C102.896 282.708 109.292 289.104 116.174 294.935L135.347 275.762ZM342.484 171.156C342.484 104.082 287.918 49.5156 220.844 49.5156C153.77 49.5156 99.2031 104.082 99.2031 171.156C99.2031 196.955 107.212 221.615 122.364 242.475C129.943 252.918 139.082 262.057 149.525 269.636V269.638C170.385 284.788 195.045 292.797 220.844 292.797C287.918 292.797 342.484 238.23 342.484 171.156ZM27.4753 364.525C30.0306 367.077 33.4227 368.484 37.0312 368.484C40.6398 368.484 44.0319 367.077 46.5872 364.525L106.592 304.517C99.7496 298.644 93.356 292.253 87.4825 285.408L27.4753 345.415C24.9226 347.968 23.5156 351.358 23.5156 354.969C23.5156 358.58 24.9226 361.969 27.4753 364.525Z" fill="black"/>
<path d="M112.719 171.156C112.719 111.534 161.222 63.0312 220.844 63.0312C280.466 63.0312 328.969 111.534 328.969 171.156C328.969 230.778 280.466 279.281 220.844 279.281C161.222 279.281 112.719 230.778 112.719 171.156ZM220.844 265.766C273.011 265.766 315.453 223.323 315.453 171.156C315.453 118.989 273.011 76.5469 220.844 76.5469C168.677 76.5469 126.234 118.989 126.234 171.156C126.234 223.323 168.677 265.766 220.844 265.766Z" fill="black"/>
<path d="M205.2 153.305C208.927 153.305 212.392 155.385 214.958 159.164C217.42 162.789 218.775 167.587 218.775 172.674C218.775 175.908 218.211 179.108 217.143 181.928L216.673 183.17L215.457 182.516C212.378 180.859 208.831 179.983 205.2 179.983C201.569 179.983 198.022 180.859 194.944 182.516L193.728 183.17L193.257 181.928C192.189 179.109 191.625 175.908 191.625 172.674C191.625 167.587 192.98 162.789 195.442 159.164C198.008 155.385 201.473 153.305 205.2 153.305ZM213.078 177.639C213.902 177.87 214.878 177.083 215.256 175.883C215.635 174.682 215.273 173.521 214.448 173.291C213.623 173.06 212.648 173.847 212.27 175.048C211.891 176.248 212.253 177.409 213.078 177.639Z" fill="black"/>
<path d="M205.2 153.305C208.927 153.305 212.392 155.385 214.958 159.164C217.42 162.789 218.775 167.587 218.775 172.674C218.775 175.908 218.211 179.108 217.143 181.928L216.673 183.17L215.457 182.516C212.378 180.859 208.831 179.983 205.2 179.983C201.569 179.983 198.022 180.859 194.944 182.516L193.728 183.17L193.257 181.928C192.189 179.109 191.625 175.908 191.625 172.674C191.625 167.587 192.98 162.789 195.442 159.164C198.008 155.385 201.473 153.305 205.2 153.305ZM213.078 177.639C213.902 177.87 214.878 177.083 215.256 175.883C215.635 174.682 215.273 173.521 214.448 173.291C213.623 173.06 212.648 173.847 212.27 175.048C211.891 176.248 212.253 177.409 213.078 177.639Z" fill="black"/>
<ellipse rx="2.0363" ry="3.39384" transform="matrix(-1 0 0 1 214.021 175.704)" fill="#E4FBFF"/>
<ellipse rx="2.0363" ry="3.39384" transform="matrix(-1 0 0 1 214.021 175.704)" fill="#E4FBFF"/>
<ellipse rx="2.0363" ry="3.39384" transform="matrix(-1 0 0 1 214.021 175.704)" fill="black"/>
<rect width="23.0781" height="6.78768" transform="matrix(-1 0 0 1 217.416 176.381)" fill="black"/>
<path d="M194.339 182.486L193.66 183.165H194.339V182.486Z" fill="black"/>
<circle r="2.71507" transform="matrix(-1 0 0 1 209.272 175.026)" fill="#E4FBFF"/>
<path d="M185.724 152.155V152.155C185.716 147.727 188.924 143.948 193.295 143.237L197.635 142.531" stroke="black" stroke-width="4.07261"/>
<path d="M246.957 153.305C250.684 153.305 254.149 155.385 256.715 159.164C259.176 162.789 260.532 167.587 260.532 172.674C260.532 175.908 259.968 179.108 258.9 181.928L258.429 183.17L257.213 182.516C254.135 180.859 250.588 179.983 246.957 179.983C243.325 179.983 239.779 180.859 236.701 182.516L235.485 183.17L235.014 181.928C233.946 179.109 233.382 175.908 233.382 172.674C233.382 167.587 234.737 162.789 237.199 159.164C239.764 155.385 243.23 153.305 246.957 153.305ZM254.835 177.639C255.659 177.87 256.635 177.083 257.013 175.883C257.392 174.682 257.029 173.521 256.204 173.291C255.38 173.06 254.405 173.847 254.027 175.048C253.648 176.248 254.01 177.409 254.835 177.639Z" fill="black"/>
<path d="M246.957 153.305C250.684 153.305 254.149 155.385 256.715 159.164C259.176 162.789 260.532 167.587 260.532 172.674C260.532 175.908 259.968 179.108 258.9 181.928L258.429 183.17L257.213 182.516C254.135 180.859 250.588 179.983 246.957 179.983C243.325 179.983 239.779 180.859 236.701 182.516L235.485 183.17L235.014 181.928C233.946 179.109 233.382 175.908 233.382 172.674C233.382 167.587 234.737 162.789 237.199 159.164C239.764 155.385 243.23 153.305 246.957 153.305ZM254.835 177.639C255.659 177.87 256.635 177.083 257.013 175.883C257.392 174.682 257.029 173.521 256.204 173.291C255.38 173.06 254.405 173.847 254.027 175.048C253.648 176.248 254.01 177.409 254.835 177.639Z" fill="black"/>
<ellipse rx="2.0363" ry="3.39384" transform="matrix(-1 0 0 1 255.78 175.704)" fill="#E4FBFF"/>
<ellipse rx="2.0363" ry="3.39384" transform="matrix(-1 0 0 1 255.78 175.704)" fill="#E4FBFF"/>
<ellipse rx="2.0363" ry="3.39384" transform="matrix(-1 0 0 1 255.78 175.704)" fill="black"/>
<rect width="23.0781" height="6.78768" transform="matrix(-1 0 0 1 259.175 176.381)" fill="black"/>
<path d="M236.098 182.486L235.419 183.165H236.098V182.486Z" fill="black"/>
<circle r="2.71507" transform="matrix(-1 0 0 1 251.03 175.026)" fill="#E4FBFF"/>
<path d="M266.485 150.798V150.798C266.493 146.369 263.285 142.59 258.914 141.88L254.574 141.174" stroke="black" stroke-width="4.07261"/>
<path d="M230.725 210.702L220.592 210.489C211.715 210.303 205.262 201.992 207.281 193.346V193.346" stroke="black" stroke-width="7.4569"/>
<path d="M194.19 96.7889L183.932 98.1496C163.6 100.846 147.706 117.022 145.365 137.397L144.922 141.258" stroke="black" stroke-width="5.96552"/>
<circle r="4" transform="matrix(-1 0 0 1 143 149)" fill="black"/>
<path d="M39.841 290.785L79.3419 252.384L50.4169 212.275L10.916 250.676L39.841 290.785Z" fill="#A6ED0E"/>
<path d="M77.7522 252.778L79.7953 250.791L50.8703 210.682L48.8271 212.668L77.7522 252.778Z" fill="#FFA800"/>
<path d="M40.2951 289.194L42.3383 287.207L13.4132 247.098L11.3701 249.084L40.2951 289.194Z" fill="white"/>
<path d="M80.2923 251.481L40.7913 289.883C40.4166 290.247 39.8905 290.234 39.6162 289.853L10.6911 249.744C10.4167 249.363 10.4981 248.759 10.8727 248.395L50.3737 209.994C50.7484 209.63 51.2745 209.643 51.5488 210.023L80.4739 250.133C80.7483 250.513 80.6669 251.117 80.2923 251.481ZM40.4762 287.845L78.6204 250.763L50.6888 212.031L12.5446 249.113L40.4762 287.845Z" fill="black"/>
<path d="M68.9452 256.629C65.567 259.913 60.8058 259.795 58.332 256.364C58.0576 255.984 58.139 255.38 58.5136 255.016C58.8883 254.652 59.4144 254.665 59.6887 255.045C61.6147 257.716 65.3215 257.808 67.9517 255.251C70.582 252.694 71.1549 248.441 69.2289 245.771C67.3029 243.1 63.5961 243.007 60.9659 245.564C57.5876 248.848 52.8264 248.73 50.3526 245.299C47.8788 241.869 48.6147 236.406 51.993 233.122C55.3714 229.838 60.1325 229.956 62.6063 233.387C62.8807 233.767 62.7993 234.371 62.4247 234.735C62.05 235.099 61.5239 235.086 61.2495 234.706C59.3235 232.035 55.6168 231.943 52.9865 234.5C50.3563 237.057 49.7834 241.31 51.7094 243.98C53.6354 246.651 57.3422 246.744 59.9724 244.187C63.3507 240.902 68.1119 241.021 70.5857 244.452C73.0595 247.882 72.3235 253.345 68.9452 256.629Z" fill="black"/>
<path d="M54.6425 270.533C51.2642 273.818 46.5031 273.699 44.0292 270.268C43.7549 269.888 43.8362 269.284 44.2109 268.92C44.5855 268.556 45.1117 268.569 45.386 268.949C47.312 271.62 51.0187 271.713 53.649 269.156C56.2793 266.599 56.8521 262.346 54.9261 259.675L42.9571 243.078C42.6828 242.697 42.7641 242.094 43.1388 241.729C43.5134 241.365 44.0395 241.378 44.3139 241.759L56.2828 258.356C58.7565 261.786 58.0208 267.249 54.6425 270.533Z" fill="black"/>
<g clip-path="url(#clip3)">
<path d="M212.528 345.168C214.921 345.168 216.861 347.108 216.861 349.501C216.861 351.894 214.921 353.835 212.528 353.835C210.135 353.835 208.194 351.894 208.194 349.501C208.194 347.108 210.135 345.168 212.528 345.168Z" fill="#9BC9FF"/>
<path d="M216.861 349.501C216.861 351.894 214.921 353.835 212.528 353.835C210.135 353.835 208.194 351.894 208.194 349.501C208.194 347.108 210.135 345.168 212.528 345.168C214.921 345.168 216.861 347.108 216.861 349.501Z" fill="#9BC9FF"/>
<path d="M212.528 344.082C209.537 344.082 207.111 346.507 207.111 349.499C207.111 352.49 209.537 354.915 212.528 354.915C215.52 354.915 217.945 352.49 217.945 349.499C217.941 346.508 215.518 344.086 212.528 344.082ZM212.528 352.749C210.733 352.749 209.278 351.293 209.278 349.499C209.278 347.704 210.733 346.249 212.528 346.249C214.323 346.249 215.778 347.704 215.778 349.499C215.778 351.293 214.323 352.749 212.528 352.749Z" fill="#1E81CE"/>
<path d="M231.377 349.5C233.006 348.124 234.553 346.654 236.012 345.099C240.645 340.088 242.258 335.99 240.677 333.25C238.402 329.314 230.76 330.044 221.956 333.173C220.261 323.986 217.071 317 212.527 317C207.984 317 204.793 323.986 203.102 333.174C194.299 330.045 186.654 329.316 184.382 333.25C182.8 335.99 184.414 340.088 189.047 345.099C190.505 346.654 192.051 348.123 193.677 349.5C192.049 350.876 190.502 352.346 189.043 353.901C184.413 358.912 182.799 363.01 184.381 365.75C185.464 367.628 187.773 368.444 190.848 368.444C195.047 368.238 199.186 367.354 203.102 365.825C204.793 375.014 207.984 382 212.527 382C217.071 382 220.261 375.014 221.952 365.826C225.869 367.354 230.007 368.238 234.206 368.444C237.279 368.444 239.588 367.627 240.673 365.75C242.254 363.01 240.641 358.912 236.008 353.901C234.55 352.346 233.004 350.877 231.377 349.5V349.5ZM238.8 334.333C239.815 336.091 238.177 339.566 234.422 343.628C232.934 345.211 231.354 346.703 229.687 348.096C227.687 346.488 225.509 344.893 223.171 343.348C223.001 340.605 222.716 337.903 222.321 335.331C231.052 332.197 237.418 331.95 238.797 334.333H238.8ZM216.86 357.006C215.391 357.852 213.947 358.64 212.527 359.369C211.109 358.641 209.664 357.853 208.194 357.006C206.743 356.168 205.344 355.3 203.98 354.42C203.901 352.833 203.86 351.192 203.86 349.5C203.86 347.808 203.901 346.167 203.98 344.58C205.344 343.7 206.743 342.832 208.194 341.994C209.662 341.148 211.106 340.36 212.527 339.632C213.946 340.362 215.393 341.149 216.86 341.994C218.311 342.832 219.711 343.7 221.075 344.58C221.154 346.167 221.194 347.808 221.194 349.5C221.194 351.192 221.154 352.833 221.075 354.42C219.711 355.3 218.311 356.168 216.86 357.006ZM220.905 357.102C220.747 359.139 220.528 361.073 220.255 362.89C218.545 362.215 216.76 361.437 214.915 360.554C215.933 360.013 216.945 359.457 217.94 358.883C218.936 358.308 219.936 357.705 220.905 357.102V357.102ZM210.137 360.55C208.295 361.432 206.506 362.211 204.797 362.886C204.527 361.069 204.308 359.135 204.147 357.098C205.115 357.701 206.102 358.294 207.107 358.879C208.106 359.457 209.118 360.009 210.137 360.55ZM201.756 352.937C200.107 351.808 198.55 350.663 197.084 349.5C198.546 348.339 200.103 347.192 201.756 346.059C201.716 347.206 201.694 348.356 201.694 349.5C201.694 350.644 201.716 351.794 201.756 352.941V352.937ZM204.15 341.894C204.308 339.857 204.527 337.925 204.8 336.109C206.507 336.783 208.29 337.562 210.133 338.442C209.116 338.982 208.11 339.539 207.114 340.113C206.104 340.698 205.116 341.293 204.15 341.898V341.894ZM214.921 338.45C216.762 337.568 218.549 336.79 220.258 336.115C220.528 337.932 220.747 339.866 220.908 341.903C219.937 341.296 218.949 340.701 217.944 340.117C216.949 339.543 215.939 338.991 214.921 338.45ZM223.299 346.064C224.948 347.192 226.505 348.337 227.97 349.5C226.508 350.66 224.951 351.807 223.299 352.941C223.338 351.794 223.36 350.644 223.36 349.5C223.36 348.356 223.338 347.206 223.299 346.059V346.064ZM212.527 319.167C215.285 319.167 218.252 324.808 219.899 333.938C217.475 334.881 214.991 335.986 212.533 337.212C210.069 335.986 207.584 334.881 205.166 333.938C206.803 324.809 209.77 319.167 212.527 319.167V319.167ZM190.637 343.628C186.88 339.566 185.244 336.091 186.258 334.333C186.87 333.274 188.462 332.733 190.807 332.733C194.898 332.948 198.927 333.827 202.736 335.333C202.342 337.901 202.057 340.602 201.887 343.343C199.549 344.888 197.37 346.485 195.37 348.092C193.705 346.7 192.124 345.21 190.637 343.628ZM186.258 364.667C185.244 362.909 186.88 359.434 190.637 355.372C192.124 353.789 193.704 352.297 195.37 350.904C197.37 352.512 199.549 354.107 201.887 355.652C202.057 358.395 202.342 361.097 202.736 363.669C194.002 366.803 187.637 367.05 186.258 364.667V364.667ZM212.527 379.833C209.77 379.833 206.804 374.192 205.161 365.063C207.584 364.12 210.069 363.015 212.533 361.79C214.996 363.015 217.481 364.12 219.905 365.063C218.25 374.192 215.285 379.833 212.527 379.833V379.833ZM238.797 364.667C237.419 367.05 231.049 366.803 222.318 363.666C222.713 361.097 222.997 358.395 223.168 355.649C225.506 354.104 227.684 352.507 229.684 350.901C231.35 352.293 232.931 353.786 234.418 355.368C238.174 359.434 239.811 362.909 238.797 364.667V364.667Z" fill="#1E81CE"/>
</g>
</g>
<defs>
<clipPath id="clip0">
<rect width="43" height="39" fill="white" transform="matrix(0 -1 -1 0 473 172)"/>
</clipPath>
<clipPath id="clip1">
<rect width="60" height="60" fill="white" transform="matrix(0.77527 -0.63163 0.515622 0.856816 0 73.8984)"/>
</clipPath>
<clipPath id="clip2">
<rect width="346" height="346" fill="white" transform="matrix(-1 0 0 1 356 36)"/>
</clipPath>
<clipPath id="clip3">
<rect width="65" height="65" fill="white" transform="translate(180 317)"/>
</clipPath>
</defs>
</svg>
