<svg width="257" height="325" viewBox="0 0 257 325" fill="none" xmlns="http://www.w3.org/2000/svg">
<g clip-path="url(#clip0)">
<g clip-path="url(#clip1)">
<path d="M120.91 209.863C118.797 209.927 116.682 209.923 114.568 209.849C112.459 209.997 110.345 210.074 108.232 210.084L109.132 261.692C109.188 264.863 110.521 267.71 112.636 269.752C113.517 270.603 114.535 271.312 115.651 271.847C119.377 269.895 121.89 265.962 121.81 261.47L120.91 209.863Z" fill="#491352"/>
<path d="M108.219 209.42C110.466 209.648 112.719 209.788 114.974 209.86C117.225 209.71 119.471 209.491 121.709 209.184L121.32 186.883C119.071 186.984 116.821 186.981 114.573 186.876C112.331 187.06 110.081 187.141 107.83 187.119L108.219 209.42Z" fill="#ECCDFF"/>
<path d="M175.254 69.3439C146.396 48.2453 105.557 51.1398 80.042 77.5616C54.5236 103.987 53.0583 144.908 75.1587 173.011C85.0106 180.211 96.2593 184.617 107.818 186.244C115.438 187.318 123.196 187.183 130.775 185.843C145.368 183.268 159.307 176.234 170.364 164.785C195.879 138.363 197.347 97.4474 175.254 69.3439Z" fill="#491352"/>
<path d="M157.932 72.953C180.708 94.9478 181.344 131.371 159.349 154.147C137.354 176.924 100.931 177.56 78.1546 155.565C55.3784 133.57 54.7426 97.1466 76.7374 74.3703C98.7322 51.594 135.156 50.9582 157.932 72.953Z" fill="white"/>
<path d="M164.403 78.4329C141.718 62.879 110.379 65.4914 90.6496 85.9217C70.9204 106.352 69.4033 137.763 85.7394 159.891C108.424 175.445 139.763 172.833 159.493 152.403C179.222 131.972 180.739 100.561 164.403 78.4329Z" fill="#B1D8E4"/>
<path d="M135.921 261.225L134.66 188.972C149.359 185.735 162.599 178.336 173.117 167.444C202.444 137.076 201.596 88.5112 171.228 59.1848C140.859 29.8584 92.295 30.7061 62.9685 61.0744C33.6421 91.4428 34.4898 140.007 64.8582 169.334C75.7505 179.852 89.2409 186.785 104.043 189.507L104.392 209.477C104.392 209.482 104.392 209.484 104.391 209.487L105.304 261.759C105.376 265.85 107.035 269.667 109.976 272.507C112.917 275.347 116.789 276.872 120.878 276.8C124.968 276.73 128.786 275.072 131.628 272.129C134.47 269.186 135.994 265.313 135.921 261.225ZM111.719 190.528C116.821 190.949 121.942 190.86 127.025 190.261L127.293 205.618C122.209 206.128 117.086 206.217 111.987 205.886L111.719 190.528ZM68.476 66.3929C94.87 39.0612 138.578 38.2982 165.909 64.6922C193.241 91.0862 194.004 134.794 167.61 162.126C157.458 172.638 144.49 179.535 130.108 182.073C122.91 183.346 115.59 183.474 108.352 182.453L108.351 182.454C93.8898 180.419 80.6892 173.978 70.1767 163.826C42.8449 137.432 42.082 93.7247 68.476 66.3929ZM120.747 269.146C118.701 269.181 116.765 268.419 115.294 266.999C113.824 265.579 112.995 263.671 112.959 261.625L112.121 213.561C117.22 213.86 122.34 213.772 127.427 213.294L128.266 261.359C128.302 263.404 127.541 265.339 126.12 266.81C124.699 268.282 122.792 269.109 120.747 269.146Z" fill="black"/>
<path d="M162.103 156.807C185.564 132.511 184.886 93.6607 160.591 70.1992C136.296 46.7376 97.445 47.4158 73.9834 71.7109C50.5219 96.0061 51.2 134.857 75.4952 158.318C99.7903 181.78 138.641 181.102 162.103 156.807ZM80.8136 152.811C59.5562 132.283 58.9628 98.2868 79.4909 77.0294C100.019 55.772 134.015 55.1786 155.272 75.7066C176.53 96.2347 177.123 130.231 156.595 151.488C136.067 172.746 102.071 173.339 80.8136 152.811Z" fill="black"/>
<path d="M143.851 95.4999V95.4999C143.834 92.9914 141.998 90.8666 139.518 90.4856L137.056 90.1073" stroke="black" stroke-width="2.30703"/>
<path d="M129.939 93.5703C131.686 93.5703 133.311 94.5457 134.513 96.3168C135.667 98.0161 136.303 100.265 136.303 102.65C136.303 104.166 136.038 105.666 135.538 106.988L135.317 107.57L134.747 107.263C133.304 106.487 131.641 106.076 129.939 106.076C128.237 106.076 126.574 106.487 125.131 107.263L124.561 107.57L124.341 106.988C123.84 105.666 123.575 104.166 123.575 102.65C123.575 100.265 124.211 98.0161 125.365 96.3168C126.568 94.5457 128.192 93.5703 129.939 93.5703ZM133.632 104.977C134.018 105.086 134.476 104.717 134.653 104.154C134.83 103.591 134.661 103.047 134.274 102.939C133.888 102.831 133.43 103.2 133.253 103.763C133.076 104.325 133.245 104.869 133.632 104.977Z" fill="black"/>
<circle cx="133.5" cy="103.5" r="1.5" fill="#E4FBFF"/>
<path d="M105.433 114.57L106.049 118.471C106.853 123.553 111.738 126.935 116.778 125.896V125.896" stroke="black" stroke-width="4.22414"/>
<path d="M93.8385 96.1588V96.1588C93.7899 93.6508 95.5695 91.4786 98.0381 91.0328L100.489 90.5902" stroke="black" stroke-width="2.30703"/>
<path d="M96.5752 102.378L96.8891 102.023C101.323 97.0054 109.152 97.0134 113.575 102.04V102.04" stroke="black" stroke-width="1.96154"/>
<path d="M158.168 94.4433L161.813 99.0347C169.036 108.134 169.148 120.98 162.084 130.204L160.745 131.951" stroke="black" stroke-width="3.37931"/>
<circle cx="158.482" cy="135.863" r="2.2659" transform="rotate(44 158.482 135.863)" fill="black"/>
<path d="M39.8594 110.652L72.5 128.5L110.859 136.652" stroke="#535353" stroke-width="5"/>
<path d="M123 136.5C123 137.114 122.613 137.94 121.424 138.71C120.255 139.467 118.519 140 116.5 140C114.481 140 112.745 139.467 111.576 138.71C110.387 137.94 110 137.114 110 136.5C110 135.886 110.387 135.06 111.576 134.29C112.745 133.533 114.481 133 116.5 133C118.519 133 120.255 133.533 121.424 134.29C122.613 135.06 123 135.886 123 136.5Z" fill="#F6DB40" stroke="#535353" stroke-width="4"/>
</g>
<path d="M24.6488 130.984L40.5 130.984L40.5 90.5L24.6488 90.5C21.8052 90.5 19.5 92.8052 19.5 95.6488L19.5 125.835C19.5 128.679 21.8052 130.984 24.6488 130.984Z" fill="#F6DB40" stroke="#535353" stroke-width="3"/>
<path d="M30.9999 90.7977L32.8179 81.7354C33.2589 79.5372 33.9449 77.3954 34.8631 75.35L37.5382 69.391C38.2574 67.7888 39.1159 66.2528 40.1039 64.8008L45.0718 57.4995C46.0099 56.1207 47.0614 54.8226 48.2152 53.6186L56.1305 45.3592C57.362 44.0741 58.7055 42.9012 60.145 41.8543L67.1051 36.7924C68.3541 35.884 69.6715 35.0734 71.0453 34.3678L80.7334 29.3925L91.6818 24.8091C93.8738 23.8914 96.1671 23.2375 98.5134 22.861L107.45 21.4268C109.585 21.0843 111.75 20.9735 113.909 21.0963L118.844 21.3773C120.279 21.459 121.707 21.6438 123.116 21.9303L130.481 23.4277L140.5 26L148 28.5L154 31L161.981 35.4277L168 39L173.981 43.4277L179.5 48L184.696 53.1521L188 57L192 62L194.5 65.5L197.981 70.9277L199.703 74.1063C200.566 75.6988 201.283 77.3662 201.845 79.088L202.935 82.4277L205.481 92.4277" stroke="#535353" stroke-width="9"/>
<path d="M17.075 122.575H18.8583V98.5H17.075C10.967 98.5 5.85832 103.799 5.85832 110.537C5.85832 117.275 10.967 122.575 17.075 122.575Z" fill="#F6DB40" stroke="#535353" stroke-width="3"/>
<path d="M220.283 124.268H218.5V98.5H220.283C226.31 98.5 231.5 104.089 231.5 111.384C231.5 118.679 226.31 124.268 220.283 124.268Z" fill="#F6DB40" stroke="#535353" stroke-width="3"/>
<path d="M213.351 137.52H197.5V91.335H213.351C216.026 91.335 218.5 93.8514 218.5 97.3555V131.5C218.5 135.004 216.026 137.52 213.351 137.52Z" fill="#F6DB40" stroke="#535353" stroke-width="3"/>
<ellipse cx="121.5" cy="283.5" rx="69.5" ry="6.5" fill="#C4C4C4"/>
</g>
<defs>
<clipPath id="clip0">
<rect width="257" height="325" fill="white"/>
</clipPath>
<clipPath id="clip1">
<rect width="196" height="196" fill="white" transform="translate(116.153 6) rotate(44)"/>
</clipPath>
</defs>
</svg>
