<svg width="346" height="394" viewBox="0 0 346 394" fill="none" xmlns="http://www.w3.org/2000/svg">
<g clip-path="url(#clip0)">
<ellipse cx="257.5" cy="210.5" rx="69.5" ry="6.5" fill="#C4C4C4"/>
<ellipse cx="113.5" cy="365.5" rx="69.5" ry="6.5" fill="#C4C4C4"/>
<g clip-path="url(#clip1)">
<path d="M252.534 182.241H260.465V206.034C260.465 208.224 258.69 210 256.5 210C254.309 210 252.534 208.224 252.534 206.034V182.241V182.241Z" fill="#B19046"/>
<path d="M271.133 182.241L283.723 204.052C284.432 205.277 284.432 206.787 283.725 208.014C283.018 209.24 281.711 209.996 280.295 209.996C278.88 209.997 277.571 209.243 276.863 208.017L261.992 182.241H251.008L236.137 208.017C235.042 209.911 232.618 210.559 230.724 209.465C228.83 208.37 228.182 205.946 229.277 204.052L241.867 182.241L248.569 102.931C248.569 98.5508 252.12 95 256.5 95C260.88 95 264.431 98.5508 264.431 102.931L271.133 182.241Z" fill="#B19046"/>
<path d="M233.322 102.931H310.035C312.222 102.937 313.994 104.709 314 106.896V178.275C313.993 180.463 312.222 182.235 310.035 182.241H202.965C200.778 182.235 199.007 180.463 199 178.276V106.896C199.007 104.709 200.778 102.937 202.965 102.931H233.322V102.931Z" fill="#35495E"/>
<path d="M304.087 152.5H256.5C255.405 152.5 254.518 151.612 254.518 150.517C254.518 149.422 255.405 148.534 256.5 148.534H304.087C305.182 148.534 306.069 149.422 306.069 150.517C306.069 151.612 305.182 152.5 304.087 152.5Z" fill="#FF5364"/>
<path d="M304.087 160.432H256.5C255.405 160.432 254.518 159.544 254.518 158.449C254.518 157.353 255.405 156.466 256.5 156.466H304.087C305.182 156.466 306.069 157.353 306.069 158.449C306.069 159.544 305.182 160.432 304.087 160.432Z" fill="#F3D55B"/>
<path d="M304.087 168.363H256.5C255.405 168.363 254.518 167.476 254.518 166.38C254.518 165.285 255.405 164.397 256.5 164.397H304.087C305.182 164.397 306.069 165.285 306.069 166.38C306.069 167.476 305.182 168.363 304.087 168.363Z" fill="#2FA8CC"/>
<path d="M294.173 114.827V126.724H282.276C282.276 133.294 287.603 138.62 294.173 138.62C300.743 138.62 306.07 133.294 306.07 126.724C306.07 120.153 300.743 114.827 294.173 114.827Z" fill="white"/>
<path d="M256.5 140.603C255.405 140.603 254.518 139.716 254.518 138.62C254.518 137.525 255.405 136.638 256.5 136.638C267.029 136.638 274.65 124.794 274.65 116.81C274.65 115.715 275.538 114.827 276.633 114.827C277.728 114.827 278.616 115.715 278.616 116.81C278.616 127.587 268.751 140.603 256.5 140.603Z" fill="#FF5364"/>
<path d="M236.674 132.673L246.588 144.57V166.38L236.674 156.466L232.709 164.397H220.812L216.846 156.466L206.933 166.38V144.57L216.846 132.673H236.674Z" fill="#E64C3C"/>
<path d="M216.847 112.845C216.847 103.885 226.76 95 226.76 95C226.76 95 236.674 103.885 236.674 112.845H216.847Z" fill="#E64C3C"/>
<path d="M236.672 112.845H216.845V156.465H236.672V112.845Z" fill="#F0C419"/>
<path d="M236.673 148.534H216.845C215.75 148.534 214.862 147.646 214.862 146.551C214.862 145.456 215.75 144.568 216.845 144.568H236.673C237.768 144.568 238.656 145.456 238.656 146.551C238.656 147.646 237.768 148.534 236.673 148.534Z" fill="#E64C3C"/>
<path d="M231.417 164.397C231.618 164.941 231.718 165.517 231.715 166.097C231.715 168.918 226.758 176.294 226.758 176.294C226.758 176.294 221.801 168.918 221.801 166.097C221.797 165.517 221.898 164.942 222.098 164.397" fill="#F0C419"/>
<path d="M228.742 122.758H224.777C223.682 122.758 222.794 121.87 222.794 120.775C222.794 119.68 223.682 118.792 224.777 118.792H228.742C229.837 118.792 230.725 119.68 230.725 120.775C230.725 121.87 229.837 122.758 228.742 122.758Z" fill="white"/>
<path d="M228.742 130.689H224.777C223.682 130.689 222.794 129.802 222.794 128.706C222.794 127.611 223.682 126.724 224.777 126.724H228.742C229.837 126.724 230.725 127.611 230.725 128.706C230.725 129.802 229.837 130.689 228.742 130.689Z" fill="white"/>
<path d="M278.311 140.603H256.5C255.405 140.603 254.518 139.715 254.518 138.62V116.81C254.518 115.715 255.405 114.827 256.5 114.827C257.596 114.827 258.483 115.715 258.483 116.81V136.638H278.311C279.406 136.638 280.294 137.525 280.294 138.62C280.294 139.716 279.406 140.603 278.311 140.603Z" fill="#2FA8CC"/>
</g>
<g clip-path="url(#clip2)">
<path d="M108.458 93.7178C107.876 94.6236 107.533 95.6985 107.533 96.8556C107.533 100.062 110.133 102.662 113.339 102.662C114.413 102.662 115.415 102.365 116.278 101.857C117.638 104.896 120.682 107.017 124.227 107.017C127.75 107.017 130.777 104.921 132.149 101.911C133.282 102.394 134.529 102.662 135.839 102.662C141.051 102.662 145.275 98.438 145.275 93.2266C145.275 88.1853 141.318 84.0792 136.342 83.8166C136.488 83.1053 136.565 82.3685 136.565 81.6137C136.565 75.6009 131.691 70.7266 125.678 70.7266C120.903 70.7266 116.856 73.8056 115.389 78.0817C113.982 77.1071 112.277 76.533 110.436 76.533C105.626 76.533 101.727 80.4328 101.727 85.2427C101.727 89.3718 104.602 92.8215 108.458 93.7178V93.7178Z" fill="#D1A339"/>
<path d="M132.21 79.4362C132.21 76.8545 131.758 74.379 130.934 72.0811C129.375 71.2195 127.585 70.7266 125.678 70.7266C120.903 70.7266 116.856 73.8056 115.389 78.0817C113.982 77.1071 112.277 76.533 110.436 76.533C105.626 76.533 101.727 80.4328 101.727 85.2427C101.727 89.3718 104.602 92.8215 108.458 93.7178C107.876 94.6236 107.533 95.6985 107.533 96.8556C107.533 98.5794 108.289 100.123 109.481 101.186C109.798 101.2 110.116 101.21 110.436 101.21C122.462 101.21 132.21 91.462 132.21 79.4362Z" fill="#F0D365"/>
<path d="M104.629 112.822C104.629 113.623 103.979 114.273 103.177 114.273C102.376 114.273 101.726 113.623 101.726 112.822C101.726 112.02 102.376 111.37 103.177 111.37C103.979 111.37 104.629 112.02 104.629 112.822Z" fill="#F0D365"/>
<path d="M111.887 107.742C111.887 109.345 110.587 110.645 108.983 110.645C107.38 110.645 106.08 109.345 106.08 107.742C106.08 106.139 107.38 104.839 108.983 104.839C110.587 104.839 111.887 106.139 111.887 107.742Z" fill="#F0D365"/>
<path d="M124.226 107.742C120.769 107.742 117.601 105.84 115.955 102.836C115.129 103.197 114.238 103.387 113.339 103.387C109.737 103.387 106.806 100.457 106.806 96.8548C106.806 95.9235 107.005 95.0091 107.388 94.1671C103.583 92.8789 101 89.3327 101 85.2419C101 80.0394 105.233 75.8065 110.435 75.8065C112.055 75.8065 113.626 76.2172 115.028 77.0011C116.854 72.7792 121.026 70 125.677 70C132.08 70 137.29 75.21 137.29 81.6129C137.29 82.1317 137.256 82.6516 137.186 83.1655C142.19 83.8272 146 88.1002 146 93.2258C146 98.8292 141.442 103.387 135.839 103.387C134.691 103.387 133.571 103.199 132.501 102.825C130.856 105.833 127.679 107.742 124.226 107.742ZM116.277 101.131C116.351 101.131 116.426 101.143 116.498 101.166C116.695 101.228 116.855 101.372 116.939 101.561C118.225 104.434 121.085 106.29 124.226 106.29C127.341 106.29 130.191 104.453 131.487 101.609C131.651 101.252 132.071 101.088 132.432 101.243C133.512 101.703 134.658 101.935 135.839 101.935C140.642 101.935 144.548 98.0286 144.548 93.2258C144.548 88.5995 140.926 84.7841 136.303 84.5409C136.092 84.5292 135.896 84.4268 135.767 84.2592C135.638 84.0923 135.587 83.8768 135.63 83.6698C135.768 82.9954 135.839 82.304 135.839 81.6129C135.839 76.0095 131.281 71.4516 125.677 71.4516C121.343 71.4516 117.483 74.2102 116.074 78.3163C116 78.5318 115.83 78.6994 115.614 78.7706C115.397 78.8419 115.16 78.8068 114.975 78.6778C113.634 77.7493 112.064 77.2581 110.435 77.2581C106.034 77.2581 102.452 80.84 102.452 85.2419C102.452 88.9713 104.989 92.1654 108.622 93.011C108.852 93.0638 109.041 93.2265 109.13 93.4448C109.218 93.6642 109.195 93.9123 109.068 94.1107C108.538 94.9336 108.258 95.8824 108.258 96.8548C108.258 99.6556 110.537 101.935 113.339 101.935C114.237 101.935 115.126 101.692 115.91 101.231C116.023 101.165 116.15 101.131 116.277 101.131V101.131Z" fill="black"/>
<path d="M103.177 115C101.977 115 101 114.023 101 112.823C101 111.623 101.977 110.646 103.177 110.646C104.378 110.646 105.355 111.623 105.355 112.823C105.355 114.023 104.378 115 103.177 115ZM103.177 112.097C102.778 112.097 102.452 112.422 102.452 112.823C102.452 113.223 102.778 113.549 103.177 113.549C103.577 113.549 103.903 113.223 103.903 112.823C103.903 112.422 103.577 112.097 103.177 112.097Z" fill="black"/>
<path d="M108.984 111.37C106.983 111.37 105.354 109.742 105.354 107.741C105.354 105.74 106.983 104.112 108.984 104.112C110.984 104.112 112.613 105.74 112.613 107.741C112.613 109.742 110.984 111.37 108.984 111.37ZM108.984 105.564C107.783 105.564 106.806 106.541 106.806 107.741C106.806 108.942 107.783 109.919 108.984 109.919C110.184 109.919 111.161 108.942 111.161 107.741C111.161 106.541 110.184 105.564 108.984 105.564Z" fill="black"/>
<path d="M134.386 81.613H132.935C132.935 77.6108 129.679 74.3549 125.677 74.3549V72.9033C130.48 72.9033 134.386 76.8102 134.386 81.613Z" fill="black"/>
<path d="M123.437 91.6581C124.089 91.5903 124.588 91.379 124.932 91.0242C125.276 90.6642 125.448 90.205 125.448 89.6468C125.448 89.4016 125.401 89.1903 125.308 89.0129C125.219 88.8355 125.096 88.6816 124.94 88.5511C124.783 88.4155 124.598 88.3007 124.384 88.2068C124.175 88.1129 123.951 88.0268 123.711 87.9485L123.437 91.6581ZM123.124 82.8224C122.795 82.8537 122.511 82.919 122.271 83.0181C122.036 83.1172 121.841 83.2398 121.684 83.3859C121.533 83.532 121.421 83.699 121.348 83.8868C121.274 84.0746 121.238 84.2703 121.238 84.4737C121.238 84.7085 121.28 84.9146 121.363 85.092C121.447 85.2694 121.561 85.4259 121.708 85.5616C121.859 85.692 122.034 85.8068 122.232 85.9059C122.435 86.005 122.652 86.0964 122.881 86.1798L123.124 82.8224ZM123.813 86.485C124.188 86.5998 124.559 86.7277 124.924 86.8685C125.294 87.0042 125.626 87.179 125.918 87.3929C126.21 87.6068 126.445 87.8755 126.622 88.199C126.805 88.5172 126.896 88.919 126.896 89.4042C126.896 89.8737 126.815 90.3172 126.654 90.7346C126.497 91.152 126.268 91.5198 125.965 91.8381C125.662 92.1564 125.289 92.4146 124.846 92.6129C124.408 92.8111 123.907 92.9285 123.343 92.965L123.249 94.272C123.244 94.3764 123.202 94.4703 123.124 94.5537C123.046 94.6372 122.947 94.679 122.827 94.679H122.263L122.388 92.9416C121.768 92.8737 121.194 92.7146 120.667 92.4642C120.14 92.2085 119.688 91.8877 119.313 91.5016L119.774 90.7972C119.821 90.7346 119.879 90.6824 119.947 90.6407C120.014 90.599 120.09 90.5781 120.174 90.5781C120.278 90.5781 120.393 90.625 120.518 90.719C120.648 90.8129 120.802 90.9224 120.98 91.0477C121.157 91.1677 121.366 91.2877 121.606 91.4077C121.851 91.5224 122.143 91.6033 122.482 91.6503L122.772 87.6668C122.407 87.5572 122.047 87.4346 121.692 87.299C121.337 87.1581 121.019 86.9755 120.737 86.7511C120.455 86.5216 120.228 86.2372 120.056 85.8981C119.884 85.559 119.798 85.1337 119.798 84.6224C119.798 84.2364 119.874 83.8607 120.025 83.4955C120.176 83.1303 120.395 82.8042 120.682 82.5172C120.974 82.2303 121.332 81.9955 121.754 81.8129C122.182 81.6303 122.67 81.5285 123.218 81.5077L123.296 80.412C123.301 80.3077 123.343 80.2137 123.421 80.1303C123.5 80.0468 123.599 80.005 123.719 80.005H124.282L124.173 81.5468C124.721 81.6198 125.193 81.7659 125.589 81.985C125.991 82.199 126.343 82.4572 126.646 82.7598L126.278 83.3233C126.168 83.4955 126.041 83.5816 125.894 83.5816C125.821 83.5816 125.73 83.5503 125.621 83.4877C125.516 83.425 125.388 83.3546 125.237 83.2764C125.091 83.1929 124.921 83.1094 124.728 83.0259C124.535 82.9424 124.319 82.8798 124.079 82.8381L123.813 86.485Z" fill="black"/>
</g>
<g clip-path="url(#clip3)">
<path d="M158.127 114.664C157.57 115.529 157.243 116.556 157.243 117.662C157.243 120.726 159.727 123.21 162.791 123.21C163.817 123.21 164.775 122.927 165.599 122.441C166.898 125.345 169.807 127.372 173.194 127.372C176.561 127.372 179.454 125.369 180.764 122.493C181.848 122.954 183.039 123.21 184.291 123.21C189.271 123.21 193.307 119.174 193.307 114.194C193.307 109.377 189.526 105.454 184.771 105.203C184.911 104.523 184.985 103.819 184.985 103.098C184.985 97.3521 180.327 92.6943 174.581 92.6943C170.019 92.6943 166.152 95.6365 164.749 99.7226C163.405 98.7913 161.776 98.2427 160.017 98.2427C155.421 98.2427 151.694 101.969 151.694 106.565C151.694 110.511 154.442 113.807 158.127 114.664V114.664Z" fill="#D1A339"/>
<path d="M180.823 101.017C180.823 98.5499 180.391 96.1844 179.604 93.9886C178.114 93.1654 176.403 92.6943 174.581 92.6943C170.019 92.6943 166.151 95.6365 164.749 99.7226C163.405 98.7913 161.776 98.2427 160.017 98.2427C155.421 98.2427 151.694 101.969 151.694 106.565C151.694 110.511 154.442 113.807 158.127 114.664C157.57 115.529 157.243 116.556 157.243 117.662C157.243 119.309 157.965 120.784 159.104 121.8C159.407 121.814 159.711 121.823 160.017 121.823C171.508 121.823 180.823 112.508 180.823 101.017Z" fill="#F0D365"/>
<path d="M154.467 132.918C154.467 133.684 153.845 134.305 153.079 134.305C152.313 134.305 151.692 133.684 151.692 132.918C151.692 132.152 152.313 131.531 153.079 131.531C153.845 131.531 154.467 132.152 154.467 132.918Z" fill="#F0D365"/>
<path d="M161.402 128.065C161.402 129.597 160.16 130.839 158.628 130.839C157.096 130.839 155.854 129.597 155.854 128.065C155.854 126.533 157.096 125.291 158.628 125.291C160.16 125.291 161.402 126.533 161.402 128.065Z" fill="#F0D365"/>
<path d="M173.194 128.065C169.89 128.065 166.863 126.247 165.29 123.376C164.501 123.722 163.649 123.903 162.79 123.903C159.349 123.903 156.548 121.103 156.548 117.661C156.548 116.771 156.738 115.898 157.104 115.093C153.468 113.862 151 110.474 151 106.565C151 101.593 155.045 97.5484 160.016 97.5484C161.564 97.5484 163.065 97.9409 164.404 98.69C166.149 94.6557 170.136 92 174.581 92C180.699 92 185.677 96.9784 185.677 103.097C185.677 103.593 185.644 104.089 185.578 104.58C190.359 105.213 194 109.296 194 114.194C194 119.548 189.645 123.903 184.29 123.903C183.194 123.903 182.124 123.723 181.101 123.366C179.529 126.241 176.493 128.065 173.194 128.065ZM165.598 121.748C165.669 121.748 165.741 121.759 165.809 121.781C165.997 121.841 166.151 121.978 166.231 122.158C167.46 124.903 170.192 126.677 173.194 126.677C176.17 126.677 178.894 124.922 180.132 122.205C180.289 121.863 180.69 121.707 181.035 121.854C182.067 122.294 183.162 122.516 184.29 122.516C188.88 122.516 192.613 118.783 192.613 114.194C192.613 109.773 189.152 106.127 184.734 105.895C184.532 105.883 184.345 105.786 184.222 105.625C184.098 105.466 184.05 105.26 184.091 105.062C184.223 104.418 184.29 103.757 184.29 103.097C184.29 97.7424 179.935 93.3871 174.581 93.3871C170.439 93.3871 166.75 96.0231 165.404 99.9467C165.334 100.153 165.171 100.313 164.964 100.381C164.757 100.449 164.531 100.415 164.354 100.292C163.073 99.4048 161.573 98.9355 160.016 98.9355C155.81 98.9355 152.387 102.358 152.387 106.565C152.387 110.128 154.812 113.18 158.283 113.988C158.503 114.039 158.684 114.194 158.769 114.403C158.853 114.612 158.831 114.85 158.709 115.039C158.203 115.825 157.935 116.732 157.935 117.661C157.935 120.338 160.113 122.516 162.79 122.516C163.649 122.516 164.498 122.283 165.247 121.843C165.355 121.78 165.476 121.748 165.598 121.748V121.748Z" fill="black"/>
<path d="M153.081 135C151.934 135 151 134.067 151 132.92C151 131.773 151.934 130.839 153.081 130.839C154.228 130.839 155.161 131.773 155.161 132.92C155.161 134.067 154.228 135 153.081 135ZM153.081 132.226C152.699 132.226 152.387 132.537 152.387 132.92C152.387 133.302 152.699 133.613 153.081 133.613C153.463 133.613 153.774 133.302 153.774 132.92C153.774 132.537 153.463 132.226 153.081 132.226Z" fill="black"/>
<path d="M158.629 131.532C156.717 131.532 155.161 129.976 155.161 128.064C155.161 126.152 156.717 124.597 158.629 124.597C160.541 124.597 162.097 126.152 162.097 128.064C162.097 129.976 160.541 131.532 158.629 131.532ZM158.629 125.984C157.482 125.984 156.548 126.917 156.548 128.064C156.548 129.211 157.482 130.145 158.629 130.145C159.776 130.145 160.71 129.211 160.71 128.064C160.71 126.917 159.776 125.984 158.629 125.984Z" fill="black"/>
<path d="M182.903 103.097H181.516C181.516 99.2727 178.404 96.1615 174.58 96.1615V94.7744C179.169 94.7744 182.903 98.5077 182.903 103.097Z" fill="black"/>
<g clip-path="url(#clip4)">
<path d="M175.219 103.824C174.892 103.788 174.562 103.767 174.225 103.78C171.605 103.875 169.309 105.432 168.034 106.858L168.033 113.908L168.478 113.958C169.819 114.111 170.747 114.537 171.237 115.226C171.779 115.987 171.635 116.88 171.578 117.136C171.388 117.986 171.889 118.851 172.748 119.016C173.233 119.109 173.721 119.155 174.205 119.155C174.546 119.155 174.884 119.124 175.219 119.08C179.01 118.574 181.937 115.349 181.906 111.422C181.872 107.247 178.499 104.184 175.219 103.824V103.824Z" fill="white"/>
<path d="M181.906 111.424C181.872 107.248 178.499 104.185 175.219 103.825V119.081C179.01 118.575 181.937 115.35 181.906 111.424Z" fill="white"/>
<path d="M176.003 109.676C175.405 109.077 175.405 108.102 176.003 107.504C176.603 106.905 177.576 106.905 178.175 107.504C178.774 108.102 178.774 109.077 178.175 109.675V109.676C177.576 110.273 176.602 110.274 176.003 109.676V109.676Z" fill="#88FE12"/>
<path d="M171.652 107.926C171.435 107.117 171.91 106.268 172.738 106.046C173.554 105.828 174.399 106.314 174.618 107.132C174.838 107.95 174.353 108.792 173.533 109.012C172.71 109.232 171.871 108.745 171.652 107.926V107.926Z" fill="#4226EB"/>
<path d="M169.843 111.907C169.025 111.688 168.538 110.844 168.758 110.027C168.976 109.212 169.814 108.721 170.637 108.942C171.457 109.161 171.944 110.002 171.723 110.822C171.503 111.645 170.659 112.126 169.843 111.907V111.907Z" fill="#FF435B"/>
<path d="M177.753 114.026C176.935 113.807 176.447 112.968 176.667 112.146C176.887 111.324 177.731 110.842 178.547 111.061C179.366 111.28 179.852 112.124 179.633 112.941C179.414 113.761 178.571 114.246 177.753 114.026V114.026Z" fill="#99341F"/>
<path d="M167.542 102.75C166.273 102.75 166.007 107.516 166.007 111.484C166.007 111.663 166.009 111.826 166.01 111.996L167.094 112.508H167.542H168.267L169.074 111.996C169.075 111.826 169.077 111.665 169.077 111.484C169.077 107.515 168.811 102.75 167.542 102.75V102.75Z" fill="#B35324"/>
<path d="M169.074 111.996C169.075 111.826 169.077 111.665 169.077 111.484C169.077 107.516 168.811 102.75 167.542 102.75V112.508H168.267L169.074 111.996Z" fill="#99341F"/>
<path d="M167.542 111.996H166.011C166.029 114.259 166.159 115.746 166.166 115.883H167.542H168.919C168.932 115.633 169.057 114.357 169.074 111.996H167.542Z" fill="#FFF7E6"/>
<path d="M169.074 111.996H167.542V115.883H168.918C168.932 115.633 169.057 114.357 169.074 111.996V111.996Z" fill="#FFCCB3"/>
<path d="M167.542 115.066C166.413 115.066 165.495 115.984 165.495 117.113V118.137C165.495 118.701 165.002 119.195 164.438 119.195V120.218H166.519C166.879 120.218 167.221 120.144 167.542 120.03C168.731 119.606 169.589 118.446 169.589 117.113C169.589 115.984 168.671 115.066 167.542 115.066Z" fill="#474F54"/>
<path d="M169.589 117.113C169.589 115.984 168.671 115.066 167.542 115.066V120.03C168.731 119.606 169.589 118.446 169.589 117.113Z" fill="#32393F"/>
<path d="M175.219 117.114C176.067 117.114 176.754 116.426 176.754 115.578C176.754 114.73 176.067 114.043 175.219 114.043C174.371 114.043 173.684 114.73 173.684 115.578C173.684 116.426 174.371 117.114 175.219 117.114Z" fill="#E64C3C"/>
<path d="M176.754 115.578C176.754 114.73 176.067 114.043 175.219 114.043V117.114C176.067 117.114 176.754 116.426 176.754 115.578Z" fill="#E64C3C"/>
</g>
</g>
<path d="M72.7136 100.352C73.361 101.359 73.7417 102.553 73.7417 103.839C73.7417 107.402 70.853 110.291 67.2901 110.291C66.0974 110.291 64.9838 109.961 64.0249 109.396C62.5144 112.773 59.1319 115.129 55.1934 115.129C51.2788 115.129 47.9152 112.8 46.3909 109.456C45.1312 109.993 43.7459 110.291 42.2901 110.291C36.4997 110.291 31.8063 105.597 31.8063 99.8066C31.8063 94.2052 36.2032 89.6429 41.7322 89.3511C41.5691 88.5608 41.4837 87.7422 41.4837 86.9034C41.4837 80.2226 46.8997 74.8066 53.5805 74.8066C58.8862 74.8066 63.3827 78.2278 65.0133 82.9791C66.5766 81.8962 68.4707 81.2583 70.5159 81.2583C75.8603 81.2583 80.1934 85.5914 80.1934 90.9357C80.1934 95.5235 76.9983 99.3566 72.7136 100.352V100.352Z" fill="#D1A339"/>
<path d="M46.3224 84.4841C46.3224 81.6154 46.8248 78.8649 47.7408 76.3116C49.4734 75.3544 51.4619 74.8066 53.5805 74.8066C58.8862 74.8066 63.3827 78.2278 65.0133 82.9791C66.5766 81.8962 68.4707 81.2583 70.5159 81.2583C75.8603 81.2583 80.1934 85.5914 80.1934 90.9357C80.1934 95.5235 76.9983 99.3566 72.7136 100.352C73.361 101.359 73.7417 102.553 73.7417 103.839C73.7417 105.754 72.9022 107.47 71.5772 108.651C71.2247 108.666 70.8715 108.678 70.5159 108.678C57.154 108.678 46.3224 97.846 46.3224 84.4841Z" fill="#F0D365"/>
<path d="M76.9685 121.58C76.9685 122.47 77.6907 123.193 78.5814 123.193C79.4722 123.193 80.1943 122.47 80.1943 121.58C80.1943 120.689 79.4722 119.967 78.5814 119.967C77.6907 119.967 76.9685 120.689 76.9685 121.58Z" fill="#F0D365"/>
<path d="M68.9039 115.936C68.9039 117.717 70.3482 119.162 72.1297 119.162C73.9111 119.162 75.3555 117.717 75.3555 115.936C75.3555 114.154 73.9111 112.71 72.1297 112.71C70.3482 112.71 68.9039 114.154 68.9039 115.936Z" fill="#F0D365"/>
<path d="M55.1935 115.935C59.0348 115.935 62.5548 113.822 64.3839 110.484C65.301 110.886 66.2913 111.097 67.2903 111.097C71.2919 111.097 74.5484 107.841 74.5484 103.839C74.5484 102.804 74.3275 101.788 73.9026 100.852C78.1298 99.4209 81 95.4808 81 90.9355C81 85.1549 76.2967 80.4516 70.5161 80.4516C68.7162 80.4516 66.971 80.908 65.4136 81.779C63.3849 77.088 58.7493 74 53.5806 74C46.4663 74 40.6774 79.7889 40.6774 86.9032C40.6774 87.4797 40.716 88.0574 40.7928 88.6284C35.2339 89.3635 31 94.1113 31 99.8065C31 106.032 36.0643 111.097 42.2903 111.097C43.5654 111.097 44.8097 110.887 45.9993 110.473C47.8268 113.815 51.3566 115.935 55.1935 115.935ZM64.0251 108.59C63.9428 108.59 63.8598 108.603 63.7798 108.629C63.5613 108.698 63.3829 108.858 63.2896 109.068C61.8606 112.26 58.6832 114.323 55.1935 114.323C51.7323 114.323 48.5651 112.282 47.1259 109.122C46.9436 108.724 46.4765 108.543 46.0757 108.714C44.8759 109.225 43.6024 109.484 42.2903 109.484C36.9539 109.484 32.6129 105.143 32.6129 99.8065C32.6129 94.6661 36.6373 90.4267 41.7741 90.1566C42.0088 90.1436 42.2265 90.0298 42.3703 89.8435C42.5136 89.6581 42.5695 89.4187 42.5219 89.1887C42.3687 88.4393 42.2903 87.6711 42.2903 86.9032C42.2903 80.6772 47.3547 75.6129 53.5806 75.6129C58.3969 75.6129 62.6855 78.678 64.2508 83.2403C64.3331 83.4797 64.5217 83.666 64.7623 83.7451C65.0033 83.8243 65.2663 83.7853 65.4727 83.642C66.9619 82.6103 68.7063 82.0645 70.5161 82.0645C75.4072 82.0645 79.3871 86.0444 79.3871 90.9355C79.3871 95.0792 76.5677 98.6283 72.5315 99.5678C72.2759 99.6265 72.0652 99.8072 71.9668 100.05C71.8684 100.294 71.8943 100.569 72.0361 100.79C72.624 101.704 72.9355 102.758 72.9355 103.839C72.9355 106.951 70.4031 109.484 67.2903 109.484C66.2921 109.484 65.3041 109.213 64.4339 108.701C64.3079 108.627 64.1669 108.59 64.0251 108.59V108.59Z" fill="black"/>
<path d="M78.5806 124C79.9144 124 81 122.914 81 121.58C81 120.247 79.9144 119.161 78.5806 119.161C77.2469 119.161 76.1613 120.247 76.1613 121.58C76.1613 122.914 77.2469 124 78.5806 124ZM78.5806 120.774C79.0248 120.774 79.3871 121.136 79.3871 121.58C79.3871 122.025 79.0248 122.387 78.5806 122.387C78.1365 122.387 77.7742 122.025 77.7742 121.58C77.7742 121.136 78.1365 120.774 78.5806 120.774Z" fill="black"/>
<path d="M72.1289 119.967C74.3521 119.967 76.1611 118.158 76.1611 115.935C76.1611 113.711 74.3521 111.902 72.1289 111.902C69.9056 111.902 68.0966 113.711 68.0966 115.935C68.0966 118.158 69.9056 119.967 72.1289 119.967ZM72.1289 113.515C73.4626 113.515 74.5482 114.601 74.5482 115.935C74.5482 117.268 73.4626 118.354 72.1289 118.354C70.7952 118.354 69.7095 117.268 69.7095 115.935C69.7095 114.601 70.7952 113.515 72.1289 113.515Z" fill="black"/>
<path d="M43.9036 86.903H45.5165C45.5165 82.4561 49.1342 78.8385 53.5811 78.8385V77.2256C48.2446 77.2256 43.9036 81.5666 43.9036 86.903Z" fill="black"/>
<path d="M46.9891 95.0862C46.7675 95.1997 46.5162 95.2889 46.2351 95.3538C46.5162 95.4187 46.7675 95.5078 46.9891 95.6214L50.4594 97.3727C50.5675 97.4322 50.6432 97.4997 50.6864 97.5754C50.7351 97.6511 50.7594 97.7349 50.7594 97.8268V98.9619L44.4513 95.6781V95.0295L50.7594 91.7457V92.8808C50.7594 92.9727 50.7351 93.0565 50.6864 93.1322C50.6432 93.2078 50.5675 93.2754 50.4594 93.3349L46.9891 95.0862ZM54.6201 100.94C54.5445 101.146 54.4255 101.297 54.2634 101.394C54.1012 101.497 53.9336 101.548 53.7607 101.548H53.0958L57.9282 89.4187C58.0039 89.2349 58.112 89.0943 58.2526 88.997C58.3985 88.8943 58.5661 88.843 58.7553 88.843H59.4282L54.6201 100.94ZM68.0646 95.0295V95.6781L61.7565 98.9619V97.8268C61.7565 97.7349 61.7782 97.6511 61.8214 97.5754C61.87 97.4997 61.9484 97.4322 62.0565 97.3727L65.5268 95.6214C65.743 95.5078 65.9944 95.4187 66.2809 95.3538C65.9944 95.2889 65.743 95.1997 65.5268 95.0862L62.0565 93.3349C61.9484 93.2754 61.87 93.2078 61.8214 93.1322C61.7782 93.0565 61.7565 92.9727 61.7565 92.8808V91.7457L68.0646 95.0295Z" fill="black"/>
<path d="M110.91 298.863C108.797 298.927 106.682 298.923 104.568 298.849C102.459 298.997 100.345 299.074 98.2315 299.084L99.1323 350.692C99.1877 353.863 100.521 356.71 102.636 358.752C103.517 359.603 104.535 360.312 105.651 360.847C109.377 358.895 111.89 354.962 111.81 350.47L110.91 298.863Z" fill="#491352"/>
<path d="M98.219 298.42C100.466 298.648 102.719 298.788 104.974 298.86C107.225 298.71 109.471 298.491 111.709 298.184L111.32 275.883C109.071 275.984 106.821 275.981 104.573 275.876C102.331 276.06 100.081 276.141 97.8297 276.119L98.219 298.42Z" fill="#ECCDFF"/>
<path d="M165.254 158.344C136.396 137.245 95.5571 140.14 70.042 166.562C44.5236 192.987 43.0583 233.908 65.1587 262.011C75.0106 269.211 86.2593 273.617 97.8181 275.244C105.438 276.318 113.196 276.183 120.775 274.843C135.368 272.268 149.307 265.234 160.364 253.785C185.879 227.363 187.347 186.447 165.254 158.344V158.344Z" fill="#491352"/>
<path d="M147.932 161.953C170.708 183.948 171.344 220.371 149.349 243.147C127.354 265.924 90.9309 266.56 68.1546 244.565C45.3784 222.57 44.7426 186.147 66.7374 163.37C88.7322 140.594 125.156 139.958 147.932 161.953Z" fill="white"/>
<path d="M154.403 167.433C131.718 151.879 100.379 154.491 80.6496 174.922C60.9204 195.352 59.4033 226.763 75.7394 248.891C98.4244 264.445 129.763 261.833 149.493 241.403C169.222 220.972 170.739 189.561 154.403 167.433Z" fill="#B1D8E4"/>
<path d="M125.921 350.225L124.66 277.972C139.359 274.735 152.599 267.336 163.117 256.444C192.444 226.076 191.596 177.511 161.228 148.185C130.859 118.858 82.295 119.706 52.9685 150.074C23.6421 180.443 24.4898 229.007 54.8582 258.334C65.7505 268.852 79.2409 275.785 94.0432 278.507L94.3918 298.477C94.3919 298.482 94.3919 298.484 94.3909 298.487L95.3044 350.759C95.3758 354.85 97.0351 358.667 99.976 361.507C102.917 364.347 106.789 365.872 110.878 365.8C114.968 365.73 118.786 364.072 121.628 361.129C124.47 358.186 125.994 354.313 125.921 350.225V350.225ZM101.719 279.528C106.821 279.949 111.942 279.86 117.025 279.261L117.293 294.618C112.209 295.128 107.086 295.217 101.987 294.886L101.719 279.528ZM58.476 155.393C84.87 128.061 128.578 127.298 155.909 153.692C183.241 180.086 184.004 223.794 157.61 251.126C147.458 261.638 134.49 268.535 120.108 271.073C112.91 272.346 105.59 272.474 98.3523 271.453L98.3512 271.454C83.8898 269.419 70.6892 262.978 60.1767 252.826C32.8449 226.432 32.082 182.725 58.476 155.393V155.393ZM110.747 358.146C108.701 358.181 106.765 357.419 105.294 355.999C103.824 354.579 102.995 352.671 102.959 350.625L102.121 302.561C107.22 302.86 112.34 302.772 117.427 302.294L118.266 350.359C118.302 352.404 117.541 354.339 116.12 355.81C114.699 357.282 112.792 358.109 110.747 358.146Z" fill="black"/>
<path d="M152.103 245.807C175.564 221.511 174.886 182.661 150.591 159.199C126.296 135.738 87.445 136.416 63.9834 160.711C40.5219 185.006 41.2 223.857 65.4952 247.318C89.7903 270.78 128.641 270.102 152.103 245.807ZM70.8136 241.811C49.5562 221.283 48.9628 187.287 69.4909 166.029C90.019 144.772 124.015 144.179 145.272 164.707C166.53 185.235 167.123 219.231 146.595 240.488C126.067 261.746 92.0711 262.339 70.8136 241.811Z" fill="black"/>
<path d="M133.851 184.5V184.5C133.834 181.991 131.998 179.867 129.518 179.486L127.056 179.107" stroke="black" stroke-width="2.30703"/>
<path d="M114 190.808L114.314 190.452C118.748 185.435 126.577 185.443 131 190.469V190.469" stroke="black" stroke-width="1.96154"/>
<path d="M95.4328 203.57L96.0494 207.471C96.8527 212.553 101.738 215.935 106.778 214.896V214.896" stroke="black" stroke-width="4.22414"/>
<path d="M83.8385 185.159V185.159C83.7899 182.651 85.5695 180.479 88.0381 180.033L90.4893 179.59" stroke="black" stroke-width="2.30703"/>
<path d="M86.5752 191.378L86.8891 191.023C91.3228 186.005 99.1519 186.013 103.575 191.04V191.04" stroke="black" stroke-width="1.96154"/>
<path d="M148.168 183.443L151.813 188.035C159.036 197.134 159.148 209.98 152.084 219.204L150.745 220.951" stroke="black" stroke-width="3.37931"/>
<circle cx="148.482" cy="224.863" r="2.2659" transform="rotate(44 148.482 224.863)" fill="black"/>
<ellipse cx="134" cy="215.5" rx="7" ry="6.5" fill="#FABAFC"/>
<ellipse cx="80" cy="216.5" rx="7" ry="6.5" fill="#FABAFC"/>
<line x1="175.546" y1="230.791" x2="204.546" y2="167.791" stroke="black"/>
</g>
<defs>
<clipPath id="clip0">
<rect width="346" height="394" fill="white"/>
</clipPath>
<clipPath id="clip1">
<rect width="115" height="115" fill="white" transform="translate(199 95)"/>
</clipPath>
<clipPath id="clip2">
<rect width="45" height="45" fill="white" transform="translate(101 70)"/>
</clipPath>
<clipPath id="clip3">
<rect width="43" height="43" fill="white" transform="translate(151 92)"/>
</clipPath>
<clipPath id="clip4">
<rect width="17.4688" height="17.4688" fill="white" transform="translate(164.438 102.75)"/>
</clipPath>
</defs>
</svg>
