<svg width="114" height="97" viewBox="0 0 114 97" fill="none" xmlns="http://www.w3.org/2000/svg">
<path d="M31.3446 78.9258H18.325C15.5696 78.9258 13.3359 76.6921 13.3359 73.9368V51.2859C13.3359 48.5306 15.5696 46.2969 18.325 46.2969H31.3448V78.9258H31.3446Z" fill="#838EB1"/>
<path d="M13.3361 71.4433H11.0561C6.17907 71.4433 2.22559 67.4898 2.22559 62.6128C2.22559 57.7357 6.17907 53.7822 11.0561 53.7822H13.3361V71.4433Z" fill="white"/>
<path d="M82.6533 78.9258H95.6731C98.4285 78.9258 100.662 76.6921 100.662 73.9368V51.2859C100.662 48.5306 98.4285 46.2969 95.6731 46.2969H82.6533V78.9258Z" fill="#838EB1"/>
<path d="M100.662 71.4433H102.942C107.819 71.4433 111.773 67.4898 111.773 62.6128C111.773 57.7357 107.819 53.7822 102.942 53.7822H100.662V71.4433Z" fill="white"/>
<path d="M96.1102 46.2986H84.9774V41.3067C84.9774 24.6515 73.6542 13.3281 56.999 13.3281C40.3439 13.3281 29.0205 24.6515 29.0205 41.3067V46.2986H17.8877V41.3067C17.8877 19.7406 35.433 2.19531 56.9988 2.19531C78.5649 2.19531 96.1102 19.7406 96.1102 41.3067V46.2986Z" fill="#FFD88E"/>
<path d="M53.423 92.2772L47.3902 94.3321C43.8368 95.5425 40.1465 92.9009 40.1465 89.1471C40.1465 86.8025 41.6385 84.718 43.8579 83.9621L49.8908 81.9072C53.4442 80.6969 57.1345 83.3385 57.1345 87.0922C57.1343 89.4366 55.6422 91.5213 53.423 92.2772Z" fill="#A0C8FF"/>
<path d="M57.1348 56.4123C57.1348 54.8381 58.1412 53.4398 59.6374 52.9411L72.5159 48.6416C72.5159 51.9102 71.4761 54.9984 69.6659 57.5345C67.8534 60.0683 65.2684 62.0522 62.1757 63.112L57.1348 64.8376V56.4123Z" fill="#A0C8FF"/>
<path d="M102.942 51.5559H102.889V51.2876C102.889 48.2494 101 45.6459 98.3368 44.5836V41.3066C98.3368 22.4981 85.0415 5.57871 66.7673 1.13472C65.5727 0.844597 64.3684 1.57714 64.0776 2.77213C63.787 3.96691 64.52 5.17103 65.715 5.46182C82.037 9.43111 93.8839 24.5203 93.8839 41.3066V44.072H87.2042V41.3066C87.2042 23.969 74.3376 11.1015 56.9993 11.1015C39.6618 11.1015 26.7942 23.9683 26.7942 41.3066V44.072H20.1145V41.3066C20.1145 24.5363 31.4464 9.85995 47.6711 5.61634C48.861 5.30529 49.5731 4.08848 49.262 2.89882C48.951 1.70895 47.7328 0.997562 46.5445 1.30794C28.3611 6.06388 15.6616 22.5119 15.6616 41.3066V44.5839C12.9982 45.6461 11.1105 48.2497 11.1105 51.2876V51.5559H11.0571C4.96011 51.5559 0 56.516 0 62.613C0 68.7098 4.96011 73.6701 11.0571 73.6701H11.1105V73.9384C11.1105 77.9171 14.3473 81.154 18.3259 81.154H31.3458C32.5753 81.154 33.5723 80.1572 33.5723 78.9275V46.2985C33.5723 45.0688 32.5753 44.072 31.3458 44.072H31.2478V41.3066C31.2478 25.9037 41.5966 15.5546 56.9998 15.5546C72.4027 15.5546 82.7515 25.9034 82.7515 41.3066V44.072H82.654C81.4245 44.072 80.4274 45.0688 80.4274 46.2985V78.9273C80.4274 80.157 81.4245 81.1538 82.654 81.1538H95.6738C99.6525 81.1538 102.889 77.9168 102.889 73.9382V73.6699H102.943C109.04 73.6699 114 68.7098 114 62.6128C113.999 56.516 109.039 51.5559 102.942 51.5559ZM11.0562 69.2168C7.4149 69.2168 4.45223 66.2543 4.45223 62.6128C4.45223 58.9712 7.4149 56.0088 11.0562 56.0088H11.1097V69.2168H11.0562ZM29.1183 76.7007H18.3253C16.8021 76.7007 15.563 75.4616 15.563 73.9382V51.2876C15.563 49.7644 16.8021 48.5251 18.3253 48.5251H29.0203H29.1183V76.7007ZM98.4354 73.9382C98.4354 75.4614 97.1964 76.7007 95.6732 76.7007H84.8799V48.5251H84.9774H95.6732C97.1964 48.5251 98.4354 49.7644 98.4354 51.2876V73.9382ZM102.942 69.2168H102.889V56.0088H102.942C106.583 56.0088 109.546 58.9715 109.546 62.6128C109.546 66.2541 106.583 69.2168 102.942 69.2168Z" fill="black"/>
<path d="M55.7641 4.04554C57.4444 5.16684 59.6859 3.54435 59.1429 1.60056C58.5938 -0.364385 55.7959 -0.582143 54.9645 1.29285C54.5341 2.26318 54.8701 3.46129 55.7641 4.04554Z" fill="black"/>
<path d="M73.817 46.835C73.2363 46.4167 72.49 46.3031 71.8104 46.5293L58.932 50.8277C56.5249 51.6308 54.9079 53.8754 54.9079 56.4128V80.1032C53.122 79.2627 51.0963 79.1436 49.1727 79.7986L43.1399 81.8535C40.0178 82.9171 37.9199 85.8477 37.9199 89.1462C37.9199 91.6626 39.0935 93.946 41.14 95.4108C43.157 96.855 45.7592 97.2391 48.1082 96.4388L54.1411 94.3839H54.1409C57.2632 93.3205 59.361 90.3899 59.361 87.0913V66.4286L62.8984 65.2171C69.9824 62.7908 74.7419 56.1296 74.7419 48.6417C74.7421 47.9256 74.3979 47.2534 73.817 46.835ZM52.7052 90.1686L46.6723 92.2235C44.5918 92.9318 42.373 91.3396 42.373 89.1462C42.373 87.7544 43.2583 86.5175 44.576 86.0688L50.6089 84.0139C52.6896 83.305 54.9081 84.8992 54.9081 87.0913C54.9079 88.4831 54.0229 89.7197 52.7052 90.1686ZM61.4556 61.004L59.3613 61.7214V56.4128C59.3613 55.7945 59.7554 55.2477 60.3419 55.0519L69.8856 51.8666C68.815 56.0697 65.693 59.5527 61.4556 61.004Z" fill="black"/>
</svg>
